{
.appVersion = "1225";
DisplayStrings = (

glyphs = (
{
color = 7;
glyphname = A;
lastChange = "2019-03-28 01:59:01 +0000";
layers = (
{
anchors = (
{
name = bottom;
position = "{292, 0}";
},
{
name = ogonek;
position = "{618, 0}";
},
{
name = top;
position = "{413, 747}";
}
);
layerId = "9808B12E-936F-4588-BC0B-2F1DE3B33DAD";
paths = (
{
closed = 1;
nodes = (
"130 0 LINE",
"188 140 LINE",
"443 140 LINE",
"458 0 LINE",
"632 0 LINE",
"521 747 LINE",
"301 747 LINE",
"-60 0 LINE"
);
},
{
closed = 1;
nodes = (
"370 587 LINE",
"389 645 LINE",
"392 587 LINE",
"429 257 LINE",
"235 257 LINE"
);
}
);
userData = {
assembly = "NPUSHB[ ]\011/* 41 values pushed */
10 9 2 4 2 1 74 5 1 4 0 0 1 4 0 98 0 2 2 17 75 3 1 1 1 18 1 76 8 8 8 12 8 12 17 17 17 16 6 7 24 
CALL[ ]\011/* CallFunction */";
};
width = 657;
},
{
anchors = (
{
name = bottom;
position = "{272, 0}";
},
{
name = ogonek;
position = "{561, 0}";
},
{
name = top;
position = "{371, 747}";
}
);
layerId = "A8DD961D-2AAA-4421-B000-699D061D5CAD";
paths = (
{
closed = 1;
nodes = (
"54 0 LINE",
"152 210 LINE",
"452 210 LINE",
"489 0 LINE",
"563 0 LINE",
"421 747 LINE",
"339 747 LINE",
"-24 0 LINE"
);
},
{
closed = 1;
nodes = (
"345 623 LINE",
"372 681 LINE",
"379 625 LINE",
"442 267 LINE",
"179 267 LINE"
);
}
);
userData = {
assembly = "NPUSHB[ ]\011/* 40 values pushed */
10 1 4 2 1 74 5 1 4 0 0 1 4 0 98 0 2 2 17 75 3 1 1 1 18 1 76 8 8 8 12 8 12 17 17 17 16 6 7 24 
CALL[ ]\011/* CallFunction */";
};
width = 618;
},
{
anchors = (
{
name = bottom;
position = "{275.25, 0}";
},
{
name = ogonek;
position = "{582.8, 0}";
},
{
name = top;
position = "{374.25, 747.975}";
}
);
layerId = "FC25F90A-4039-49BA-9FA9-48428CE1BED8";
paths = (
{
closed = 1;
nodes = (
"76.4 0 LINE",
"159.875 184.55 LINE",
"444.675 184.55 LINE",
"474.075 0 LINE",
"583.425 0 LINE",
"448.3 747 LINE",
"322.775 747 LINE",
"-40.9 0 LINE"
);
},
{
closed = 1;
nodes = (
"348.575 601.425 LINE",
"372.925 657.725 LINE",
"378.6 601.075 LINE",
"431.675 265.375 LINE",
"196.475 265.375 LINE"
);
}
);
width = 624.175;
}
);
leftKerningGroup = A;
note = A;
rightKerningGroup = A;
unicode = 0041;
},
{
color = 7;
glyphname = AE;
lastChange = "2019-02-18 20:31:10 +0000";
layers = (
{
anchors = (
{
name = bottom;
position = "{448, 0}";
},
{
name = top;
position = "{547, 747}";
}
);
layerId = "9808B12E-936F-4588-BC0B-2F1DE3B33DAD";
paths = (
{
closed = 1;
nodes = (
"132 0 LINE",
"209 145 LINE",
"437 145 LINE",
"416 0 LINE",
"899 0 LINE",
"917 137 LINE",
"608 132 LINE",
"635 321 LINE",
"840 317 LINE",
"858 452 LINE",
"653 449 LINE",
"677 614 LINE",
"951 613 LINE",
"969 747 LINE",
"209 747 LINE",
"195 664 LINE",
"313 648 LINE",
"-59 0 LINE"
);
},
{
closed = 1;
nodes = (
"466 624 LINE",
"505 620 LINE",
"454 267 LINE",
"275 267 LINE"
);
}
);
userData = {
assembly = "NPUSHB[ ]\011/* 70 values pushed */
19 14 13 3 7 6 1 74 0 0 0 1 8 0 1 97 10 1 8 0 4 2 8 4 97 9 1 7 7 6 89 0 6 6 17 75 0 2 2 3 89 5 1 3 3 18 3 76 18 18 0 0 18 21 18 21 0 17 0 17 19 17 17 17 17 17 17 11 7 27 
CALL[ ]\011/* CallFunction */";
};
width = 969;
},
{
anchors = (
{
name = bottom;
position = "{398, 0}";
},
{
name = top;
position = "{497, 747}";
}
);
layerId = "A8DD961D-2AAA-4421-B000-699D061D5CAD";
paths = (
{
closed = 1;
nodes = (
"27 0 LINE",
"150 224 LINE",
"403 224 LINE",
"375 0 LINE",
"810 0 LINE",
"815 62 LINE",
"455 56 LINE",
"493 355 LINE",
"727 350 LINE",
"731 412 LINE",
"500 409 LINE",
"536 692 LINE",
"835 688 LINE",
"838 747 LINE",
"201 747 LINE",
"196 709 LINE",
"341 701 LINE",
"-52 0 LINE"
);
},
{
closed = 1;
nodes = (
"408 696 LINE",
"462 693 LINE",
"411 281 LINE",
"181 281 LINE"
);
}
);
userData = {
assembly = "NPUSHB[ ]\011/* 68 values pushed */
0 6 7 8 8 6 104 0 0 0 1 10 0 1 97 0 10 0 4 2 10 4 97 9 11 2 8 8 7 90 0 7 7 17 75 0 2 2 3 89 5 1 3 3 18 3 76 0 0 21 20 19 18 0 17 0 17 17 17 17 17 17 17 17 17 12 7 28 
CALL[ ]\011/* CallFunction */";
};
width = 870;
},
{
anchors = (
{
name = bottom;
position = "{402.775, 0}";
},
{
name = top;
position = "{501.775, 747.975}";
}
);
layerId = "FC25F90A-4039-49BA-9FA9-48428CE1BED8";
paths = (
{
closed = 1;
nodes = (
"56.625 0 LINE",
"158.075 193.575 LINE",
"392.775 193.575 LINE",
"368.425 0 LINE",
"815.25 0 LINE",
"824.2 90.1 LINE",
"487.4 82.75 LINE",
"521.775 342.775 LINE",
"736.15 335.425 LINE",
"744.1 425.2 LINE",
"531.725 422.2 LINE",
"563.1 664.25 LINE",
"844.8 660.9 LINE",
"850.75 747 LINE",
"182.875 747 LINE",
"174.9 692.475 LINE",
"313 681.5 LINE",
"-62.35 0 LINE"
);
},
{
closed = 1;
nodes = (
"410.725 670.9 LINE",
"454.075 667.575 LINE",
"403.75 275.375 LINE",
"201.975 275.375 LINE"
);
}
);
width = 878.55;
}
);
leftKerningGroup = A;
note = AE;
rightKerningGroup = E;
unicode = 00C6;
},
{
color = 7;
glyphname = B;
lastChange = "2019-02-18 20:31:10 +0000";
layers = (
{
anchors = (
{
name = bottom;
position = "{293, 0}";
},
{
name = top;
position = "{392, 747}";
}
);
layerId = "9808B12E-936F-4588-BC0B-2F1DE3B33DAD";
paths = (
{
closed = 1;
nodes = (
"491 -8 OFFCURVE",
"621 68 OFFCURVE",
"621 239 CURVE SMOOTH",
"621 318 OFFCURVE",
"572 374 OFFCURVE",
"484 393 CURVE",
"581 413 OFFCURVE",
"632 485 OFFCURVE",
"632 585 CURVE SMOOTH",
"632 698 OFFCURVE",
"549 754 OFFCURVE",
"384 754 CURVE SMOOTH",
"376 754 OFFCURVE",
"238 747 OFFCURVE",
"222 747 CURVE SMOOTH",
"142 747 LINE",
"35 0 LINE",
"111 0 LINE SMOOTH",
"123 0 OFFCURVE",
"245 -8 OFFCURVE",
"260 -8 CURVE SMOOTH"
);
},
{
closed = 1;
nodes = (
"260 114 OFFCURVE",
"240 115 OFFCURVE",
"225 117 CURVE",
"254 325 LINE",
"269 326 OFFCURVE",
"287 327 OFFCURVE",
"307 327 CURVE SMOOTH",
"396 327 OFFCURVE",
"438 307 OFFCURVE",
"438 231 CURVE SMOOTH",
"438 163 OFFCURVE",
"352 114 OFFCURVE",
"284 114 CURVE SMOOTH"
);
},
{
closed = 1;
nodes = (
"299 633 LINE",
"313 634 OFFCURVE",
"331 635 OFFCURVE",
"353 635 CURVE SMOOTH",
"420 635 OFFCURVE",
"454 618 OFFCURVE",
"454 565 CURVE SMOOTH",
"454 480 OFFCURVE",
"407 441 OFFCURVE",
"315 441 CURVE SMOOTH",
"300 441 OFFCURVE",
"286 442 OFFCURVE",
"271 443 CURVE"
);
}
);
userData = {
assembly = "NPUSHB[ ]\011/* 10 values pushed */
22 1 5 4 44 1 6 5 2 74 
MPPEM[ ]\011/* MeasurePixelPerEm */
PUSHB[ ]\011/* 1 value pushed */
42 
LT[ ]\011/* LessThan */
IF[ ]\011/* If */
NPUSHB[ ]\011/* 32 values pushed */
7 1 4 0 5 6 4 5 99 0 3 3 2 89 0 2 2 17 75 8 1 6 6 0 89 1 1 0 0 18 0 76 
ELSE[ ]\011/* Else */
NPUSHB[ ]\011/* 36 values pushed */
7 1 4 0 5 6 4 5 99 0 3 3 2 89 0 2 2 17 75 0 1 1 18 75 8 1 6 6 0 89 0 0 0 18 0 76 
EIF[ ]\011/* EndIf */
NPUSHB[ ]\011/* 21 values pushed */
34 34 23 23 34 46 34 45 42 40 23 33 23 31 57 113 33 52 9 7 24 
CALL[ ]\011/* CallFunction */";
};
width = 660;
},
{
anchors = (
{
name = bottom;
position = "{266, 0}";
},
{
name = top;
position = "{365, 747}";
}
);
layerId = "A8DD961D-2AAA-4421-B000-699D061D5CAD";
paths = (
{
closed = 1;
nodes = (
"411 -7 OFFCURVE",
"556 62 OFFCURVE",
"552 239 CURVE SMOOTH",
"552 321 OFFCURVE",
"485 381 OFFCURVE",
"400 391 CURVE",
"497 418 OFFCURVE",
"556 489 OFFCURVE",
"556 590 CURVE SMOOTH",
"556 687 OFFCURVE",
"496 755 OFFCURVE",
"337 755 CURVE SMOOTH",
"313 755 OFFCURVE",
"205 747 OFFCURVE",
"187 747 CURVE SMOOTH",
"153 747 LINE",
"59 0 LINE",
"93 0 LINE SMOOTH",
"131 0 OFFCURVE",
"190 -7 OFFCURVE",
"224 -7 CURVE SMOOTH"
);
},
{
closed = 1;
nodes = (
"216 46 OFFCURVE",
"157 51 OFFCURVE",
"140 56 CURVE",
"178 358 LINE",
"212 360 OFFCURVE",
"255 361 OFFCURVE",
"306 361 CURVE SMOOTH",
"410 361 OFFCURVE",
"474 315 OFFCURVE",
"474 228 CURVE SMOOTH",
"474 100 OFFCURVE",
"383 46 OFFCURVE",
"240 46 CURVE SMOOTH"
);
},
{
closed = 1;
nodes = (
"220 697 LINE",
"248 701 OFFCURVE",
"301 704 OFFCURVE",
"320 704 CURVE SMOOTH",
"436 704 OFFCURVE",
"482 663 OFFCURVE",
"482 583 CURVE SMOOTH",
"482 478 OFFCURVE",
"406 414 OFFCURVE",
"299 414 CURVE SMOOTH",
"226 413 OFFCURVE",
"199 413 OFFCURVE",
"185 414 CURVE"
);
}
);
userData = {
assembly = "NPUSHB[ ]\011/* 10 values pushed */
25 1 6 4 48 1 7 6 2 74 
MPPEM[ ]\011/* MeasurePixelPerEm */
PUSHB[ ]\011/* 1 value pushed */
31 
LT[ ]\011/* LessThan */
IF[ ]\011/* If */
NPUSHB[ ]\011/* 32 values pushed */
0 4 0 6 7 4 6 98 0 5 5 2 91 3 1 2 2 17 75 8 1 7 7 0 91 1 1 0 0 26 0 76 
ELSE[ ]\011/* Else */
MPPEM[ ]\011/* MeasurePixelPerEm */
PUSHB[ ]\011/* 1 value pushed */
45 
LT[ ]\011/* LessThan */
IF[ ]\011/* If */
NPUSHB[ ]\011/* 36 values pushed */
0 4 0 6 7 4 6 98 0 2 2 17 75 0 5 5 3 91 0 3 3 25 75 8 1 7 7 0 91 1 1 0 0 26 0 76 
ELSE[ ]\011/* Else */
NPUSHB[ ]\011/* 40 values pushed */
0 4 0 6 7 4 6 98 0 2 2 17 75 0 5 5 3 91 0 3 3 25 75 0 1 1 18 75 8 1 7 7 0 91 0 0 0 26 0 76 
EIF[ ]\011/* EndIf */
EIF[ ]\011/* EndIf */
NPUSHB[ ]\011/* 16 values pushed */
40 40 40 51 40 50 54 53 55 34 33 34 54 9 7 27 
CALL[ ]\011/* CallFunction */";
};
width = 605;
},
{
anchors = (
{
name = bottom;
position = "{270.55, 0}";
},
{
name = top;
position = "{369.55, 747.975}";
}
);
layerId = "FC25F90A-4039-49BA-9FA9-48428CE1BED8";
paths = (
{
closed = 1;
nodes = (
"439.1 -7 OFFCURVE",
"566.75 69.35 OFFCURVE",
"564.725 238.025 CURVE SMOOTH",
"563.375 321.35 OFFCURVE",
"505.675 378.675 OFFCURVE",
"421.35 392 CURVE",
"514.325 421.05 OFFCURVE",
"570.025 489.35 OFFCURVE",
"570.025 589.025 CURVE SMOOTH",
"570.025 686.325 OFFCURVE",
"508.4 755 OFFCURVE",
"345.475 755 CURVE SMOOTH",
"318.475 755 OFFCURVE",
"217.2 747 OFFCURVE",
"195.525 747 CURVE SMOOTH",
"147.025 747 LINE",
"50.75 0 LINE",
"100.95 0 LINE SMOOTH",
"127.175 0 OFFCURVE",
"205.3 -7 OFFCURVE",
"229.175 -7 CURVE SMOOTH"
);
},
{
closed = 1;
nodes = (
"226.8 70.45 OFFCURVE",
"187.375 73.8 OFFCURVE",
"169.725 78.475 CURVE",
"204.075 345.775 LINE",
"233.775 347.775 OFFCURVE",
"264.85 348.775 OFFCURVE",
"296.275 348.775 CURVE SMOOTH",
"397.325 348.775 OFFCURVE",
"448.725 310.025 OFFCURVE",
"448.725 225.3 CURVE SMOOTH",
"448.725 118.925 OFFCURVE",
"381.35 70.45 OFFCURVE",
"250.5 70.45 CURVE SMOOTH"
);
},
{
closed = 1;
nodes = (
"246.4 674.875 LINE",
"270 677.875 OFFCURVE",
"302.8 679.55 OFFCURVE",
"321.175 679.225 CURVE SMOOTH",
"418.675 676.625 OFFCURVE",
"460.025 646.8 OFFCURVE",
"460.025 577.725 CURVE SMOOTH",
"460.025 480 OFFCURVE",
"390.575 424.575 OFFCURVE",
"291.55 424.575 CURVE SMOOTH",
"250.4 424.575 OFFCURVE",
"232.775 424.575 OFFCURVE",
"214.725 425.575 CURVE"
);
}
);
width = 614.1;
}
);
leftKerningGroup = H;
note = B;
rightKerningGroup = B;
unicode = 0042;
},
{
color = 7;
glyphname = C;
lastChange = "2019-03-27 17:03:01 +0000";
layers = (
{
anchors = (
{
name = bottom;
position = "{302, 0}";
},
{
name = top;
position = "{435, 747}";
}
);
layerId = "9808B12E-936F-4588-BC0B-2F1DE3B33DAD";
paths = (
{
closed = 1;
nodes = (
"378 -8 OFFCURVE",
"493 29 OFFCURVE",
"524 55 CURVE",
"501 176 LINE",
"472 155 OFFCURVE",
"410 132 OFFCURVE",
"351 132 CURVE SMOOTH",
"256 132 OFFCURVE",
"217 186 OFFCURVE",
"217 305 CURVE SMOOTH",
"217 412 OFFCURVE",
"244 508 OFFCURVE",
"305 566 CURVE SMOOTH",
"335 595 OFFCURVE",
"373 609 OFFCURVE",
"419 609 CURVE SMOOTH",
"483 609 OFFCURVE",
"530 584 OFFCURVE",
"559 557 CURVE",
"609 721 LINE",
"531 748 OFFCURVE",
"490 755 OFFCURVE",
"437 755 CURVE SMOOTH",
"285 755 OFFCURVE",
"159 668 OFFCURVE",
"92 530 CURVE SMOOTH",
"58 461 OFFCURVE",
"41 386 OFFCURVE",
"41 305 CURVE SMOOTH",
"41 192 OFFCURVE",
"71 95 OFFCURVE",
"150 36 CURVE SMOOTH",
"189 7 OFFCURVE",
"241 -8 OFFCURVE",
"305 -8 CURVE SMOOTH"
);
}
);
userData = {
assembly = "NPUSHB[ ]\011/* 49 values pushed */
3 1 0 3 17 4 2 1 0 18 1 2 1 3 74 0 0 0 3 91 4 1 3 3 25 75 0 1 1 2 91 0 2 2 26 2 76 0 0 0 30 0 29 38 37 38 5 7 23 
CALL[ ]\011/* CallFunction */";
};
width = 582;
},
{
anchors = (
{
name = bottom;
position = "{302, 0}";
},
{
name = top;
position = "{400, 747}";
}
);
layerId = "A8DD961D-2AAA-4421-B000-699D061D5CAD";
paths = (
{
closed = 1;
nodes = (
"388 -7 OFFCURVE",
"456 9 OFFCURVE",
"507 41 CURVE",
"496 103 LINE",
"460 79 OFFCURVE",
"384 51 OFFCURVE",
"317 51 CURVE SMOOTH",
"185 51 OFFCURVE",
"129 174 OFFCURVE",
"129 324 CURVE SMOOTH",
"129 444 OFFCURVE",
"168 565 OFFCURVE",
"250 638 CURVE SMOOTH",
"291 675 OFFCURVE",
"340 693 OFFCURVE",
"399 693 CURVE SMOOTH",
"462 693 OFFCURVE",
"501 680 OFFCURVE",
"534 663 CURVE",
"560 725 LINE",
"479 750 OFFCURVE",
"452 755 OFFCURVE",
"402 755 CURVE SMOOTH",
"273 755 OFFCURVE",
"161 678 OFFCURVE",
"100 546 CURVE SMOOTH",
"69 479 OFFCURVE",
"54 403 OFFCURVE",
"54 318 CURVE SMOOTH",
"54 205 OFFCURVE",
"83 102 OFFCURVE",
"158 40 CURVE SMOOTH",
"195 9 OFFCURVE",
"244 -7 OFFCURVE",
"304 -7 CURVE SMOOTH"
);
}
);
userData = {
assembly = "NPUSHB[ ]\011/* 49 values pushed */
3 1 0 3 20 4 2 1 0 21 1 2 1 3 74 0 0 0 3 91 4 1 3 3 25 75 0 1 1 2 91 0 2 2 26 2 76 0 0 0 31 0 30 37 38 39 5 7 23 
CALL[ ]\011/* CallFunction */";
};
width = 557;
},
{
anchors = (
{
name = bottom;
position = "{302, 0}";
},
{
name = top;
position = "{404.85, 747.975}";
}
);
layerId = "FC25F90A-4039-49BA-9FA9-48428CE1BED8";
paths = (
{
closed = 1;
nodes = (
"401.225 -8 OFFCURVE",
"477.25 19.925 OFFCURVE",
"508.25 43.275 CURVE",
"492.625 130.775 LINE",
"464.675 108.775 OFFCURVE",
"382.825 79.4 OFFCURVE",
"320.85 79.4 CURVE SMOOTH",
"209.05 79.4 OFFCURVE",
"161.725 186.075 OFFCURVE",
"161.725 322.075 CURVE SMOOTH",
"161.725 427.725 OFFCURVE",
"191.075 540.15 OFFCURVE",
"262.45 610.55 CURVE SMOOTH",
"298.15 646.25 OFFCURVE",
"343.85 663.6 OFFCURVE",
"399.575 663.6 CURVE SMOOTH",
"467.925 663.6 OFFCURVE",
"494.125 648 OFFCURVE",
"529.175 628.35 CURVE",
"565.45 719.975 LINE",
"502.35 744.95 OFFCURVE",
"455.825 755 OFFCURVE",
"405.175 755 CURVE SMOOTH",
"272.275 755 OFFCURVE",
"159 676.375 OFFCURVE",
"97.025 543.4 CURVE SMOOTH",
"65.375 476.4 OFFCURVE",
"50.05 400.4 OFFCURVE",
"50.05 316.05 CURVE SMOOTH",
"50.05 203.05 OFFCURVE",
"80.05 100.7 OFFCURVE",
"154.025 38.675 CURVE SMOOTH",
"190.675 7.675 OFFCURVE",
"239.325 -8 OFFCURVE",
"299.3 -8 CURVE SMOOTH"
);
}
);
width = 561.225;
}
);
leftKerningGroup = O;
note = C;
rightKerningGroup = C;
unicode = 0043;
},
{
color = 7;
glyphname = D;
lastChange = "2019-02-18 20:31:10 +0000";
layers = (
{
anchors = (
{
name = bottom;
position = "{311, 0}";
},
{
name = center;
position = "{361, 374}";
},
{
name = top;
position = "{410, 747}";
}
);
layerId = "9808B12E-936F-4588-BC0B-2F1DE3B33DAD";
paths = (
{
closed = 1;
nodes = (
"538 -8 OFFCURVE",
"691 188 OFFCURVE",
"691 455 CURVE SMOOTH",
"691 644 OFFCURVE",
"604 755 OFFCURVE",
"407 755 CURVE SMOOTH",
"392 755 OFFCURVE",
"230 747 OFFCURVE",
"218 747 CURVE SMOOTH",
"142 747 LINE",
"35 0 LINE",
"105 0 LINE SMOOTH",
"125 0 OFFCURVE",
"221 -8 OFFCURVE",
"278 -8 CURVE SMOOTH"
);
},
{
closed = 1;
nodes = (
"272 119 OFFCURVE",
"247 122 OFFCURVE",
"227 129 CURVE",
"297 621 LINE",
"316 625 OFFCURVE",
"349 627 OFFCURVE",
"372 627 CURVE SMOOTH",
"439 627 OFFCURVE",
"478 610 OFFCURVE",
"498 561 CURVE SMOOTH",
"508 536 OFFCURVE",
"513 502 OFFCURVE",
"513 458 CURVE SMOOTH",
"513 330 OFFCURVE",
"483 224 OFFCURVE",
"420 164 CURVE SMOOTH",
"388 134 OFFCURVE",
"349 119 OFFCURVE",
"302 119 CURVE SMOOTH"
);
}
);
userData = {
assembly = "PUSHB[ ]\011/* 6 values pushed */
30 1 4 3 1 74 
MPPEM[ ]\011/* MeasurePixelPerEm */
PUSHB[ ]\011/* 1 value pushed */
45 
LT[ ]\011/* LessThan */
IF[ ]\011/* If */
NPUSHB[ ]\011/* 24 values pushed */
0 3 3 2 89 5 1 2 2 17 75 6 1 4 4 0 91 1 1 0 0 26 0 76 
ELSE[ ]\011/* Else */
NPUSHB[ ]\011/* 28 values pushed */
0 3 3 2 89 5 1 2 2 17 75 0 1 1 18 75 6 1 4 4 0 91 0 0 0 26 0 76 
EIF[ ]\011/* EndIf */
NPUSHB[ ]\011/* 19 values pushed */
19 19 0 0 19 32 19 31 27 25 0 18 0 13 65 37 7 7 22 
CALL[ ]\011/* CallFunction */";
};
width = 695;
},
{
anchors = (
{
name = bottom;
position = "{299, 0}";
},
{
name = center;
position = "{349, 374}";
},
{
name = top;
position = "{398, 747}";
}
);
layerId = "A8DD961D-2AAA-4421-B000-699D061D5CAD";
paths = (
{
closed = 1;
nodes = (
"485 -14 OFFCURVE",
"634 191 OFFCURVE",
"634 442 CURVE SMOOTH",
"634 637 OFFCURVE",
"546 755 OFFCURVE",
"353 755 CURVE SMOOTH",
"304 755 OFFCURVE",
"249 747 OFFCURVE",
"210 747 CURVE",
"153 747 LINE",
"59 0 LINE",
"97 0 LINE SMOOTH",
"162 0 OFFCURVE",
"198 -6 OFFCURVE",
"255 -8 CURVE SMOOTH"
);
},
{
closed = 1;
nodes = (
"230 48 OFFCURVE",
"189 52 OFFCURVE",
"140 61 CURVE",
"219 691 LINE",
"264 697 OFFCURVE",
"301 700 OFFCURVE",
"332 700 CURVE SMOOTH",
"440 700 OFFCURVE",
"504 664 OFFCURVE",
"535 588 CURVE SMOOTH",
"550 550 OFFCURVE",
"558 500 OFFCURVE",
"558 438 CURVE SMOOTH",
"558 303 OFFCURVE",
"512 178 OFFCURVE",
"424 104 CURVE SMOOTH",
"380 67 OFFCURVE",
"327 48 OFFCURVE",
"265 48 CURVE SMOOTH"
);
}
);
userData = {
assembly = "PUSHB[ ]\011/* 6 values pushed */
29 1 4 3 1 74 
MPPEM[ ]\011/* MeasurePixelPerEm */
PUSHB[ ]\011/* 1 value pushed */
33 
LT[ ]\011/* LessThan */
IF[ ]\011/* If */
NPUSHB[ ]\011/* 23 values pushed */
0 3 3 2 89 0 2 2 17 75 5 1 4 4 0 91 1 1 0 0 26 0 76 
ELSE[ ]\011/* Else */
NPUSHB[ ]\011/* 27 values pushed */
0 3 3 2 89 0 2 2 17 75 0 1 1 18 75 5 1 4 4 0 91 0 0 0 26 0 76 
EIF[ ]\011/* EndIf */
NPUSHB[ ]\011/* 13 values pushed */
19 19 19 31 19 30 41 97 50 34 6 7 24 
CALL[ ]\011/* CallFunction */";
};
width = 672;
},
{
anchors = (
{
name = bottom;
position = "{300.95, 0}";
},
{
name = center;
position = "{350.95, 374.325}";
},
{
name = top;
position = "{399.95, 747.975}";
}
);
layerId = "FC25F90A-4039-49BA-9FA9-48428CE1BED8";
paths = (
{
closed = 1;
nodes = (
"493.725 -12.05 OFFCURVE",
"643.425 190.3 OFFCURVE",
"643.425 440.6 CURVE SMOOTH",
"643.425 638.3 OFFCURVE",
"556.425 755 OFFCURVE",
"361.1 755 CURVE SMOOTH",
"323.275 755 OFFCURVE",
"227.5 747 OFFCURVE",
"200.175 747 CURVE SMOOTH",
"147.025 747 LINE",
"50.75 0 LINE",
"103.325 0 LINE SMOOTH",
"171.225 0 OFFCURVE",
"200.25 -6.65 OFFCURVE",
"260.525 -8 CURVE SMOOTH"
);
},
{
closed = 1;
nodes = (
"241.85 73.1 OFFCURVE",
"199.1 78.1 OFFCURVE",
"171.4 88.125 CURVE",
"245.4 665.55 LINE",
"265.075 670.225 OFFCURVE",
"306.45 674.9 OFFCURVE",
"331.125 674.9 CURVE SMOOTH",
"428.275 674.9 OFFCURVE",
"483.025 646.85 OFFCURVE",
"510.4 578.75 CURVE SMOOTH",
"523.75 543.7 OFFCURVE",
"530.425 496.975 OFFCURVE",
"530.425 436.9 CURVE SMOOTH",
"530.425 314.925 OFFCURVE",
"494.725 198.55 OFFCURVE",
"419 128.825 CURVE SMOOTH",
"381.3 93.8 OFFCURVE",
"334.6 75.45 OFFCURVE",
"279.55 73.775 CURVE SMOOTH"
);
}
);
width = 675.9;
}
);
leftKerningGroup = H;
note = D;
rightKerningGroup = O;
unicode = 0044;
},
{
color = 7;
glyphname = Eth;
lastChange = "2019-02-18 20:31:10 +0000";
layers = (
{
components = (
{
name = D;
}
);
layerId = "9808B12E-936F-4588-BC0B-2F1DE3B33DAD";
paths = (
{
closed = 1;
nodes = (
"26 451 LINE",
"14 329 LINE",
"410 329 LINE",
"422 451 LINE"
);
}
);
userData = {
assembly = "PUSHB[ ]\011/* 6 values pushed */
38 1 8 2 1 74 
MPPEM[ ]\011/* MeasurePixelPerEm */
PUSHB[ ]\011/* 1 value pushed */
45 
LT[ ]\011/* LessThan */
IF[ ]\011/* If */
NPUSHB[ ]\011/* 34 values pushed */
6 1 3 7 1 2 8 3 2 97 0 5 5 4 89 9 1 4 4 17 75 10 1 8 8 0 91 1 1 0 0 26 0 76 
ELSE[ ]\011/* Else */
NPUSHB[ ]\011/* 38 values pushed */
6 1 3 7 1 2 8 3 2 97 0 5 5 4 89 9 1 4 4 17 75 0 1 1 18 75 10 1 8 8 0 91 0 0 0 26 0 76 
EIF[ ]\011/* EndIf */
NPUSHB[ ]\011/* 25 values pushed */
23 23 0 0 23 40 23 39 37 36 35 34 31 29 0 22 0 17 17 17 65 37 11 7 24 
CALL[ ]\011/* CallFunction */";
};
width = 695;
},
{
components = (
{
name = D;
}
);
layerId = "A8DD961D-2AAA-4421-B000-699D061D5CAD";
paths = (
{
closed = 1;
nodes = (
"31 407 LINE",
"25 358 LINE",
"386 358 LINE",
"392 407 LINE"
);
}
);
userData = {
assembly = "PUSHB[ ]\011/* 6 values pushed */
37 1 8 2 1 74 
MPPEM[ ]\011/* MeasurePixelPerEm */
PUSHB[ ]\011/* 1 value pushed */
33 
LT[ ]\011/* LessThan */
IF[ ]\011/* If */
NPUSHB[ ]\011/* 33 values pushed */
6 1 3 7 1 2 8 3 2 97 0 5 5 4 89 0 4 4 17 75 9 1 8 8 0 91 1 1 0 0 26 0 76 
ELSE[ ]\011/* Else */
NPUSHB[ ]\011/* 37 values pushed */
6 1 3 7 1 2 8 3 2 97 0 5 5 4 89 0 4 4 17 75 0 1 1 18 75 9 1 8 8 0 91 0 0 0 26 0 76 
EIF[ ]\011/* EndIf */
NPUSHB[ ]\011/* 17 values pushed */
23 23 23 39 23 38 17 18 41 97 17 17 50 34 10 7 28 
CALL[ ]\011/* CallFunction */";
};
width = 672;
},
{
components = (
{
alignment = -1;
name = D;
}
);
layerId = "FC25F90A-4039-49BA-9FA9-48428CE1BED8";
paths = (
{
closed = 1;
nodes = (
"27.675 421.85 LINE",
"20.025 349.1 LINE",
"385.875 349.1 LINE",
"394.525 421.85 LINE"
);
}
);
width = 675.9;
}
);
leftKerningGroup = H;
note = Eth;
rightKerningGroup = O;
rightMetricsKey = D;
unicode = 00D0;
},
{
color = 7;
glyphname = E;
lastChange = "2019-02-18 20:31:10 +0000";
layers = (
{
anchors = (
{
name = bottom;
position = "{288, 0}";
},
{
name = ogonek;
position = "{494, 10}";
},
{
name = top;
position = "{374, 747}";
},
{
name = topleft;
position = "{82, 747}";
}
);
layerId = "9808B12E-936F-4588-BC0B-2F1DE3B33DAD";
paths = (
{
closed = 1;
nodes = (
"518 0 LINE",
"536 137 LINE",
"227 132 LINE",
"254 321 LINE",
"459 317 LINE",
"477 452 LINE",
"272 449 LINE",
"296 614 LINE",
"570 613 LINE",
"588 747 LINE",
"142 747 LINE",
"35 0 LINE"
);
}
);
userData = {
assembly = "NPUSHB[ ]\011/* 44 values pushed */
0 1 0 2 3 1 2 97 0 0 0 5 89 6 1 5 5 17 75 0 3 3 4 89 0 4 4 18 4 76 0 0 0 11 0 11 17 17 17 17 17 7 7 25 
CALL[ ]\011/* CallFunction */";
};
width = 588;
},
{
anchors = (
{
name = bottom;
position = "{288, 0}";
},
{
name = ogonek;
position = "{465, 10}";
},
{
name = top;
position = "{348, 747}";
},
{
name = topleft;
position = "{82, 747}";
}
);
layerId = "A8DD961D-2AAA-4421-B000-699D061D5CAD";
paths = (
{
closed = 1;
nodes = (
"494 0 LINE",
"499 62 LINE",
"139 56 LINE",
"177 355 LINE",
"411 350 LINE",
"416 412 LINE",
"184 409 LINE",
"220 692 LINE",
"520 688 LINE",
"522 747 LINE",
"153 747 LINE",
"59 0 LINE"
);
}
);
userData = {
assembly = "NPUSHB[ ]\011/* 44 values pushed */
0 1 0 2 3 1 2 97 0 0 0 5 89 6 1 5 5 17 75 0 3 3 4 89 0 4 4 18 4 76 0 0 0 11 0 11 17 17 17 17 17 7 7 25 
CALL[ ]\011/* CallFunction */";
};
width = 556;
},
{
anchors = (
{
name = bottom;
position = "{288, 0}";
},
{
name = ogonek;
position = "{469.875, 10}";
},
{
name = top;
position = "{351.3, 747}";
},
{
name = topleft;
position = "{82, 747.975}";
}
);
layerId = "FC25F90A-4039-49BA-9FA9-48428CE1BED8";
paths = (
{
closed = 1;
nodes = (
"497.9 0 LINE",
"506.85 90.1 LINE",
"170.05 82.75 LINE",
"203.75 342.775 LINE",
"418.8 335.425 LINE",
"426.75 425.2 LINE",
"214.375 422.2 LINE",
"245.075 664.25 LINE",
"527.45 660.9 LINE",
"533.05 747 LINE",
"147.025 747 LINE",
"50.75 0 LINE"
);
}
);
width = 561.2;
}
);
leftKerningGroup = H;
note = E;
rightKerningGroup = E;
unicode = 0045;
},
{
color = 7;
glyphname = Ezh;
lastChange = "2019-03-23 03:54:04 +0000";
layers = (
{
anchors = (
{
name = top;
position = "{317, 747}";
}
);
layerId = "9808B12E-936F-4588-BC0B-2F1DE3B33DAD";
paths = (
{
closed = 1;
nodes = (
"326 -7 OFFCURVE",
"514 79 OFFCURVE",
"514 265 CURVE SMOOTH",
"514 333 OFFCURVE",
"472 401 OFFCURVE",
"338 414 CURVE",
"536 579 LINE",
"559 748 LINE",
"115 747 LINE",
"95 613 LINE",
"385 615 LINE",
"324 573 LINE",
"185 447 LINE",
"168 318 LINE",
"219 334 LINE",
"288 334 OFFCURVE",
"338 311 OFFCURVE",
"338 246 CURVE SMOOTH",
"338 188 OFFCURVE",
"290 120 OFFCURVE",
"145 120 CURVE SMOOTH",
"124 120 OFFCURVE",
"63 125 OFFCURVE",
"35 130 CURVE",
"19 4 LINE",
"54 -1 OFFCURVE",
"111 -7 OFFCURVE",
"138 -7 CURVE SMOOTH"
);
}
);
width = 536;
},
{
anchors = (
{
name = top;
position = "{337, 747}";
}
);
background = {
components = (
{
name = three;
transform = "{1, 0, 0, 1, -10, 0}";
}
);
};
layerId = "A8DD961D-2AAA-4421-B000-699D061D5CAD";
paths = (
{
closed = 1;
nodes = (
"376 -4 OFFCURVE",
"480 108 OFFCURVE",
"480 249 CURVE SMOOTH",
"480 348 OFFCURVE",
"382 438 OFFCURVE",
"258 426 CURVE",
"519 670 LINE",
"532 748 LINE",
"109 747 LINE",
"101 688 LINE",
"465 692 LINE",
"395 637 LINE",
"155 406 LINE",
"147 333 LINE",
"211 378 LINE",
"334 389 OFFCURVE",
"408 327 OFFCURVE",
"408 236 CURVE SMOOTH",
"408 149 OFFCURVE",
"326 50 OFFCURVE",
"163 50 CURVE SMOOTH",
"122 50 OFFCURVE",
"78 52 OFFCURVE",
"50 58 CURVE",
"42 5 LINE",
"77 -3 OFFCURVE",
"107 -8 OFFCURVE",
"166 -7 CURVE SMOOTH"
);
}
);
width = 508;
},
{
anchors = (
{
name = top;
position = "{332.05, 747}";
}
);
layerId = "FC25F90A-4039-49BA-9FA9-48428CE1BED8";
paths = (
{
closed = 1;
nodes = (
"342.325 -7 OFFCURVE",
"483 99 OFFCURVE",
"483 250 CURVE SMOOTH",
"483 327 OFFCURVE",
"445 414 OFFCURVE",
"290 421 CURVE",
"514 634 LINE",
"530.325 748 LINE",
"97.325 747 LINE",
"86.375 660.9 LINE",
"425 661 LINE",
"325 572 LINE",
"172 423 LINE",
"162 335 LINE",
"217 363 LINE",
"291 366 OFFCURVE",
"380 336 OFFCURVE",
"380 246 CURVE SMOOTH",
"380 145 OFFCURVE",
"260 79 OFFCURVE",
"121 79 CURVE SMOOTH",
"94 79 OFFCURVE",
"59 82 OFFCURVE",
"31 85 CURVE",
"21.325 -1 LINE",
"56.325 -4 OFFCURVE",
"86.325 -7 OFFCURVE",
"119.4 -7 CURVE SMOOTH"
);
}
);
width = 513.65;
}
);
leftKerningGroup = Ezh;
rightKerningGroup = Ezh;
unicode = 01B7;
},
{
color = 7;
glyphname = F;
lastChange = "2019-02-18 20:31:10 +0000";
layers = (
{
anchors = (
{
name = bottom;
position = "{227, 0}";
},
{
name = top;
position = "{347, 747}";
}
);
layerId = "9808B12E-936F-4588-BC0B-2F1DE3B33DAD";
paths = (
{
closed = 1;
nodes = (
"208 0 LINE",
"250 297 LINE",
"461 294 LINE",
"479 436 LINE",
"270 433 LINE",
"296 615 LINE",
"540 613 LINE",
"561 747 LINE",
"142 747 LINE",
"35 0 LINE"
);
}
);
userData = {
assembly = "NPUSHB[ ]\011/* 38 values pushed */
0 1 0 2 3 1 2 97 0 0 0 4 89 5 1 4 4 17 75 0 3 3 18 3 76 0 0 0 9 0 9 17 17 17 17 6 7 24 
CALL[ ]\011/* CallFunction */";
};
width = 527;
},
{
anchors = (
{
name = bottom;
position = "{221, 0}";
},
{
name = top;
position = "{320, 747}";
}
);
layerId = "A8DD961D-2AAA-4421-B000-699D061D5CAD";
paths = (
{
closed = 1;
nodes = (
"132 0 LINE",
"177 354 LINE",
"427 348 LINE",
"432 412 LINE",
"184 408 LINE",
"220 692 LINE",
"528 688 LINE",
"534 747 LINE",
"153 747 LINE",
"59 0 LINE"
);
}
);
userData = {
assembly = "NPUSHB[ ]\011/* 38 values pushed */
0 1 0 2 3 1 2 97 0 0 0 4 89 5 1 4 4 17 75 0 3 3 18 3 76 0 0 0 9 0 9 17 17 17 17 6 7 24 
CALL[ ]\011/* CallFunction */";
};
width = 516;
},
{
anchors = (
{
name = bottom;
position = "{221.975, 0}";
},
{
name = top;
position = "{328.775, 747.975}";
}
);
layerId = "FC25F90A-4039-49BA-9FA9-48428CE1BED8";
paths = (
{
closed = 1;
nodes = (
"159.425 0 LINE",
"203.425 338.875 LINE",
"432.525 331.525 LINE",
"440.475 423.6 LINE",
"214.05 419.6 LINE",
"245.075 664.575 LINE",
"529.275 660.9 LINE",
"538.225 747 LINE",
"147.025 747 LINE",
"50.75 0 LINE"
);
}
);
width = 517.95;
}
);
leftKerningGroup = H;
note = F;
rightKerningGroup = F;
unicode = 0046;
},
{
color = 7;
glyphname = G;
lastChange = "2019-02-18 20:31:10 +0000";
layers = (
{
anchors = (
{
name = bottom;
position = "{312, 0}";
},
{
name = top;
position = "{411, 747}";
}
);
layerId = "9808B12E-936F-4588-BC0B-2F1DE3B33DAD";
paths = (
{
closed = 1;
nodes = (
"410 -8 OFFCURVE",
"471 7 OFFCURVE",
"546 27 CURVE SMOOTH",
"567 33 OFFCURVE",
"585 37 OFFCURVE",
"600 39 CURVE",
"652 415 LINE",
"371 415 LINE",
"354 278 LINE",
"476 278 LINE",
"454 138 LINE",
"431 126 OFFCURVE",
"387 122 OFFCURVE",
"356 122 CURVE SMOOTH",
"260 122 OFFCURVE",
"211 185 OFFCURVE",
"211 305 CURVE SMOOTH",
"211 406 OFFCURVE",
"237 506 OFFCURVE",
"302 568 CURVE SMOOTH",
"335 599 OFFCURVE",
"377 614 OFFCURVE",
"428 614 CURVE SMOOTH",
"491 614 OFFCURVE",
"591 578 OFFCURVE",
"622 554 CURVE",
"658 711 LINE",
"551 748 OFFCURVE",
"524 755 OFFCURVE",
"432 755 CURVE SMOOTH",
"285 755 OFFCURVE",
"159 674 OFFCURVE",
"89 535 CURVE SMOOTH",
"54 465 OFFCURVE",
"36 385 OFFCURVE",
"36 296 CURVE SMOOTH",
"36 191 OFFCURVE",
"72 94 OFFCURVE",
"160 36 CURVE SMOOTH",
"204 7 OFFCURVE",
"261 -8 OFFCURVE",
"331 -8 CURVE SMOOTH"
);
}
);
userData = {
assembly = "NPUSHB[ ]\011/* 48 values pushed */
19 1 3 2 20 1 0 3 2 74 0 0 0 5 4 0 5 97 0 3 3 2 91 0 2 2 25 75 0 4 4 1 91 0 1 1 26 1 76 19 37 39 38 37 16 6 7 26 
CALL[ ]\011/* CallFunction */";
};
width = 697;
},
{
anchors = (
{
name = bottom;
position = "{290, 0}";
},
{
name = top;
position = "{389, 747}";
}
);
layerId = "A8DD961D-2AAA-4421-B000-699D061D5CAD";
paths = (
{
closed = 1;
nodes = (
"362 -8 OFFCURVE",
"412 5 OFFCURVE",
"479 25 CURVE SMOOTH",
"524 38 OFFCURVE",
"541 43 OFFCURVE",
"562 46 CURVE",
"602 356 LINE",
"392 356 LINE",
"384 297 LINE",
"521 296 LINE",
"496 91 LINE",
"432 67 OFFCURVE",
"366 49 OFFCURVE",
"314 49 CURVE SMOOTH",
"185 49 OFFCURVE",
"129 175 OFFCURVE",
"129 320 CURVE SMOOTH",
"129 445 OFFCURVE",
"173 568 OFFCURVE",
"258 641 CURVE SMOOTH",
"301 677 OFFCURVE",
"352 695 OFFCURVE",
"412 695 CURVE SMOOTH",
"491 695 OFFCURVE",
"549 676 OFFCURVE",
"585 655 CURVE",
"609 722 LINE",
"534 746 OFFCURVE",
"487 755 OFFCURVE",
"413 755 CURVE SMOOTH",
"278 755 OFFCURVE",
"162 676 OFFCURVE",
"99 540 CURVE SMOOTH",
"68 471 OFFCURVE",
"53 393 OFFCURVE",
"55 306 CURVE SMOOTH",
"56 198 OFFCURVE",
"90 97 OFFCURVE",
"163 37 CURVE SMOOTH",
"200 7 OFFCURVE",
"246 -8 OFFCURVE",
"301 -8 CURVE SMOOTH"
);
}
);
userData = {
assembly = "NPUSHB[ ]\011/* 48 values pushed */
21 1 3 2 22 1 0 3 2 74 0 0 0 5 4 0 5 97 0 3 3 2 91 0 2 2 25 75 0 4 4 1 91 0 1 1 26 1 76 19 38 38 38 39 16 6 7 26 
CALL[ ]\011/* CallFunction */";
};
width = 654;
},
{
anchors = (
{
name = bottom;
position = "{293.575, 0}";
},
{
name = top;
position = "{392.575, 747.975}";
}
);
layerId = "FC25F90A-4039-49BA-9FA9-48428CE1BED8";
paths = (
{
closed = 1;
nodes = (
"367.15 -8 OFFCURVE",
"427.95 6.95 OFFCURVE",
"493 26.975 CURVE SMOOTH",
"530.15 37.35 OFFCURVE",
"547.45 42.35 OFFCURVE",
"566.5 44.7 CURVE",
"608.45 365.75 LINE",
"388.425 365.75 LINE",
"377.45 278 LINE",
"491.75 278 LINE",
"469.75 109.525 LINE",
"423.275 87.8 OFFCURVE",
"365.225 76.775 OFFCURVE",
"320.825 76.775 CURVE SMOOTH",
"208.4 76.775 OFFCURVE",
"161.075 186.375 OFFCURVE",
"161.075 321.075 CURVE SMOOTH",
"161.075 428.775 OFFCURVE",
"195.125 542.85 OFFCURVE",
"271.175 614.225 CURVE SMOOTH",
"308.875 649.25 OFFCURVE",
"355.9 666.925 OFFCURVE",
"413.6 666.925 CURVE SMOOTH",
"485.4 666.925 OFFCURVE",
"556.15 643 OFFCURVE",
"584.475 622 CURVE",
"615.45 720.375 LINE",
"534.275 746.325 OFFCURVE",
"491.5 755 OFFCURVE",
"415.925 755 CURVE SMOOTH",
"278.625 755 OFFCURVE",
"160.675 675.35 OFFCURVE",
"96.375 539.025 CURVE SMOOTH",
"64.725 470.025 OFFCURVE",
"49.4 392.025 OFFCURVE",
"50.4 304.375 CURVE SMOOTH",
"52.425 196.7 OFFCURVE",
"85.4 96.675 OFFCURVE",
"161 37 CURVE SMOOTH",
"198.3 7 OFFCURVE",
"245.25 -8 OFFCURVE",
"302.525 -8 CURVE SMOOTH"
);
}
);
width = 661.15;
}
);
leftKerningGroup = O;
note = G;
rightKerningGroup = G;
unicode = 0047;
},
{
color = 7;
glyphname = H;
lastChange = "2019-03-22 20:45:13 +0000";
layers = (
{
anchors = (
{
name = bottom;
position = "{324, 0}";
},
{
name = top;
position = "{421, 747}";
}
);
layerId = "9808B12E-936F-4588-BC0B-2F1DE3B33DAD";
paths = (
{
closed = 1;
nodes = (
"202 0 LINE",
"246 304 LINE",
"481 304 LINE",
"438 0 LINE",
"612 0 LINE",
"719 747 LINE",
"544 747 LINE",
"498 423 LINE",
"263 423 LINE",
"309 747 LINE",
"136 747 LINE",
"29 0 LINE"
);
}
);
userData = {
assembly = "NPUSHB[ ]\011/* 36 values pushed */
0 4 0 1 0 4 1 98 6 5 2 3 3 17 75 2 1 0 0 18 0 76 0 0 0 11 0 11 17 17 17 17 17 7 7 25 
CALL[ ]\011/* CallFunction */";
};
width = 732;
},
{
anchors = (
{
name = bottom;
position = "{308, 0}";
},
{
name = top;
position = "{408, 747}";
}
);
layerId = "A8DD961D-2AAA-4421-B000-699D061D5CAD";
paths = (
{
closed = 1;
nodes = (
"132 0 LINE",
"176 349 LINE",
"531 349 LINE",
"487 0 LINE",
"561 0 LINE",
"654 747 LINE",
"581 747 LINE",
"538 405 LINE",
"184 405 LINE",
"227 747 LINE",
"153 747 LINE",
"59 0 LINE"
);
}
);
userData = {
assembly = "NPUSHB[ ]\011/* 36 values pushed */
0 4 0 1 0 4 1 98 6 5 2 3 3 17 75 2 1 0 0 18 0 76 0 0 0 11 0 11 17 17 17 17 17 7 7 25 
CALL[ ]\011/* CallFunction */";
};
width = 688;
},
{
anchors = (
{
name = bottom;
position = "{311.25, 0}";
},
{
name = top;
position = "{409.625, 747}";
}
);
layerId = "FC25F90A-4039-49BA-9FA9-48428CE1BED8";
paths = (
{
closed = 1;
nodes = (
"158.45 0 LINE",
"201.775 333.15 LINE",
"507.125 333.15 LINE",
"464.125 0 LINE",
"573.475 0 LINE",
"669.75 747 LINE",
"560.075 747 LINE",
"517.425 413.625 LINE",
"211.75 413.625 LINE",
"255.4 747 LINE",
"146.05 747 LINE",
"50.1 0 LINE"
);
}
);
width = 695.15;
}
);
leftKerningGroup = H;
note = H;
rightKerningGroup = H;
unicode = 0048;
},
{
color = 7;
glyphname = Hbar;
lastChange = "2019-02-18 20:31:10 +0000";
layers = (
{
layerId = "9808B12E-936F-4588-BC0B-2F1DE3B33DAD";
paths = (
{
closed = 1;
nodes = (
"214 0 LINE",
"245 215 LINE",
"480 215 LINE",
"449 0 LINE",
"624 0 LINE",
"688 448 LINE",
"788 448 LINE",
"800 570 LINE",
"706 570 LINE",
"731 747 LINE",
"556 747 LINE",
"531 570 LINE",
"295 570 LINE",
"321 747 LINE",
"148 747 LINE",
"123 570 LINE",
"12 570 LINE",
"0 448 LINE",
"105 448 LINE",
"41 0 LINE"
);
},
{
closed = 1;
nodes = (
"278 448 LINE",
"513 448 LINE",
"498 338 LINE",
"262 338 LINE"
);
}
);
userData = {
assembly = "MPPEM[ ]\011/* MeasurePixelPerEm */
PUSHB[ ]\011/* 1 value pushed */
37 
LT[ ]\011/* LessThan */
IF[ ]\011/* If */
NPUSHB[ ]\011/* 35 values pushed */
0 11 0 2 1 11 2 97 8 1 6 6 17 75 10 4 2 0 0 5 89 9 7 2 5 5 20 75 3 1 1 1 18 1 76 
ELSE[ ]\011/* Else */
NPUSHB[ ]\011/* 33 values pushed */
9 7 2 5 10 4 2 0 11 5 0 98 0 11 0 2 1 11 2 97 8 1 6 6 17 75 3 1 1 1 18 1 76 
EIF[ ]\011/* EndIf */
NPUSHB[ ]\011/* 18 values pushed */
23 22 21 20 19 18 17 17 17 17 17 17 17 17 16 12 7 29 
CALL[ ]\011/* CallFunction */";
};
width = 738;
},
{
layerId = "A8DD961D-2AAA-4421-B000-699D061D5CAD";
paths = (
{
closed = 1;
nodes = (
"132 0 LINE",
"170 298 LINE",
"524 298 LINE",
"487 0 LINE",
"561 0 LINE",
"624 506 LINE",
"735 506 LINE",
"740 562 LINE",
"631 562 LINE",
"654 747 LINE",
"581 747 LINE",
"558 562 LINE",
"203 562 LINE",
"227 747 LINE",
"153 747 LINE",
"130 562 LINE",
"33 562 LINE",
"27 506 LINE",
"123 506 LINE",
"59 0 LINE"
);
},
{
closed = 1;
nodes = (
"196 506 LINE",
"551 506 LINE",
"531 354 LINE",
"177 354 LINE"
);
}
);
userData = {
assembly = "NPUSHB[ ]\011/* 53 values pushed */
0 11 0 2 1 11 2 97 8 1 6 6 17 75 10 4 2 0 0 5 89 9 7 2 5 5 20 75 3 1 1 1 18 1 76 23 22 21 20 19 18 17 17 17 17 17 17 17 17 16 12 7 29 
CALL[ ]\011/* CallFunction */";
};
width = 688;
},
{
layerId = "FC25F90A-4039-49BA-9FA9-48428CE1BED8";
paths = (
{
closed = 1;
nodes = (
"160.4 0 LINE",
"196.425 276.975 LINE",
"502.1 276.975 LINE",
"465.75 0 LINE",
"575.425 0 LINE",
"637.075 480.825 LINE",
"741.775 480.825 LINE",
"749.75 562.3 LINE",
"648.05 562.3 LINE",
"671.7 747 LINE",
"562.025 747 LINE",
"538.7 562.3 LINE",
"233.025 562.3 LINE",
"257.35 747 LINE",
"148 747 LINE",
"124.675 562.3 LINE",
"28.75 562.3 LINE",
"21.1 480.825 LINE",
"113.375 480.825 LINE",
"51.725 0 LINE"
);
},
{
closed = 1;
nodes = (
"222.725 480.825 LINE",
"528.075 480.825 LINE",
"512.4 358.1 LINE",
"206.725 358.1 LINE"
);
}
);
width = 696.125;
}
);
leftKerningGroup = H;
note = Hbar;
rightKerningGroup = H;
unicode = 0126;
},
{
color = 7;
glyphname = I;
lastChange = "2019-02-18 20:31:10 +0000";
layers = (
{
anchors = (
{
name = bottom;
position = "{136, 0}";
},
{
name = ogonek;
position = "{276, 10}";
},
{
name = top;
position = "{239, 747}";
},
{
name = topleft;
position = "{82, 747}";
}
);
layerId = "9808B12E-936F-4588-BC0B-2F1DE3B33DAD";
paths = (
{
closed = 1;
nodes = (
"221 0 LINE",
"328 747 LINE",
"155 747 LINE",
"48 0 LINE"
);
}
);
userData = {
assembly = "NPUSHB[ ]\011/* 22 values pushed */
2 1 1 1 17 75 0 0 0 18 0 76 0 0 0 3 0 3 17 3 7 21 
CALL[ ]\011/* CallFunction */";
};
width = 345;
},
{
anchors = (
{
name = bottom;
position = "{103, 0}";
},
{
name = ogonek;
position = "{216, 10}";
},
{
name = top;
position = "{204, 747}";
},
{
name = topleft;
position = "{82, 747}";
}
);
layerId = "A8DD961D-2AAA-4421-B000-699D061D5CAD";
paths = (
{
closed = 1;
nodes = (
"145 0 LINE",
"239 747 LINE",
"165 747 LINE",
"71 0 LINE"
);
}
);
userData = {
assembly = "NPUSHB[ ]\011/* 22 values pushed */
2 1 1 1 17 75 0 0 0 18 0 76 0 0 0 3 0 3 17 3 7 21 
CALL[ ]\011/* CallFunction */";
};
width = 279;
},
{
anchors = (
{
name = bottom;
position = "{109.875, 0}";
},
{
name = ogonek;
position = "{229.1, 10}";
},
{
name = top;
position = "{211.85, 747}";
},
{
name = topleft;
position = "{82, 747.975}";
}
);
layerId = "FC25F90A-4039-49BA-9FA9-48428CE1BED8";
paths = (
{
closed = 1;
nodes = (
"169.075 0 LINE",
"265.35 747 LINE",
"156 747 LINE",
"59.725 0 LINE"
);
}
);
width = 293.075;
}
);
leftKerningGroup = H;
note = I;
rightKerningGroup = H;
unicode = 0049;
},
{
color = 7;
glyphname = J;
lastChange = "2019-03-28 01:57:46 +0000";
layers = (
{
anchors = (
{
name = bottom;
position = "{133, 0}";
},
{
name = top;
position = "{252, 747}";
}
);
layerId = "9808B12E-936F-4588-BC0B-2F1DE3B33DAD";
paths = (
{
closed = 1;
nodes = (
"69 -174 OFFCURVE",
"181 -116 OFFCURVE",
"220 37 CURVE SMOOTH",
"223 50 OFFCURVE",
"229 80 OFFCURVE",
"236 127 CURVE SMOOTH",
"326 747 LINE",
"152 747 LINE",
"132 611 OFFCURVE",
"88 223 OFFCURVE",
"50 42 CURVE SMOOTH",
"40 -15 OFFCURVE",
"-29 -102 OFFCURVE",
"-88 -117 CURVE",
"-66 -174 LINE"
);
}
);
userData = {
assembly = "NPUSHB[ ]\011/* 22 values pushed */
0 0 1 0 115 2 1 1 1 17 1 76 0 0 0 19 0 19 24 3 7 21 
CALL[ ]\011/* CallFunction */";
};
width = 340;
},
{
anchors = (
{
name = bottom;
position = "{106, 0}";
},
{
name = top;
position = "{215, 747}";
}
);
layerId = "A8DD961D-2AAA-4421-B000-699D061D5CAD";
paths = (
{
closed = 1;
nodes = (
"50 -136 OFFCURVE",
"117 -78 OFFCURVE",
"151 37 CURVE SMOOTH",
"158 60 OFFCURVE",
"171 143 OFFCURVE",
"190 286 CURVE SMOOTH",
"245 747 LINE",
"171 747 LINE",
"118 262 OFFCURVE",
"105 157 OFFCURVE",
"80 42 CURVE SMOOTH",
"64 -36 OFFCURVE",
"2 -101 OFFCURVE",
"-83 -125 CURVE",
"-69 -158 LINE"
);
}
);
userData = {
assembly = "NPUSHB[ ]\011/* 20 values pushed */
8 1 0 71 1 1 0 0 17 0 76 0 0 0 16 0 16 2 7 20 
CALL[ ]\011/* CallFunction */";
};
width = 285;
},
{
anchors = (
{
name = bottom;
position = "{109.875, 0}";
},
{
name = top;
position = "{223.875, 747.975}";
}
);
layerId = "FC25F90A-4039-49BA-9FA9-48428CE1BED8";
paths = (
{
closed = 1;
nodes = (
"52.275 -141.5 OFFCURVE",
"130.425 -87.15 OFFCURVE",
"168.075 37 CURVE SMOOTH",
"175.075 59.35 OFFCURVE",
"189.45 137.775 OFFCURVE",
"206.45 273.95 CURVE SMOOTH",
"264.025 747 LINE",
"155.35 747 LINE",
"111.475 409.225 OFFCURVE",
"104.825 237.4 OFFCURVE",
"61.725 42 CURVE SMOOTH",
"50.375 -13.325 OFFCURVE",
"-28.325 -95.3 OFFCURVE",
"-83.65 -111.975 CURVE",
"-66 -157.25 LINE"
);
}
);
width = 293.425;
}
);
leftKerningGroup = J;
note = J;
rightKerningGroup = J;
unicode = 004A;
},
{
color = 7;
glyphname = K;
lastChange = "2019-03-25 14:47:52 +0000";
layers = (
{
anchors = (
{
name = bottom;
position = "{324, 0}";
},
{
name = top;
position = "{383, 747}";
}
);
background = {
components = (
{
name = H;
}
);
};
layerId = "9808B12E-936F-4588-BC0B-2F1DE3B33DAD";
paths = (
{
closed = 1;
nodes = (
"197 0 LINE",
"227 208 LINE",
"307 292 LINE",
"369 149 LINE SMOOTH",
"408 59 OFFCURVE",
"431 9 OFFCURVE",
"437 0 CURVE",
"640 0 LINE",
"614 41 OFFCURVE",
"583 96 OFFCURVE",
"548 167 CURVE SMOOTH",
"472 319 OFFCURVE",
"440 383 OFFCURVE",
"421 418 CURVE",
"717 747 LINE",
"519 747 LINE",
"256 420 LINE",
"304 747 LINE",
"136 747 LINE",
"29 0 LINE"
);
}
);
userData = {
assembly = "NPUSHB[ ]\011/* 28 values pushed */
17 14 8 3 0 2 1 74 3 1 2 2 17 75 1 1 0 0 18 0 76 18 17 21 20 4 7 24 
CALL[ ]\011/* CallFunction */";
};
width = 647;
},
{
anchors = (
{
name = bottom;
position = "{297, 0}";
},
{
name = top;
position = "{366, 747}";
}
);
background = {
components = (
{
name = H;
}
);
};
layerId = "A8DD961D-2AAA-4421-B000-699D061D5CAD";
paths = (
{
closed = 1;
nodes = (
"129 0 LINE",
"161 246 LINE",
"275 369 LINE",
"364 207 LINE SMOOTH",
"406 131 OFFCURVE",
"473 8 OFFCURVE",
"479 0 CURVE",
"568 0 LINE",
"544 33 OFFCURVE",
"524 67 OFFCURVE",
"441 214 CURVE SMOOTH",
"383 316 OFFCURVE",
"347 377 OFFCURVE",
"323 417 CURVE",
"626 747 LINE",
"540 747 LINE",
"174 346 LINE",
"224 747 LINE",
"153 747 LINE",
"59 0 LINE"
);
}
);
userData = {
assembly = "NPUSHB[ ]\011/* 29 values pushed */
24 21 15 1 4 0 2 1 74 3 1 2 2 17 75 1 1 0 0 18 0 76 18 17 25 23 4 7 24 
CALL[ ]\011/* CallFunction */";
};
width = 608;
},
{
anchors = (
{
name = bottom;
position = "{308, 0}";
},
{
name = top;
position = "{369, 748}";
}
);
background = {
components = (
{
name = H;
}
);
};
layerId = "FC25F90A-4039-49BA-9FA9-48428CE1BED8";
paths = (
{
closed = 1;
nodes = (
"154 0 LINE",
"185 234 LINE",
"282 338 LINE",
"373 163 LINE",
"395 118 OFFCURVE",
"451 11 OFFCURVE",
"459 0 CURVE",
"590 0 LINE",
"561 44 OFFCURVE",
"513 127 OFFCURVE",
"475 196 CURVE SMOOTH",
"394 342 OFFCURVE",
"391 354 OFFCURVE",
"355 415 CURVE",
"651 747 LINE",
"524 747 LINE",
"203 378 LINE",
"251 747 LINE",
"146 747 LINE",
"50 0 LINE"
);
}
);
width = 614;
}
);
leftKerningGroup = H;
leftMetricsKey = H;
note = K;
rightKerningGroup = K;
unicode = 004B;
},
{
color = 7;
glyphname = L;
lastChange = "2019-03-27 17:02:36 +0000";
layers = (
{
anchors = (
{
name = bottom;
position = "{254, 0}";
},
{
name = center;
position = "{274, 374}";
},
{
name = top;
position = "{235, 747}";
},
{
name = topright;
position = "{563, 747}";
}
);
layerId = "9808B12E-936F-4588-BC0B-2F1DE3B33DAD";
paths = (
{
closed = 1;
nodes = (
"449 0 LINE",
"470 141 LINE",
"227 135 LINE",
"315 747 LINE",
"142 747 LINE",
"35 0 LINE"
);
}
);
userData = {
assembly = "NPUSHB[ ]\011/* 28 values pushed */
3 1 2 2 17 75 0 0 0 1 90 0 1 1 18 1 76 0 0 0 5 0 5 17 17 4 7 22 
CALL[ ]\011/* CallFunction */";
};
width = 518;
},
{
anchors = (
{
name = bottom;
position = "{242, 0}";
},
{
name = center;
position = "{252, 374}";
},
{
name = top;
position = "{193, 747}";
},
{
name = topright;
position = "{520, 747}";
}
);
layerId = "A8DD961D-2AAA-4421-B000-699D061D5CAD";
paths = (
{
closed = 1;
nodes = (
"422 0 LINE",
"430 63 LINE",
"140 62 LINE",
"227 747 LINE",
"153 747 LINE",
"59 0 LINE"
);
}
);
userData = {
assembly = "NPUSHB[ ]\011/* 28 values pushed */
3 1 2 2 17 75 0 0 0 1 89 0 1 1 18 1 76 0 0 0 5 0 5 17 17 4 7 22 
CALL[ ]\011/* CallFunction */";
};
width = 478;
},
{
anchors = (
{
name = bottom;
position = "{256, 0}";
},
{
name = center;
position = "{255.575, 374.325}";
},
{
name = top;
position = "{204, 748}";
},
{
name = topright;
position = "{527.15, 747.975}";
}
);
layerId = "FC25F90A-4039-49BA-9FA9-48428CE1BED8";
paths = (
{
closed = 1;
nodes = (
"431.575 0 LINE",
"444.2 92.425 LINE",
"171.725 89.775 LINE",
"256.375 747 LINE",
"147.025 747 LINE",
"50.75 0 LINE"
);
}
);
width = 485.15;
}
);
leftKerningGroup = H;
note = L;
rightKerningGroup = L;
unicode = 004C;
},
{
glyphname = Lcaron;
lastChange = "2019-03-25 15:15:28 +0000";
layers = (
{
components = (
{
alignment = -1;
name = L;
}
);
layerId = "9808B12E-936F-4588-BC0B-2F1DE3B33DAD";
paths = (
{
closed = 1;
nodes = (
"532 479 OFFCURVE",
"559 573 OFFCURVE",
"559 654 CURVE SMOOTH",
"559 695 OFFCURVE",
"552 734 OFFCURVE",
"540 746 CURVE",
"428 723 LINE",
"419 702 LINE",
"427 691 OFFCURVE",
"431 658 OFFCURVE",
"431 604 CURVE SMOOTH",
"431 549 OFFCURVE",
"423 489 OFFCURVE",
"411 457 CURVE",
"414 445 LINE",
"487 431 LINE"
);
}
);
width = 527;
},
{
components = (
{
alignment = -1;
name = L;
}
);
layerId = "A8DD961D-2AAA-4421-B000-699D061D5CAD";
paths = (
{
closed = 1;
nodes = (
"462 525 OFFCURVE",
"487 608 OFFCURVE",
"490 677 CURVE SMOOTH",
"490 717 OFFCURVE",
"490 759 OFFCURVE",
"476 789 CURVE",
"411 772 LINE",
"408 760 LINE",
"416 747 OFFCURVE",
"422 715 OFFCURVE",
"422 676 CURVE SMOOTH",
"422 623 OFFCURVE",
"410 565 OFFCURVE",
"387 500 CURVE",
"389 490 LINE",
"427 476 LINE"
);
}
);
width = 478;
},
{
components = (
{
alignment = -1;
name = L;
}
);
layerId = "FC25F90A-4039-49BA-9FA9-48428CE1BED8";
paths = (
{
closed = 1;
nodes = (
"478.4 541.35 OFFCURVE",
"502.375 628.975 OFFCURVE",
"502.375 696.575 CURVE SMOOTH",
"502.375 748.275 OFFCURVE",
"498.4 782.275 OFFCURVE",
"487.4 805.325 CURVE",
"396.5 783 LINE",
"391.525 766.35 LINE",
"400.525 752 OFFCURVE",
"406.2 712.025 OFFCURVE",
"406.2 672.375 CURVE SMOOTH",
"406.2 625.425 OFFCURVE",
"398.55 572.825 OFFCURVE",
"386.2 521.35 CURVE",
"389.2 509.025 LINE",
"442.1 490.325 LINE"
);
}
);
width = 485.8;
}
);
leftKerningGroup = H;
leftMetricsKey = L;
note = Lcaron;
rightKerningGroup = L;
unicode = 013D;
},
{
color = 7;
glyphname = Lslash;
lastChange = "2019-03-27 20:00:08 +0000";
layers = (
{
components = (
{
name = L;
}
);
layerId = "9808B12E-936F-4588-BC0B-2F1DE3B33DAD";
paths = (
{
closed = 1;
nodes = (
"255 382 LINE",
"493 463 LINE",
"466 558 LINE",
"270 489 LINE",
"104 432 LINE",
"-11 393 LINE",
"17 303 LINE",
"89 326 LINE"
);
}
);
userData = {
assembly = "NPUSHB[ ]\011/* 33 values pushed */
12 11 10 6 5 4 6 0 2 1 74 0 2 2 17 75 0 0 0 1 90 0 1 1 18 1 76 21 17 16 3 7 23 
CALL[ ]\011/* CallFunction */";
};
width = 527;
},
{
components = (
{
name = L;
}
);
layerId = "A8DD961D-2AAA-4421-B000-699D061D5CAD";
paths = (
{
closed = 1;
nodes = (
"176 406 LINE",
"414 509 LINE",
"401 557 LINE",
"183 461 LINE",
"119 434 LINE",
"2 383 LINE",
"16 339 LINE",
"112 380 LINE"
);
}
);
userData = {
assembly = "NPUSHB[ ]\011/* 37 values pushed */
10 9 4 3 4 2 1 1 74 0 1 1 17 75 3 1 2 2 0 89 0 0 0 18 0 76 0 0 0 13 0 13 21 17 4 7 22 
CALL[ ]\011/* CallFunction */";
};
width = 478;
},
{
components = (
{
name = L;
}
);
layerId = "FC25F90A-4039-49BA-9FA9-48428CE1BED8";
paths = (
{
closed = 1;
nodes = (
"203 402 LINE",
"420 492 LINE",
"401 560 LINE",
"213 479 LINE",
"113 434 LINE",
"-12 381 LINE",
"7 318 LINE",
"103 358 LINE"
);
}
);
width = 485.8;
}
);
leftKerningGroup = H;
note = Lslash;
rightKerningGroup = L;
unicode = 0141;
},
{
color = 7;
glyphname = M;
lastChange = "2019-03-27 17:25:03 +0000";
layers = (
{
anchors = (
{
name = bottom;
position = "{449, 0}";
},
{
name = top;
position = "{548, 747}";
}
);
layerId = "9808B12E-936F-4588-BC0B-2F1DE3B33DAD";
paths = (
{
closed = 1;
nodes = (
"549 -1 LINE",
"763 556 LINE",
"799 670 LINE",
"786 556 LINE",
"742 0 LINE",
"915 0 LINE",
"926 747 LINE",
"674 747 LINE",
"500 233 LINE",
"477 123 LINE",
"474 233 LINE",
"441 747 LINE",
"189 747 LINE",
"-15 0 LINE",
"155 0 LINE",
"276 556 LINE",
"300 670 LINE",
"301 556 LINE",
"359 -9 LINE"
);
}
);
userData = {
assembly = "NPUSHB[ ]\011/* 9 values pushed */
14 13 9 2 4 1 0 1 74 
MPPEM[ ]\011/* MeasurePixelPerEm */
PUSHB[ ]\011/* 1 value pushed */
45 
LT[ ]\011/* LessThan */
IF[ ]\011/* If */
NPUSHB[ ]\011/* 15 values pushed */
5 4 2 0 0 17 75 3 2 2 1 1 18 1 76 
ELSE[ ]\011/* Else */
NPUSHB[ ]\011/* 19 values pushed */
5 4 2 0 0 17 75 3 1 1 1 18 75 0 2 2 18 2 76 
EIF[ ]\011/* EndIf */
NPUSHB[ ]\011/* 13 values pushed */
0 0 0 18 0 18 20 20 17 20 6 7 24 
CALL[ ]\011/* CallFunction */";
};
width = 971;
},
{
anchors = (
{
name = bottom;
position = "{401, 0}";
},
{
name = top;
position = "{500, 747}";
}
);
layerId = "A8DD961D-2AAA-4421-B000-699D061D5CAD";
paths = (
{
closed = 1;
nodes = (
"426 -2 LINE",
"653 522 LINE",
"730 699 LINE",
"719 499 LINE",
"695 0 LINE",
"770 0 LINE",
"791 747 LINE",
"685 747 LINE",
"460 225 LINE",
"415 110 LINE",
"400 226 LINE",
"315 747 LINE",
"221 747 LINE",
"35 0 LINE",
"110 0 LINE",
"229 506 LINE",
"266 699 LINE",
"291 510 LINE",
"374 -9 LINE"
);
}
);
userData = {
assembly = "NPUSHB[ ]\011/* 38 values pushed */
14 9 2 3 1 0 1 74 12 1 1 71 4 3 2 0 0 17 75 2 1 1 1 18 1 76 0 0 0 18 0 18 25 17 20 5 7 23 
CALL[ ]\011/* CallFunction */";
};
width = 875;
},
{
anchors = (
{
name = bottom;
position = "{408.8, 0}";
},
{
name = top;
position = "{507.8, 747.975}";
}
);
layerId = "FC25F90A-4039-49BA-9FA9-48428CE1BED8";
paths = (
{
closed = 1;
nodes = (
"451.85 -1 LINE",
"665.175 526.85 LINE",
"726.3 682.725 LINE",
"714.65 507.425 LINE",
"686.725 0 LINE",
"797.075 0 LINE",
"813.775 747 LINE",
"655.575 747 LINE",
"452.425 229.65 LINE",
"428.425 143.1 LINE",
"422.075 229.65 LINE",
"350.55 747 LINE",
"205.75 747 LINE",
"16.825 0 LINE",
"126.525 0 LINE",
"243.5 512.45 LINE",
"273.2 682.725 LINE",
"288.275 516.8 LINE",
"363.35 -9 LINE"
);
}
);
width = 890.6;
}
);
leftKerningGroup = M;
note = M;
rightKerningGroup = M;
unicode = 004D;
},
{
color = 7;
glyphname = N;
lastChange = "2019-02-18 20:31:10 +0000";
layers = (
{
anchors = (
{
name = bottom;
position = "{329, 0}";
},
{
name = top;
position = "{428, 747}";
}
);
layerId = "9808B12E-936F-4588-BC0B-2F1DE3B33DAD";
paths = (
{
closed = 1;
nodes = (
"200 0 LINE",
"256 407 LINE",
"255 541 LINE",
"303 407 LINE",
"473 0 LINE",
"618 0 LINE",
"725 747 LINE",
"558 747 LINE",
"511 360 LINE",
"504 233 LINE",
"466 360 LINE",
"292 747 LINE",
"142 747 LINE",
"35 0 LINE"
);
}
);
userData = {
assembly = "NPUSHB[ ]\011/* 35 values pushed */
10 9 3 2 4 1 0 1 74 4 3 2 0 0 17 75 2 1 1 1 18 1 76 0 0 0 13 0 13 20 17 20 5 7 23 
CALL[ ]\011/* CallFunction */";
};
width = 732;
},
{
anchors = (
{
name = bottom;
position = "{306, 0}";
},
{
name = top;
position = "{405, 747}";
}
);
layerId = "A8DD961D-2AAA-4421-B000-699D061D5CAD";
paths = (
{
closed = 1;
nodes = (
"128 0 LINE",
"193 524 LINE",
"208 665 LINE",
"243 548 LINE",
"484 0 LINE",
"557 0 LINE",
"651 747 LINE",
"581 747 LINE",
"516 212 LINE",
"505 96 LINE",
"470 197 LINE",
"230 747 LINE",
"153 747 LINE",
"59 0 LINE"
);
}
);
userData = {
assembly = "NPUSHB[ ]\011/* 33 values pushed */
9 2 2 1 0 1 74 4 3 2 0 0 17 75 2 1 1 1 18 1 76 0 0 0 13 0 13 20 17 20 5 7 23 
CALL[ ]\011/* CallFunction */";
};
width = 685;
},
{
anchors = (
{
name = bottom;
position = "{308.9, 0}";
},
{
name = top;
position = "{407.9, 747.975}";
}
);
layerId = "FC25F90A-4039-49BA-9FA9-48428CE1BED8";
paths = (
{
closed = 1;
nodes = (
"153.1 0 LINE",
"214.125 479.025 LINE",
"224.85 622.4 LINE",
"254.425 505.825 LINE",
"467.975 0 LINE",
"570.425 0 LINE",
"666.375 747 LINE",
"562.35 747 LINE",
"504.3 267.2 LINE",
"495.95 144.55 LINE",
"463.65 250.125 LINE",
"256.15 747 LINE",
"147.025 747 LINE",
"50.75 0 LINE"
);
}
);
width = 691.8;
}
);
leftKerningGroup = H;
note = N;
rightKerningGroup = H;
unicode = 004E;
},
{
color = 7;
glyphname = Eng;
lastChange = "2019-03-27 17:57:55 +0000";
layers = (
{
layerId = "9808B12E-936F-4588-BC0B-2F1DE3B33DAD";
paths = (
{
closed = 1;
nodes = (
"477 -193 OFFCURVE",
"603 -118 OFFCURVE",
"624 0 CURVE",
"731 747 LINE",
"564 747 LINE",
"517 360 LINE",
"510 233 LINE",
"472 360 LINE",
"298 747 LINE",
"148 747 LINE",
"41 0 LINE",
"206 0 LINE",
"262 407 LINE",
"261 541 LINE",
"309 407 LINE",
"469 23 LINE",
"463 -59 OFFCURVE",
"379 -117 OFFCURVE",
"312 -140 CURVE",
"339 -202 LINE"
);
}
);
userData = {
assembly = "NPUSHB[ ]\011/* 39 values pushed */
20 19 13 12 10 5 0 1 1 74 6 5 2 0 71 3 2 2 1 1 17 75 0 0 0 18 0 76 0 0 0 21 0 21 17 30 4 7 22 
CALL[ ]\011/* CallFunction */";
};
width = 744;
},
{
layerId = "A8DD961D-2AAA-4421-B000-699D061D5CAD";
paths = (
{
closed = 1;
nodes = (
"455 -134 OFFCURVE",
"538 -80 OFFCURVE",
"555 0 CURVE SMOOTH",
"651 747 LINE",
"581 747 LINE",
"516 212 LINE",
"505 96 LINE",
"470 197 LINE",
"230 747 LINE",
"153 747 LINE",
"59 0 LINE",
"128 0 LINE",
"193 524 LINE",
"208 665 LINE",
"243 548 LINE",
"481 6 LINE",
"460 -51 OFFCURVE",
"402 -100 OFFCURVE",
"329 -121 CURVE",
"342 -154 LINE"
);
}
);
userData = {
assembly = "NPUSHB[ ]\011/* 36 values pushed */
17 10 8 3 0 1 1 74 5 1 0 71 3 2 2 1 1 17 75 0 0 0 18 0 76 0 0 0 19 0 19 17 28 4 7 22 
CALL[ ]\011/* CallFunction */";
};
width = 682;
},
{
layerId = "FC25F90A-4039-49BA-9FA9-48428CE1BED8";
paths = (
{
closed = 1;
nodes = (
"454.45 -145.45 OFFCURVE",
"533.975 -92.625 OFFCURVE",
"569.725 0 CURVE",
"667.35 747 LINE",
"563.325 747 LINE",
"505.275 267.2 LINE",
"496.6 144.55 LINE",
"464.625 250.125 LINE",
"256.8 747 LINE",
"148 747 LINE",
"51.725 0 LINE",
"154.075 0 LINE",
"215.1 479.025 LINE",
"225.825 622.4 LINE",
"255.4 505.825 LINE",
"463.3 13.3 LINE",
"441.9 -44.3 OFFCURVE",
"392.875 -91.975 OFFCURVE",
"322.725 -115.55 CURVE",
"341.675 -161.8 LINE"
);
}
);
width = 692;
}
);
leftKerningGroup = Eng;
note = Eng;
rightKerningGroup = Eng;
rightMetricsKey = H;
unicode = 014A;
},
{
color = 7;
glyphname = O;
lastChange = "2019-03-27 17:04:13 +0000";
layers = (
{
anchors = (
{
name = bottom;
position = "{298, 0}";
},
{
name = center;
position = "{348, 374}";
},
{
name = ogonek;
position = "{443, 10}";
},
{
name = top;
position = "{406, 747}";
},
{
name = topleft;
position = "{76, 747}";
},
{
name = topright;
position = "{717, 747}";
}
);
layerId = "9808B12E-936F-4588-BC0B-2F1DE3B33DAD";
paths = (
{
closed = 1;
nodes = (
"533 -8 OFFCURVE",
"669 208 OFFCURVE",
"669 462 CURVE SMOOTH",
"669 629 OFFCURVE",
"575 755 OFFCURVE",
"404 755 CURVE SMOOTH",
"174 755 OFFCURVE",
"35 537 OFFCURVE",
"35 282 CURVE SMOOTH",
"35 114 OFFCURVE",
"133 -8 OFFCURVE",
"305 -8 CURVE SMOOTH"
);
},
{
closed = 1;
nodes = (
"263 122 OFFCURVE",
"213 174 OFFCURVE",
"213 291 CURVE SMOOTH",
"213 429 OFFCURVE",
"273 625 OFFCURVE",
"385 625 CURVE SMOOTH",
"441 625 OFFCURVE",
"491 587 OFFCURVE",
"491 457 CURVE SMOOTH",
"491 314 OFFCURVE",
"433 122 OFFCURVE",
"318 122 CURVE SMOOTH"
);
}
);
userData = {
assembly = "NPUSHB[ ]\011/* 28 values pushed */
0 2 2 0 91 0 0 0 25 75 0 3 3 1 91 0 1 1 26 1 76 38 38 38 34 4 7 24 
CALL[ ]\011/* CallFunction */";
};
width = 680;
},
{
anchors = (
{
name = bottom;
position = "{300, 0}";
},
{
name = center;
position = "{350, 374}";
},
{
name = ogonek;
position = "{385, 10}";
},
{
name = top;
position = "{405, 747}";
},
{
name = topleft;
position = "{82, 747}";
},
{
name = topright;
position = "{715, 747}";
}
);
layerId = "A8DD961D-2AAA-4421-B000-699D061D5CAD";
paths = (
{
closed = 1;
nodes = (
"508 -8 OFFCURVE",
"638 199 OFFCURVE",
"638 436 CURVE SMOOTH",
"638 606 OFFCURVE",
"563 755 OFFCURVE",
"400 755 CURVE SMOOTH",
"192 755 OFFCURVE",
"58 546 OFFCURVE",
"58 312 CURVE SMOOTH",
"58 136 OFFCURVE",
"138 -8 OFFCURVE",
"298 -8 CURVE SMOOTH"
);
},
{
closed = 1;
nodes = (
"197 48 OFFCURVE",
"134 141 OFFCURVE",
"134 322 CURVE SMOOTH",
"134 504 OFFCURVE",
"230 697 OFFCURVE",
"388 697 CURVE SMOOTH",
"504 697 OFFCURVE",
"561 603 OFFCURVE",
"561 422 CURVE SMOOTH",
"561 238 OFFCURVE",
"470 48 OFFCURVE",
"310 48 CURVE SMOOTH"
);
}
);
userData = {
assembly = "NPUSHB[ ]\011/* 28 values pushed */
0 2 2 0 91 0 0 0 25 75 0 3 3 1 91 0 1 1 26 1 76 37 37 38 34 4 7 24 
CALL[ ]\011/* CallFunction */";
};
width = 668;
},
{
anchors = (
{
name = bottom;
position = "{305, 0}";
},
{
name = center;
position = "{355, 374}";
},
{
name = ogonek;
position = "{411, 10}";
},
{
name = top;
position = "{407, 748}";
},
{
name = topleft;
position = "{86, 748}";
},
{
name = topright;
position = "{720, 748}";
}
);
layerId = "FC25F90A-4039-49BA-9FA9-48428CE1BED8";
paths = (
{
closed = 1;
nodes = (
"514 -8 OFFCURVE",
"646 200 OFFCURVE",
"646 442 CURVE SMOOTH",
"646 611 OFFCURVE",
"567 755 OFFCURVE",
"402 755 CURVE SMOOTH",
"188 755 OFFCURVE",
"53 545 OFFCURVE",
"53 305 CURVE SMOOTH",
"53 133 OFFCURVE",
"135 -8 OFFCURVE",
"298 -8 CURVE SMOOTH"
);
},
{
closed = 1;
nodes = (
"215 75 OFFCURVE",
"169 148 OFFCURVE",
"166 313 CURVE SMOOTH",
"164 479 OFFCURVE",
"245 670 OFFCURVE",
"386 670 CURVE SMOOTH",
"489 670 OFFCURVE",
"531 591 OFFCURVE",
"533 434 CURVE SMOOTH",
"535 265 OFFCURVE",
"456 75 OFFCURVE",
"313 75 CURVE SMOOTH"
);
}
);
width = 674;
}
);
leftKerningGroup = O;
note = O;
rightKerningGroup = O;
unicode = 004F;
},
{
color = 7;
glyphname = Ohorn;
lastChange = "2019-02-18 20:31:10 +0000";
layers = (
{
anchors = (
{
name = top;
position = "{369, 747}";
}
);
components = (
{
name = O;
}
);
layerId = "9808B12E-936F-4588-BC0B-2F1DE3B33DAD";
paths = (
{
closed = 1;
nodes = (
"612 631 OFFCURVE",
"739 683 OFFCURVE",
"764 843 CURVE SMOOTH",
"765 850 OFFCURVE",
"766 857 OFFCURVE",
"767 865 CURVE",
"651 865 LINE",
"651 861 OFFCURVE",
"649 845 OFFCURVE",
"646 835 CURVE SMOOTH",
"633 792 OFFCURVE",
"632 726 OFFCURVE",
"490 726 CURVE",
"465 631 LINE"
);
}
);
width = 681;
},
{
anchors = (
{
name = top;
position = "{379, 747}";
}
);
components = (
{
name = O;
}
);
layerId = "A8DD961D-2AAA-4421-B000-699D061D5CAD";
paths = (
{
closed = 1;
nodes = (
"641 671 OFFCURVE",
"710 748 OFFCURVE",
"710 854 CURVE SMOOTH",
"710 861 OFFCURVE",
"709 868 OFFCURVE",
"708 876 CURVE",
"638 876 LINE",
"639 872 OFFCURVE",
"642 860 OFFCURVE",
"642 849 CURVE SMOOTH",
"642 819 OFFCURVE",
"639 728 OFFCURVE",
"497 728 CURVE",
"489 671 LINE"
);
}
);
width = 673;
},
{
anchors = (
{
name = top;
position = "{379, 747}";
}
);
components = (
{
alignment = -1;
name = O;
}
);
layerId = "FC25F90A-4039-49BA-9FA9-48428CE1BED8";
paths = (
{
closed = 1;
nodes = (
"612.5 660.2 OFFCURVE",
"708.375 727.95 OFFCURVE",
"708.375 851.4 CURVE SMOOTH",
"708.375 858.4 OFFCURVE",
"707.375 865.4 OFFCURVE",
"706.375 873.4 CURVE",
"621.175 873.4 LINE",
"622.175 869.4 OFFCURVE",
"620.175 863.4 OFFCURVE",
"620.175 856.4 CURVE SMOOTH",
"620.175 792 OFFCURVE",
"598.4 733.05 OFFCURVE",
"478.85 733.05 CURVE",
"468.85 660.2 LINE"
);
}
);
width = 674.3;
}
);
leftKerningGroup = O;
rightKerningGroup = O;
unicode = 01A0;
},
{
glyphname = Oslash;
lastChange = "2019-02-18 20:31:10 +0000";
layers = (
{
anchors = (
{
name = top;
position = "{399, 747}";
}
);
layerId = "9808B12E-936F-4588-BC0B-2F1DE3B33DAD";
paths = (
{
closed = 1;
nodes = (
"167 24 LINE",
"206 3 OFFCURVE",
"251 -7 OFFCURVE",
"302 -7 CURVE SMOOTH",
"449 -7 OFFCURVE",
"563 84 OFFCURVE",
"622 227 CURVE SMOOTH",
"651 298 OFFCURVE",
"666 377 OFFCURVE",
"666 463 CURVE SMOOTH",
"666 556 OFFCURVE",
"635 639 OFFCURVE",
"578 692 CURVE",
"635 792 LINE",
"591 815 LINE",
"538 722 LINE",
"499 745 OFFCURVE",
"454 756 OFFCURVE",
"401 756 CURVE SMOOTH",
"252 756 OFFCURVE",
"137 664 OFFCURVE",
"77 520 CURVE SMOOTH",
"47 448 OFFCURVE",
"32 369 OFFCURVE",
"32 283 CURVE SMOOTH",
"32 187 OFFCURVE",
"64 103 OFFCURVE",
"127 51 CURVE",
"69 -41 LINE",
"112 -64 LINE"
);
},
{
closed = 1;
nodes = (
"287 123 OFFCURVE",
"265 130 OFFCURVE",
"250 145 CURVE",
"479 548 LINE",
"485 525 OFFCURVE",
"488 495 OFFCURVE",
"488 458 CURVE SMOOTH",
"488 351 OFFCURVE",
"459 240 OFFCURVE",
"407 173 CURVE SMOOTH",
"380 140 OFFCURVE",
"350 123 OFFCURVE",
"315 123 CURVE SMOOTH"
);
},
{
closed = 1;
nodes = (
"214 218 OFFCURVE",
"210 251 OFFCURVE",
"210 292 CURVE SMOOTH",
"210 395 OFFCURVE",
"239 507 OFFCURVE",
"292 575 CURVE SMOOTH",
"318 609 OFFCURVE",
"348 626 OFFCURVE",
"382 626 CURVE SMOOTH",
"413 626 OFFCURVE",
"437 618 OFFCURVE",
"453 601 CURVE",
"222 193 LINE"
);
}
);
userData = {
assembly = "NPUSHB[ ]\011/* 69 values pushed */
23 20 2 2 1 39 38 30 29 4 3 2 11 8 2 0 3 3 74 22 21 2 1 72 10 9 2 0 71 4 1 2 2 1 91 0 1 1 25 75 5 1 3 3 0 91 0 0 0 26 0 76 33 33 24 24 33 41 33 40 24 32 24 31 42 37 6 7 22 
CALL[ ]\011/* CallFunction */";
};
width = 680;
},
{
anchors = (
{
name = top;
position = "{399, 747}";
}
);
layerId = "A8DD961D-2AAA-4421-B000-699D061D5CAD";
paths = (
{
closed = 1;
nodes = (
"139 56 LINE",
"179 15 OFFCURVE",
"232 -8 OFFCURVE",
"295 -8 CURVE SMOOTH",
"426 -8 OFFCURVE",
"534 76 OFFCURVE",
"592 212 CURVE SMOOTH",
"621 279 OFFCURVE",
"635 354 OFFCURVE",
"635 436 CURVE SMOOTH",
"635 535 OFFCURVE",
"611 621 OFFCURVE",
"563 678 CURVE",
"641 792 LINE",
"606 810 LINE",
"536 707 LINE",
"498 740 OFFCURVE",
"452 756 OFFCURVE",
"397 756 CURVE SMOOTH",
"269 756 OFFCURVE",
"160 674 OFFCURVE",
"100 539 CURVE SMOOTH",
"70 471 OFFCURVE",
"55 395 OFFCURVE",
"55 312 CURVE SMOOTH",
"55 223 OFFCURVE",
"74 143 OFFCURVE",
"114 87 CURVE",
"27 -41 LINE",
"61 -60 LINE"
);
},
{
closed = 1;
nodes = (
"254 49 OFFCURVE",
"212 69 OFFCURVE",
"182 110 CURVE",
"520 619 LINE",
"545 573 OFFCURVE",
"558 508 OFFCURVE",
"558 423 CURVE SMOOTH",
"558 287 OFFCURVE",
"513 166 OFFCURVE",
"437 99 CURVE SMOOTH",
"398 66 OFFCURVE",
"355 49 OFFCURVE",
"307 49 CURVE SMOOTH"
);
},
{
closed = 1;
nodes = (
"141 193 OFFCURVE",
"131 252 OFFCURVE",
"131 323 CURVE SMOOTH",
"131 456 OFFCURVE",
"178 578 OFFCURVE",
"255 646 CURVE SMOOTH",
"294 680 OFFCURVE",
"337 697 OFFCURVE",
"385 697 CURVE SMOOTH",
"431 697 OFFCURVE",
"468 682 OFFCURVE",
"496 653 CURVE",
"160 148 LINE"
);
}
);
userData = {
assembly = "NPUSHB[ ]\011/* 66 values pushed */
21 1 2 1 40 39 31 30 24 12 9 7 3 2 2 74 23 22 2 1 72 11 10 2 0 71 4 1 2 2 1 91 0 1 1 25 75 5 1 3 3 0 91 0 0 0 26 0 76 34 34 25 25 34 42 34 41 25 33 25 32 43 37 6 7 22 
CALL[ ]\011/* CallFunction */";
};
width = 673;
},
{
anchors = (
{
name = top;
position = "{399, 747}";
}
);
layerId = "FC25F90A-4039-49BA-9FA9-48428CE1BED8";
paths = (
{
closed = 1;
nodes = (
"148.575 42.775 LINE",
"188.25 9.025 OFFCURVE",
"236.6 -7.675 OFFCURVE",
"293.625 -7.675 CURVE SMOOTH",
"430.25 -7.675 OFFCURVE",
"540.225 77.3 OFFCURVE",
"598.55 214.6 CURVE SMOOTH",
"627.55 283.25 OFFCURVE",
"641.875 358.9 OFFCURVE",
"641.875 442.225 CURVE SMOOTH",
"641.875 538.9 OFFCURVE",
"617.25 623.925 OFFCURVE",
"567.95 680.6 CURVE",
"640.025 792 LINE",
"597.025 815 LINE",
"531.3 714.625 LINE",
"493.975 741.65 OFFCURVE",
"449.65 755 OFFCURVE",
"397.65 755 CURVE SMOOTH",
"265.4 755 OFFCURVE",
"154.425 670.7 OFFCURVE",
"94.425 534.075 CURVE SMOOTH",
"64.425 465.425 OFFCURVE",
"49.425 389.1 OFFCURVE",
"49.425 305.775 CURVE SMOOTH",
"49.425 216.15 OFFCURVE",
"71.375 135.5 OFFCURVE",
"114.275 79.15 CURVE",
"34.5 -41 LINE",
"77.825 -64 LINE"
);
},
{
closed = 1;
nodes = (
"264.55 75.425 OFFCURVE",
"230.825 90.8 OFFCURVE",
"208.125 121.9 CURVE",
"503.45 591.2 LINE",
"520.5 551.45 OFFCURVE",
"529.2 496.675 OFFCURVE",
"529.2 426.85 CURVE SMOOTH",
"529.2 303.425 OFFCURVE",
"489.825 188.75 OFFCURVE",
"423.75 124.425 CURVE SMOOTH",
"390.05 91.425 OFFCURVE",
"352.35 75.425 OFFCURVE",
"309.3 75.425 CURVE SMOOTH"
);
},
{
closed = 1;
nodes = (
"168.775 210.975 OFFCURVE",
"162.425 260.725 OFFCURVE",
"162.425 320.475 CURVE SMOOTH",
"162.425 438.875 OFFCURVE",
"202.15 554.575 OFFCURVE",
"268.55 620.225 CURVE SMOOTH",
"302.25 653.225 OFFCURVE",
"339.625 669.55 OFFCURVE",
"382 669.55 CURVE SMOOTH",
"420.375 669.55 OFFCURVE",
"451.075 658.2 OFFCURVE",
"473.775 636.175 CURVE",
"181.8 172.575 LINE"
);
}
);
width = 674.3;
}
);
leftKerningGroup = O;
note = Oslash;
rightKerningGroup = O;
unicode = 00D8;
},
{
color = 7;
glyphname = OE;
lastChange = "2019-03-23 03:30:54 +0000";
layers = (
{
background = {
components = (
{
name = O;
transform = "{1, 0, 0, 1, 3, 0}";
}
);
};
layerId = "9808B12E-936F-4588-BC0B-2F1DE3B33DAD";
paths = (
{
closed = 1;
nodes = (
"401 -8 OFFCURVE",
"471 30 OFFCURVE",
"534 97 CURVE",
"515 0 LINE",
"978 0 LINE",
"996 137 LINE",
"677 132 LINE",
"704 321 LINE",
"913 317 LINE",
"931 452 LINE",
"722 449 LINE",
"746 614 LINE",
"1030 613 LINE",
"1048 747 LINE",
"622 747 LINE",
"612 642 LINE",
"567 713 OFFCURVE",
"503 755 OFFCURVE",
"404 755 CURVE SMOOTH",
"174 755 OFFCURVE",
"35 537 OFFCURVE",
"35 282 CURVE SMOOTH",
"35 114 OFFCURVE",
"133 -8 OFFCURVE",
"305 -8 CURVE SMOOTH"
);
},
{
closed = 1;
nodes = (
"265 122 OFFCURVE",
"213 174 OFFCURVE",
"213 291 CURVE SMOOTH",
"213 429 OFFCURVE",
"273 625 OFFCURVE",
"385 625 CURVE SMOOTH",
"460 625 OFFCURVE",
"491 548 OFFCURVE",
"491 457 CURVE SMOOTH",
"491 314 OFFCURVE",
"433 122 OFFCURVE",
"318 122 CURVE SMOOTH"
);
}
);
userData = {
assembly = "MPPEM[ ]\011/* MeasurePixelPerEm */
PUSHB[ ]\011/* 1 value pushed */
21 
LT[ ]\011/* LessThan */
IF[ ]\011/* If */
NPUSHB[ ]\011/* 10 values pushed */
23 1 7 5 9 1 3 2 2 74 
ELSE[ ]\011/* Else */
MPPEM[ ]\011/* MeasurePixelPerEm */
PUSHB[ ]\011/* 1 value pushed */
31 
LT[ ]\011/* LessThan */
IF[ ]\011/* If */
NPUSHB[ ]\011/* 10 values pushed */
23 1 8 5 9 1 3 9 2 74 
ELSE[ ]\011/* Else */
NPUSHB[ ]\011/* 10 values pushed */
23 1 8 6 9 1 3 9 2 74 
EIF[ ]\011/* EndIf */
EIF[ ]\011/* EndIf */
MPPEM[ ]\011/* MeasurePixelPerEm */
PUSHB[ ]\011/* 1 value pushed */
21 
LT[ ]\011/* LessThan */
IF[ ]\011/* If */
NPUSHB[ ]\011/* 35 values pushed */
0 0 0 1 2 0 1 97 8 10 2 7 7 5 91 6 1 5 5 25 75 11 9 2 2 2 3 91 4 1 3 3 18 3 76 
ELSE[ ]\011/* Else */
MPPEM[ ]\011/* MeasurePixelPerEm */
PUSHB[ ]\011/* 1 value pushed */
31 
LT[ ]\011/* LessThan */
IF[ ]\011/* If */
NPUSHB[ ]\011/* 55 values pushed */
0 0 0 1 2 0 1 97 0 8 8 5 91 6 1 5 5 25 75 10 1 7 7 5 91 6 1 5 5 25 75 0 2 2 3 91 4 1 3 3 18 75 11 1 9 9 3 91 4 1 3 3 18 3 76 
ELSE[ ]\011/* Else */
NPUSHB[ ]\011/* 51 values pushed */
0 0 0 1 2 0 1 97 0 8 8 5 91 0 5 5 25 75 10 1 7 7 6 89 0 6 6 17 75 0 2 2 3 89 0 3 3 18 75 11 1 9 9 4 91 0 4 4 26 4 76 
EIF[ ]\011/* EndIf */
EIF[ ]\011/* EndIf */
NPUSHB[ ]\011/* 24 values pushed */
27 27 0 0 27 42 27 41 35 33 0 26 0 26 19 38 35 17 17 17 17 12 7 27 
CALL[ ]\011/* CallFunction */";
};
width = 1048;
},
{
background = {
anchors = (
{
name = bottom;
position = "{303, 0}";
},
{
name = center;
position = "{353, 374}";
},
{
name = ogonek;
position = "{388, 10}";
},
{
name = top;
position = "{408, 747}";
},
{
name = topleft;
position = "{85, 747}";
},
{
name = topright;
position = "{718, 747}";
}
);
paths = (
{
closed = 1;
nodes = (
"508 -8 OFFCURVE",
"638 199 OFFCURVE",
"638 436 CURVE SMOOTH",
"638 606 OFFCURVE",
"563 755 OFFCURVE",
"400 755 CURVE SMOOTH",
"192 755 OFFCURVE",
"58 546 OFFCURVE",
"58 312 CURVE SMOOTH",
"58 136 OFFCURVE",
"138 -8 OFFCURVE",
"298 -8 CURVE SMOOTH"
);
},
{
closed = 1;
nodes = (
"197 48 OFFCURVE",
"134 141 OFFCURVE",
"134 322 CURVE SMOOTH",
"134 504 OFFCURVE",
"230 697 OFFCURVE",
"388 697 CURVE SMOOTH",
"504 697 OFFCURVE",
"561 603 OFFCURVE",
"561 422 CURVE SMOOTH",
"561 238 OFFCURVE",
"470 48 OFFCURVE",
"310 48 CURVE SMOOTH"
);
}
);
};
layerId = "A8DD961D-2AAA-4421-B000-699D061D5CAD";
paths = (
{
closed = 1;
nodes = (
"410 -8 OFFCURVE",
"493 47 OFFCURVE",
"553 150 CURVE",
"533 0 LINE",
"958 0 LINE",
"963 62 LINE",
"600 56 LINE",
"636 355 LINE",
"873 350 LINE",
"877 412 LINE",
"643 409 LINE",
"677 692 LINE",
"984 688 LINE",
"987 747 LINE",
"624 747 LINE",
"606 577 LINE",
"583 688 OFFCURVE",
"513 755 OFFCURVE",
"402 755 CURVE SMOOTH",
"192 755 OFFCURVE",
"58 547 OFFCURVE",
"58 312 CURVE SMOOTH",
"58 136 OFFCURVE",
"138 -8 OFFCURVE",
"301 -8 CURVE SMOOTH"
);
},
{
closed = 1;
nodes = (
"196 48 OFFCURVE",
"134 139 OFFCURVE",
"134 322 CURVE SMOOTH",
"134 505 OFFCURVE",
"231 697 OFFCURVE",
"391 697 CURVE SMOOTH",
"504 697 OFFCURVE",
"561 606 OFFCURVE",
"561 424 CURVE SMOOTH",
"561 238 OFFCURVE",
"475 48 OFFCURVE",
"313 48 CURVE SMOOTH"
);
}
);
userData = {
assembly = "NPUSHB[ ]\011/* 10 values pushed */
23 1 0 7 9 1 2 1 2 74 
MPPEM[ ]\011/* MeasurePixelPerEm */
PUSHB[ ]\011/* 1 value pushed */
10 
LT[ ]\011/* LessThan */
IF[ ]\011/* If */
NPUSHB[ ]\011/* 35 values pushed */
0 0 0 1 2 0 1 97 8 10 2 7 7 5 91 6 1 5 5 25 75 11 9 2 2 2 3 91 4 1 3 3 18 3 76 
ELSE[ ]\011/* Else */
MPPEM[ ]\011/* MeasurePixelPerEm */
PUSHB[ ]\011/* 1 value pushed */
11 
LT[ ]\011/* LessThan */
IF[ ]\011/* If */
NPUSHB[ ]\011/* 45 values pushed */
0 0 0 1 2 0 1 97 8 10 2 7 7 5 91 6 1 5 5 25 75 0 2 2 3 91 4 1 3 3 18 75 11 1 9 9 3 91 4 1 3 3 18 3 76 
ELSE[ ]\011/* Else */
MPPEM[ ]\011/* MeasurePixelPerEm */
PUSHB[ ]\011/* 1 value pushed */
19 
LT[ ]\011/* LessThan */
IF[ ]\011/* If */
NPUSHB[ ]\011/* 35 values pushed */
0 0 0 1 2 0 1 97 8 10 2 7 7 5 91 6 1 5 5 25 75 11 9 2 2 2 3 91 4 1 3 3 18 3 76 
ELSE[ ]\011/* Else */
MPPEM[ ]\011/* MeasurePixelPerEm */
PUSHB[ ]\011/* 1 value pushed */
21 
LT[ ]\011/* LessThan */
IF[ ]\011/* If */
NPUSHB[ ]\011/* 45 values pushed */
0 0 0 1 2 0 1 97 8 10 2 7 7 5 91 6 1 5 5 25 75 0 2 2 3 91 4 1 3 3 18 75 11 1 9 9 3 91 4 1 3 3 18 3 76 
ELSE[ ]\011/* Else */
MPPEM[ ]\011/* MeasurePixelPerEm */
PUSHB[ ]\011/* 1 value pushed */
24 
LT[ ]\011/* LessThan */
IF[ ]\011/* If */
NPUSHB[ ]\011/* 35 values pushed */
0 0 0 1 2 0 1 97 8 10 2 7 7 5 91 6 1 5 5 25 75 11 9 2 2 2 3 91 4 1 3 3 18 3 76 
ELSE[ ]\011/* Else */
MPPEM[ ]\011/* MeasurePixelPerEm */
PUSHB[ ]\011/* 1 value pushed */
29 
LT[ ]\011/* LessThan */
IF[ ]\011/* If */
NPUSHB[ ]\011/* 45 values pushed */
0 0 0 1 2 0 1 97 8 10 2 7 7 5 91 6 1 5 5 25 75 0 2 2 3 91 4 1 3 3 18 75 11 1 9 9 3 91 4 1 3 3 18 3 76 
ELSE[ ]\011/* Else */
MPPEM[ ]\011/* MeasurePixelPerEm */
PUSHB[ ]\011/* 1 value pushed */
35 
LT[ ]\011/* LessThan */
IF[ ]\011/* If */
NPUSHB[ ]\011/* 54 values pushed */
0 0 0 1 2 0 1 97 8 10 2 7 7 5 91 0 5 5 25 75 8 10 2 7 7 6 89 0 6 6 17 75 0 2 2 3 89 0 3 3 18 75 11 1 9 9 4 91 0 4 4 26 4 76 
ELSE[ ]\011/* Else */
NPUSHB[ ]\011/* 51 values pushed */
0 0 0 1 2 0 1 97 0 8 8 5 91 0 5 5 25 75 10 1 7 7 6 89 0 6 6 17 75 0 2 2 3 89 0 3 3 18 75 11 1 9 9 4 91 0 4 4 26 4 76 
EIF[ ]\011/* EndIf */
EIF[ ]\011/* EndIf */
EIF[ ]\011/* EndIf */
EIF[ ]\011/* EndIf */
EIF[ ]\011/* EndIf */
EIF[ ]\011/* EndIf */
EIF[ ]\011/* EndIf */
NPUSHB[ ]\011/* 24 values pushed */
27 27 0 0 27 39 27 38 33 31 0 26 0 26 19 38 35 17 17 17 17 12 7 27 
CALL[ ]\011/* CallFunction */";
};
width = 1020;
},
{
background = {
anchors = (
{
name = bottom;
position = "{305, 0}";
},
{
name = center;
position = "{355, 374}";
},
{
name = ogonek;
position = "{411, 10}";
},
{
name = top;
position = "{407, 748}";
},
{
name = topleft;
position = "{86, 748}";
},
{
name = topright;
position = "{720, 748}";
}
);
paths = (
{
closed = 1;
nodes = (
"514 -8 OFFCURVE",
"646 200 OFFCURVE",
"646 442 CURVE SMOOTH",
"646 611 OFFCURVE",
"567 755 OFFCURVE",
"402 755 CURVE SMOOTH",
"188 755 OFFCURVE",
"53 545 OFFCURVE",
"53 305 CURVE SMOOTH",
"53 133 OFFCURVE",
"135 -8 OFFCURVE",
"298 -8 CURVE SMOOTH"
);
},
{
closed = 1;
nodes = (
"215 75 OFFCURVE",
"169 148 OFFCURVE",
"166 313 CURVE SMOOTH",
"164 479 OFFCURVE",
"245 670 OFFCURVE",
"386 670 CURVE SMOOTH",
"489 670 OFFCURVE",
"531 591 OFFCURVE",
"533 434 CURVE SMOOTH",
"535 265 OFFCURVE",
"456 75 OFFCURVE",
"313 75 CURVE SMOOTH"
);
}
);
};
layerId = "FC25F90A-4039-49BA-9FA9-48428CE1BED8";
paths = (
{
closed = 1;
nodes = (
"399 -8 OFFCURVE",
"485 39 OFFCURVE",
"545 122 CURVE",
"521 0 LINE",
"958 0 LINE",
"967 90 LINE",
"625 83 LINE",
"659 343 LINE",
"879 335 LINE",
"887 425 LINE",
"669 422 LINE",
"700 664 LINE",
"988 661 LINE",
"994 747 LINE",
"617 747 LINE",
"608 612 LINE",
"571 701 OFFCURVE",
"502 755 OFFCURVE",
"402 755 CURVE SMOOTH",
"189 755 OFFCURVE",
"53 544 OFFCURVE",
"53 305 CURVE SMOOTH",
"53 132 OFFCURVE",
"136 -8 OFFCURVE",
"298 -8 CURVE SMOOTH"
);
},
{
closed = 1;
nodes = (
"215 75 OFFCURVE",
"169 148 OFFCURVE",
"166 313 CURVE SMOOTH",
"164 479 OFFCURVE",
"245 670 OFFCURVE",
"386 670 CURVE SMOOTH",
"489 670 OFFCURVE",
"531 591 OFFCURVE",
"533 434 CURVE SMOOTH",
"535 265 OFFCURVE",
"456 75 OFFCURVE",
"313 75 CURVE SMOOTH"
);
}
);
width = 1022;
}
);
leftKerningGroup = O;
leftMetricsKey = O;
note = OE;
rightKerningGroup = E;
rightMetricsKey = E;
unicode = 0152;
},
{
color = 7;
glyphname = P;
lastChange = "2019-02-18 20:31:10 +0000";
layers = (
{
anchors = (
{
name = bottom;
position = "{280, 0}";
},
{
name = top;
position = "{379, 747}";
}
);
layerId = "9808B12E-936F-4588-BC0B-2F1DE3B33DAD";
paths = (
{
closed = 1;
nodes = (
"208 0 LINE",
"242 239 LINE",
"260 239 OFFCURVE",
"300 238 OFFCURVE",
"321 238 CURVE SMOOTH",
"454 238 OFFCURVE",
"554 295 OFFCURVE",
"604 387 CURVE SMOOTH",
"629 432 OFFCURVE",
"641 483 OFFCURVE",
"641 540 CURVE SMOOTH",
"641 681 OFFCURVE",
"549 755 OFFCURVE",
"378 755 CURVE SMOOTH",
"345 755 OFFCURVE",
"230 747 OFFCURVE",
"218 747 CURVE SMOOTH",
"142 747 LINE",
"35 0 LINE"
);
},
{
closed = 1;
nodes = (
"300 367 OFFCURVE",
"273 370 OFFCURVE",
"261 373 CURVE",
"298 630 LINE",
"317 633 OFFCURVE",
"334 635 OFFCURVE",
"347 635 CURVE SMOOTH",
"436 635 OFFCURVE",
"471 602 OFFCURVE",
"471 537 CURVE SMOOTH",
"464 426 OFFCURVE",
"422 367 OFFCURVE",
"324 367 CURVE SMOOTH"
);
}
);
userData = {
assembly = "PUSHB[ ]\011/* 6 values pushed */
27 1 5 4 1 74 
MPPEM[ ]\011/* MeasurePixelPerEm */
PUSHB[ ]\011/* 1 value pushed */
38 
LT[ ]\011/* LessThan */
IF[ ]\011/* If */
NPUSHB[ ]\011/* 27 values pushed */
7 1 5 0 2 3 5 2 98 0 4 4 0 91 1 6 2 0 0 17 75 0 3 3 18 3 76 
ELSE[ ]\011/* Else */
NPUSHB[ ]\011/* 31 values pushed */
7 1 5 0 2 3 5 2 98 6 1 0 0 17 75 0 4 4 1 91 0 1 1 25 75 0 3 3 18 3 76 
EIF[ ]\011/* EndIf */
NPUSHB[ ]\011/* 23 values pushed */
18 18 2 0 18 30 18 29 25 23 16 15 14 10 5 3 0 17 2 17 8 7 20 
CALL[ ]\011/* CallFunction */";
};
width = 634;
},
{
anchors = (
{
name = bottom;
position = "{251, 0}";
},
{
name = top;
position = "{350, 747}";
}
);
layerId = "A8DD961D-2AAA-4421-B000-699D061D5CAD";
paths = (
{
closed = 1;
nodes = (
"132 0 LINE",
"166 264 LINE",
"200 259 OFFCURVE",
"235 257 OFFCURVE",
"270 257 CURVE SMOOTH",
"386 257 OFFCURVE",
"480 308 OFFCURVE",
"531 398 CURVE SMOOTH",
"556 443 OFFCURVE",
"569 496 OFFCURVE",
"569 557 CURVE SMOOTH",
"569 690 OFFCURVE",
"493 755 OFFCURVE",
"346 755 CURVE SMOOTH",
"324 755 OFFCURVE",
"218 747 OFFCURVE",
"196 747 CURVE SMOOTH",
"153 747 LINE",
"59 0 LINE"
);
},
{
closed = 1;
nodes = (
"239 315 OFFCURVE",
"193 319 OFFCURVE",
"173 323 CURVE",
"219 690 LINE",
"270 697 OFFCURVE",
"308 700 OFFCURVE",
"335 700 CURVE SMOOTH",
"442 700 OFFCURVE",
"495 652 OFFCURVE",
"495 561 CURVE SMOOTH",
"495 401 OFFCURVE",
"416 315 OFFCURVE",
"268 315 CURVE SMOOTH"
);
}
);
userData = {
assembly = "PUSHB[ ]\011/* 6 values pushed */
25 1 5 4 1 74 
MPPEM[ ]\011/* MeasurePixelPerEm */
PUSHB[ ]\011/* 1 value pushed */
31 
LT[ ]\011/* LessThan */
IF[ ]\011/* If */
NPUSHB[ ]\011/* 27 values pushed */
7 1 5 0 2 3 5 2 100 0 4 4 0 91 1 6 2 0 0 17 75 0 3 3 18 3 76 
ELSE[ ]\011/* Else */
NPUSHB[ ]\011/* 31 values pushed */
7 1 5 0 2 3 5 2 100 6 1 0 0 17 75 0 4 4 1 91 0 1 1 25 75 0 3 3 18 3 76 
EIF[ ]\011/* EndIf */
NPUSHB[ ]\011/* 23 values pushed */
17 17 1 0 17 28 17 27 23 21 15 14 12 10 5 3 0 16 1 16 8 7 20 
CALL[ ]\011/* CallFunction */";
};
width = 576;
},
{
anchors = (
{
name = bottom;
position = "{255.875, 0}";
},
{
name = top;
position = "{354.875, 747.975}";
}
);
layerId = "FC25F90A-4039-49BA-9FA9-48428CE1BED8";
paths = (
{
closed = 1;
nodes = (
"159.425 0 LINE",
"192.75 255.75 LINE",
"210.45 253.075 OFFCURVE",
"239.125 251.4 OFFCURVE",
"279.8 251.4 CURVE SMOOTH",
"399.375 251.4 OFFCURVE",
"495.025 303.7 OFFCURVE",
"545.7 396.025 CURVE SMOOTH",
"570.7 441.35 OFFCURVE",
"583.375 495.025 OFFCURVE",
"583.05 555.7 CURVE SMOOTH",
"583.05 689.35 OFFCURVE",
"502.45 755 OFFCURVE",
"353.875 755 CURVE SMOOTH",
"318.375 755 OFFCURVE",
"234.125 747 OFFCURVE",
"206.95 747 CURVE SMOOTH",
"147.025 747 LINE",
"50.75 0 LINE"
);
},
{
closed = 1;
nodes = (
"254.75 336.175 OFFCURVE",
"220.4 339.175 OFFCURVE",
"204.05 342.85 CURVE",
"245.4 665.175 LINE",
"271.125 671.2 OFFCURVE",
"310.875 675.2 OFFCURVE",
"335.275 675.2 CURVE SMOOTH",
"430.6 675.2 OFFCURVE",
"475.325 634.175 OFFCURVE",
"473.35 551.125 CURVE SMOOTH",
"470.025 409.275 OFFCURVE",
"409.325 336.5 OFFCURVE",
"279.425 336.175 CURVE SMOOTH"
);
}
);
width = 585.425;
}
);
leftKerningGroup = H;
note = P;
rightKerningGroup = P;
unicode = 0050;
},
{
color = 7;
glyphname = Thorn;
lastChange = "2019-02-18 20:31:10 +0000";
layers = (
{
layerId = "9808B12E-936F-4588-BC0B-2F1DE3B33DAD";
paths = (
{
closed = 1;
nodes = (
"213 0 LINE",
"232 132 LINE",
"247 132 OFFCURVE",
"287 126 OFFCURVE",
"308 126 CURVE SMOOTH",
"441 126 OFFCURVE",
"541 183 OFFCURVE",
"591 272 CURVE SMOOTH",
"616 317 OFFCURVE",
"628 366 OFFCURVE",
"628 420 CURVE SMOOTH",
"628 556 OFFCURVE",
"535 629 OFFCURVE",
"366 629 CURVE SMOOTH",
"345 629 OFFCURVE",
"324 628 OFFCURVE",
"301 626 CURVE",
"318 747 LINE",
"142 747 LINE",
"37 0 LINE"
);
},
{
closed = 1;
nodes = (
"287 255 OFFCURVE",
"262 257 OFFCURVE",
"250 261 CURVE",
"285 508 LINE",
"369 508 OFFCURVE",
"270 509 OFFCURVE",
"334 509 CURVE SMOOTH",
"423 509 OFFCURVE",
"459 477 OFFCURVE",
"459 417 CURVE SMOOTH",
"454 313 OFFCURVE",
"410 255 OFFCURVE",
"311 255 CURVE SMOOTH"
);
}
);
userData = {
assembly = "NPUSHB[ ]\011/* 46 values pushed */
13 1 4 3 26 1 5 4 2 74 0 3 0 4 5 3 4 100 0 5 0 0 1 5 0 99 0 2 2 17 75 0 1 1 18 1 76 37 37 34 17 21 34 6 7 26 
CALL[ ]\011/* CallFunction */";
};
width = 638;
},
{
layerId = "A8DD961D-2AAA-4421-B000-699D061D5CAD";
paths = (
{
closed = 1;
nodes = (
"132 0 LINE",
"150 145 LINE",
"178 142 OFFCURVE",
"211 140 OFFCURVE",
"249 140 CURVE SMOOTH",
"366 140 OFFCURVE",
"461 188 OFFCURVE",
"512 275 CURVE SMOOTH",
"537 318 OFFCURVE",
"550 369 OFFCURVE",
"550 428 CURVE SMOOTH",
"550 559 OFFCURVE",
"474 625 OFFCURVE",
"330 625 CURVE SMOOTH",
"310 625 OFFCURVE",
"240 621 OFFCURVE",
"210 618 CURVE",
"227 747 LINE",
"153 747 LINE",
"59 0 LINE"
);
},
{
closed = 1;
nodes = (
"219 197 OFFCURVE",
"179 201 OFFCURVE",
"158 205 CURVE",
"203 561 LINE",
"231 564 OFFCURVE",
"294 570 OFFCURVE",
"318 570 CURVE SMOOTH",
"426 570 OFFCURVE",
"476 519 OFFCURVE",
"476 430 CURVE SMOOTH",
"476 282 OFFCURVE",
"398 198 OFFCURVE",
"251 197 CURVE SMOOTH"
);
}
);
userData = {
assembly = "PUSHB[ ]\011/* 6 values pushed */
24 1 6 5 1 74 
MPPEM[ ]\011/* MeasurePixelPerEm */
PUSHB[ ]\011/* 1 value pushed */
33 
LT[ ]\011/* LessThan */
IF[ ]\011/* If */
NPUSHB[ ]\011/* 28 values pushed */
4 1 3 0 5 6 3 5 99 0 6 0 0 1 6 0 100 0 2 2 17 75 0 1 1 18 1 76 
ELSE[ ]\011/* Else */
NPUSHB[ ]\011/* 35 values pushed */
0 3 4 5 4 3 5 112 0 4 0 5 6 4 5 99 0 6 0 0 1 6 0 100 0 2 2 17 75 0 1 1 18 1 76 
EIF[ ]\011/* EndIf */
NPUSHB[ ]\011/* 10 values pushed */
37 36 34 17 17 18 34 7 7 27 
CALL[ ]\011/* CallFunction */";
};
width = 583;
},
{
layerId = "FC25F90A-4039-49BA-9FA9-48428CE1BED8";
paths = (
{
closed = 1;
nodes = (
"160.4 0 LINE",
"177.725 136.025 LINE",
"200.625 133.025 OFFCURVE",
"229.65 131.025 OFFCURVE",
"264.45 131.025 CURVE SMOOTH",
"384.05 131.025 OFFCURVE",
"479.675 183.325 OFFCURVE",
"530.35 275.325 CURVE SMOOTH",
"555.35 320.325 OFFCURVE",
"568.025 373.675 OFFCURVE",
"567.7 434.025 CURVE SMOOTH",
"567.7 566.7 OFFCURVE",
"487.1 632.35 OFFCURVE",
"338.525 632.35 CURVE SMOOTH",
"318.925 632.35 OFFCURVE",
"261.575 628.65 OFFCURVE",
"240.7 626.325 CURVE",
"256.7 747 LINE",
"147.025 747 LINE",
"51.075 0 LINE"
);
},
{
closed = 1;
nodes = (
"239.4 215.475 OFFCURVE",
"205.375 218.475 OFFCURVE",
"189.025 222.475 CURVE",
"230.4 543.175 LINE",
"256.125 548.875 OFFCURVE",
"296.225 552.55 OFFCURVE",
"319.925 552.55 CURVE SMOOTH",
"414.925 552.55 OFFCURVE",
"459.975 511.525 OFFCURVE",
"458 429.45 CURVE SMOOTH",
"455 289.55 OFFCURVE",
"394.625 215.8 OFFCURVE",
"264.075 215.8 CURVE SMOOTH"
);
}
);
width = 598.475;
}
);
leftKerningGroup = H;
note = Thorn;
rightKerningGroup = Thorn;
unicode = 00DE;
},
{
color = 7;
glyphname = Q;
lastChange = "2019-02-18 20:31:10 +0000";
layers = (
{
components = (
{
name = O;
}
);
layerId = "9808B12E-936F-4588-BC0B-2F1DE3B33DAD";
paths = (
{
closed = 1;
nodes = (
"483 -205 OFFCURVE",
"584 -183 OFFCURVE",
"614 -155 CURVE",
"614 -56 LINE",
"584 -65 OFFCURVE",
"533 -69 OFFCURVE",
"462 -69 CURVE SMOOTH",
"394 -69 OFFCURVE",
"349 -63 OFFCURVE",
"349 -14 CURVE SMOOTH",
"349 -10 OFFCURVE",
"349 3 OFFCURVE",
"349 6 CURVE",
"243 7 LINE",
"234 -18 OFFCURVE",
"230 -52 OFFCURVE",
"230 -73 CURVE SMOOTH",
"230 -168 OFFCURVE",
"314 -205 OFFCURVE",
"426 -205 CURVE SMOOTH"
);
}
);
userData = {
assembly = "NPUSHB[ ]\011/* 51 values pushed */
33 7 2 0 3 8 1 1 0 2 74 0 3 4 0 4 3 0 112 0 0 0 1 0 1 96 5 1 4 4 2 91 0 2 2 25 4 76 34 34 34 49 34 48 46 43 37 36 6 7 24 
CALL[ ]\011/* CallFunction */";
};
width = 681;
},
{
components = (
{
name = O;
}
);
layerId = "A8DD961D-2AAA-4421-B000-699D061D5CAD";
paths = (
{
closed = 1;
nodes = (
"504 -175 OFFCURVE",
"569 -164 OFFCURVE",
"594 -147 CURVE",
"594 -90 LINE",
"566 -102 OFFCURVE",
"521 -107 OFFCURVE",
"488 -107 CURVE SMOOTH",
"400 -107 OFFCURVE",
"335 -81 OFFCURVE",
"335 -11 CURVE SMOOTH",
"335 -5 OFFCURVE",
"335 9 OFFCURVE",
"335 11 CURVE",
"282 11 LINE",
"281 2 OFFCURVE",
"281 -24 OFFCURVE",
"281 -31 CURVE SMOOTH",
"281 -122 OFFCURVE",
"351 -175 OFFCURVE",
"445 -175 CURVE SMOOTH"
);
}
);
userData = {
assembly = "NPUSHB[ ]\011/* 51 values pushed */
31 1 2 4 5 1 0 2 6 1 1 0 3 74 0 0 0 1 0 1 95 0 5 5 3 91 0 3 3 25 75 0 4 4 2 91 0 2 2 26 2 76 37 41 38 21 37 33 6 7 26 
CALL[ ]\011/* CallFunction */";
};
width = 673;
},
{
components = (
{
alignment = -1;
name = O;
}
);
layerId = "FC25F90A-4039-49BA-9FA9-48428CE1BED8";
paths = (
{
closed = 1;
nodes = (
"498.375 -180.55 OFFCURVE",
"573.6 -166.6 OFFCURVE",
"597.25 -148.3 CURVE",
"597.25 -69.4 LINE",
"570.95 -78.4 OFFCURVE",
"525.975 -83.4 OFFCURVE",
"493.825 -83.4 CURVE SMOOTH",
"417.775 -83.4 OFFCURVE",
"350.675 -72.375 OFFCURVE",
"350.675 -8.95 CURVE SMOOTH",
"350.675 -3.375 OFFCURVE",
"350.675 10.625 OFFCURVE",
"350.675 13.275 CURVE",
"278.525 12.3 LINE",
"274.875 -2.325 OFFCURVE",
"272.875 -29.875 OFFCURVE",
"272.875 -40.15 CURVE SMOOTH",
"272.875 -130.8 OFFCURVE",
"344.475 -180.55 OFFCURVE",
"440.4 -180.55 CURVE SMOOTH"
);
}
);
width = 674.3;
}
);
leftKerningGroup = O;
note = Q;
rightKerningGroup = O;
unicode = 0051;
},
{
color = 7;
glyphname = R;
lastChange = "2019-02-18 20:31:10 +0000";
layers = (
{
anchors = (
{
name = bottom;
position = "{291, 0}";
},
{
name = top;
position = "{367, 747}";
}
);
layerId = "9808B12E-936F-4588-BC0B-2F1DE3B33DAD";
paths = (
{
closed = 1;
nodes = (
"208 0 LINE",
"250 280 LINE",
"326 280 LINE SMOOTH",
"348 280 OFFCURVE",
"379 204 OFFCURVE",
"392 149 CURVE SMOOTH",
"400 124 OFFCURVE",
"421 19 OFFCURVE",
"435 0 CURVE",
"626 0 LINE",
"605 30 OFFCURVE",
"588 86 OFFCURVE",
"558 179 CURVE SMOOTH",
"538 242 OFFCURVE",
"517 289 OFFCURVE",
"490 313 CURVE",
"599 346 OFFCURVE",
"649 442 OFFCURVE",
"649 563 CURVE SMOOTH",
"649 690 OFFCURVE",
"570 755 OFFCURVE",
"381 755 CURVE SMOOTH",
"341 755 OFFCURVE",
"274 747 OFFCURVE",
"240 747 CURVE SMOOTH",
"142 747 LINE",
"35 0 LINE"
);
},
{
closed = 1;
nodes = (
"317 413 OFFCURVE",
"285 413 OFFCURVE",
"268 414 CURVE",
"298 630 LINE",
"313 633 OFFCURVE",
"342 635 OFFCURVE",
"365 635 CURVE SMOOTH",
"440 635 OFFCURVE",
"480 617 OFFCURVE",
"480 549 CURVE SMOOTH",
"480 478 OFFCURVE",
"445 413 OFFCURVE",
"363 413 CURVE SMOOTH"
);
}
);
userData = {
assembly = "PUSHB[ ]\011/* 6 values pushed */
33 1 1 6 1 74 
MPPEM[ ]\011/* MeasurePixelPerEm */
PUSHB[ ]\011/* 1 value pushed */
31 
LT[ ]\011/* LessThan */
IF[ ]\011/* If */
NPUSHB[ ]\011/* 27 values pushed */
7 1 6 0 1 0 6 1 98 0 5 5 3 91 4 1 3 3 17 75 2 1 0 0 18 0 76 
ELSE[ ]\011/* Else */
NPUSHB[ ]\011/* 31 values pushed */
7 1 6 0 1 0 6 1 98 0 3 3 17 75 0 5 5 4 91 0 4 4 25 75 2 1 0 0 18 0 76 
EIF[ ]\011/* EndIf */
NPUSHB[ ]\011/* 15 values pushed */
34 34 34 47 34 45 44 34 33 17 40 24 8 7 26 
CALL[ ]\011/* CallFunction */";
};
width = 656;
},
{
anchors = (
{
name = bottom;
position = "{270, 0}";
},
{
name = top;
position = "{342, 747}";
}
);
layerId = "A8DD961D-2AAA-4421-B000-699D061D5CAD";
paths = (
{
closed = 1;
nodes = (
"132 0 LINE",
"172 321 LINE",
"295 320 LINE SMOOTH",
"342 320 OFFCURVE",
"388 217 OFFCURVE",
"404 165 CURVE SMOOTH",
"444 61 OFFCURVE",
"463 19 OFFCURVE",
"475 0 CURVE",
"559 0 LINE",
"540 24 OFFCURVE",
"517 82 OFFCURVE",
"481 165 CURVE SMOOTH",
"460 221 OFFCURVE",
"419 306 OFFCURVE",
"390 331 CURVE",
"503 362 OFFCURVE",
"571 458 OFFCURVE",
"571 577 CURVE SMOOTH",
"571 693 OFFCURVE",
"490 755 OFFCURVE",
"341 755 CURVE SMOOTH",
"314 755 OFFCURVE",
"244 747 OFFCURVE",
"189 747 CURVE SMOOTH",
"152 747 LINE",
"59 0 LINE"
);
},
{
closed = 1;
nodes = (
"230 379 OFFCURVE",
"195 379 OFFCURVE",
"180 380 CURVE",
"219 690 LINE",
"246 694 OFFCURVE",
"307 698 OFFCURVE",
"331 698 CURVE SMOOTH",
"438 698 OFFCURVE",
"491 657 OFFCURVE",
"491 574 CURVE SMOOTH",
"491 464 OFFCURVE",
"425 379 OFFCURVE",
"311 379 CURVE SMOOTH"
);
}
);
userData = {
assembly = "PUSHB[ ]\011/* 6 values pushed */
28 1 1 6 1 74 
MPPEM[ ]\011/* MeasurePixelPerEm */
PUSHB[ ]\011/* 1 value pushed */
31 
LT[ ]\011/* LessThan */
IF[ ]\011/* If */
NPUSHB[ ]\011/* 27 values pushed */
7 1 6 0 1 0 6 1 98 0 5 5 3 91 4 1 3 3 17 75 2 1 0 0 18 0 76 
ELSE[ ]\011/* Else */
NPUSHB[ ]\011/* 31 values pushed */
7 1 6 0 1 0 6 1 98 0 3 3 17 75 0 5 5 4 91 0 4 4 25 75 2 1 0 0 18 0 76 
EIF[ ]\011/* EndIf */
NPUSHB[ ]\011/* 15 values pushed */
29 29 29 41 29 38 43 34 33 17 36 22 8 7 26 
CALL[ ]\011/* CallFunction */";
};
width = 613;
},
{
anchors = (
{
name = bottom;
position = "{275.925, 0}";
},
{
name = top;
position = "{355.65, 747}";
}
);
layerId = "FC25F90A-4039-49BA-9FA9-48428CE1BED8";
paths = (
{
closed = 1;
nodes = (
"158.75 0 LINE",
"199.075 312.5 LINE",
"295.175 311.825 LINE",
"338.6 307.8 OFFCURVE",
"369.925 224.825 OFFCURVE",
"393 149 CURVE SMOOTH",
"417.4 77.9 OFFCURVE",
"437.425 24.675 OFFCURVE",
"452.425 0 CURVE",
"575.75 0 LINE",
"554.1 31.3 OFFCURVE",
"518.025 120.075 OFFCURVE",
"485.975 200.1 CURVE SMOOTH",
"470.975 246.025 OFFCURVE",
"441.95 304.4 OFFCURVE",
"417.65 328.075 CURVE",
"527.975 362.425 OFFCURVE",
"588.7 455.075 OFFCURVE",
"588.7 573.05 CURVE SMOOTH",
"588.7 691.65 OFFCURVE",
"507.725 755 OFFCURVE",
"353.525 755 CURVE SMOOTH",
"322.575 755 OFFCURVE",
"231.1 747 OFFCURVE",
"204.15 747 CURVE SMOOTH",
"146.35 747 LINE",
"50.075 0 LINE"
);
},
{
closed = 1;
nodes = (
"262.4 397.925 OFFCURVE",
"227.05 397.925 OFFCURVE",
"210.05 398.925 CURVE",
"245.4 665.85 LINE",
"264.1 669.175 OFFCURVE",
"314.85 673.525 OFFCURVE",
"341.55 673.525 CURVE SMOOTH",
"427.9 673.525 OFFCURVE",
"472.95 638.8 OFFCURVE",
"473.625 572.825 CURVE SMOOTH",
"476.325 470.325 OFFCURVE",
"423.25 397.925 OFFCURVE",
"316.775 397.925 CURVE SMOOTH"
);
}
);
width = 625.85;
}
);
leftKerningGroup = H;
note = R;
rightKerningGroup = R;
unicode = 0052;
},
{
color = 7;
glyphname = S;
lastChange = "2019-03-27 20:07:36 +0000";
layers = (
{
anchors = (
{
name = bottom;
position = "{222, 0}";
},
{
name = top;
position = "{341, 747}";
}
);
layerId = "9808B12E-936F-4588-BC0B-2F1DE3B33DAD";
paths = (
{
closed = 1;
nodes = (
"353 -8 OFFCURVE",
"476 65 OFFCURVE",
"476 224 CURVE SMOOTH",
"476 305 OFFCURVE",
"421 365 OFFCURVE",
"340 429 CURVE SMOOTH",
"289 470 OFFCURVE",
"247 505 OFFCURVE",
"247 550 CURVE SMOOTH",
"247 589 OFFCURVE",
"278 619 OFFCURVE",
"338 619 CURVE SMOOTH",
"386 619 OFFCURVE",
"441 599 OFFCURVE",
"464 576 CURVE",
"519 713 LINE",
"490 734 OFFCURVE",
"420 755 OFFCURVE",
"343 755 CURVE SMOOTH",
"194 755 OFFCURVE",
"82 675 OFFCURVE",
"82 532 CURVE SMOOTH",
"82 449 OFFCURVE",
"135 381 OFFCURVE",
"207 326 CURVE SMOOTH",
"268 280 OFFCURVE",
"299 253 OFFCURVE",
"299 208 CURVE SMOOTH",
"299 160 OFFCURVE",
"270 130 OFFCURVE",
"199 130 CURVE SMOOTH",
"152 130 OFFCURVE",
"89 155 OFFCURVE",
"56 180 CURVE",
"-2 39 LINE",
"26 16 OFFCURVE",
"136 -8 OFFCURVE",
"191 -8 CURVE SMOOTH"
);
}
);
userData = {
assembly = "NPUSHB[ ]\011/* 43 values pushed */
19 1 2 1 43 20 2 0 2 42 1 3 0 3 74 0 2 2 1 91 0 1 1 25 75 0 0 0 3 91 0 3 3 26 3 76 45 37 44 33 4 7 24 
CALL[ ]\011/* CallFunction */";
};
width = 517;
},
{
anchors = (
{
name = bottom;
position = "{218, 0}";
},
{
name = top;
position = "{314, 747}";
}
);
layerId = "A8DD961D-2AAA-4421-B000-699D061D5CAD";
paths = (
{
closed = 1;
nodes = (
"336 -8 OFFCURVE",
"450 58 OFFCURVE",
"450 196 CURVE SMOOTH",
"450 290 OFFCURVE",
"394 339 OFFCURVE",
"298 402 CURVE SMOOTH",
"213 458 OFFCURVE",
"165 494 OFFCURVE",
"165 576 CURVE SMOOTH",
"165 668 OFFCURVE",
"239 699 OFFCURVE",
"320 699 CURVE SMOOTH",
"376 699 OFFCURVE",
"433 684 OFFCURVE",
"460 657 CURVE",
"484 714 LINE",
"445 741 OFFCURVE",
"388 755 OFFCURVE",
"315 755 CURVE SMOOTH",
"192 755 OFFCURVE",
"91 690 OFFCURVE",
"91 566 CURVE SMOOTH",
"91 466 OFFCURVE",
"154 409 OFFCURVE",
"255 343 CURVE SMOOTH",
"336 291 OFFCURVE",
"374 247 OFFCURVE",
"374 183 CURVE SMOOTH",
"374 94 OFFCURVE",
"296 50 OFFCURVE",
"199 50 CURVE SMOOTH",
"142 50 OFFCURVE",
"55 71 OFFCURVE",
"35 96 CURVE",
"14 36 LINE",
"41 14 OFFCURVE",
"138 -8 OFFCURVE",
"197 -8 CURVE SMOOTH"
);
}
);
userData = {
assembly = "NPUSHB[ ]\011/* 43 values pushed */
20 1 2 1 44 21 2 0 2 43 1 3 0 3 74 0 2 2 1 91 0 1 1 25 75 0 0 0 3 91 0 3 3 26 3 76 45 36 45 34 4 7 24 
CALL[ ]\011/* CallFunction */";
};
width = 510;
},
{
anchors = (
{
name = bottom;
position = "{218.65, 0}";
},
{
name = top;
position = "{320.9, 747}";
}
);
layerId = "FC25F90A-4039-49BA-9FA9-48428CE1BED8";
paths = (
{
closed = 1;
nodes = (
"340.225 -8 OFFCURVE",
"454.225 60.95 OFFCURVE",
"454.225 204.9 CURVE SMOOTH",
"454.225 295.95 OFFCURVE",
"397.9 351.6 OFFCURVE",
"306.5 414.925 CURVE SMOOTH",
"248.75 454.625 OFFCURVE",
"194.75 522.025 OFFCURVE",
"196.075 576.125 CURVE SMOOTH",
"198.425 644.95 OFFCURVE",
"255.2 670.925 OFFCURVE",
"325.6 670.925 CURVE SMOOTH",
"370.6 670.925 OFFCURVE",
"427.925 656.625 OFFCURVE",
"454.95 629.6 CURVE",
"489.525 713 LINE",
"458.5 736 OFFCURVE",
"401.225 755 OFFCURVE",
"320.55 755 CURVE SMOOTH",
"189 755 OFFCURVE",
"88.025 684.725 OFFCURVE",
"88.025 555.45 CURVE SMOOTH",
"88.025 459.05 OFFCURVE",
"145.375 396.075 OFFCURVE",
"237.15 333.7 CURVE SMOOTH",
"308.025 286.25 OFFCURVE",
"340.875 237.7 OFFCURVE",
"340.875 186.225 CURVE SMOOTH",
"340.875 112.425 OFFCURVE",
"280.05 78.075 OFFCURVE",
"194.975 78.075 CURVE SMOOTH",
"145.95 78.075 OFFCURVE",
"64.55 102.4 OFFCURVE",
"43.6 125.4 CURVE",
"11.4 37.325 LINE",
"38.05 14.975 OFFCURVE",
"130.95 -8 OFFCURVE",
"192 -8 CURVE SMOOTH"
);
}
);
width = 509;
}
);
leftKerningGroup = S;
note = S;
rightKerningGroup = S;
unicode = 0053;
},
{
color = 7;
glyphname = Germandbls;
lastChange = "2019-03-28 01:48:31 +0000";
layers = (
{
layerId = "9808B12E-936F-4588-BC0B-2F1DE3B33DAD";
paths = (
{
closed = 1;
nodes = (
"588 -11 OFFCURVE",
"689 88 OFFCURVE",
"689 234 CURVE SMOOTH",
"689 344 OFFCURVE",
"622 413 OFFCURVE",
"532 413 CURVE",
"690 603 LINE",
"705 707 LINE",
"689 707 OFFCURVE",
"674 710 OFFCURVE",
"639 722 CURVE",
"574 741 OFFCURVE",
"529 753 OFFCURVE",
"458 753 CURVE SMOOTH",
"220 753 OFFCURVE",
"112 598 OFFCURVE",
"83 368 CURVE SMOOTH",
"32 0 LINE",
"190 0 LINE",
"245 398 LINE SMOOTH",
"263 526 OFFCURVE",
"338 620 OFFCURVE",
"428 620 CURVE SMOOTH",
"464 620 OFFCURVE",
"498 610 OFFCURVE",
"519 597 CURVE",
"376 426 LINE",
"362 329 LINE",
"493 329 OFFCURVE",
"535 290 OFFCURVE",
"535 217 CURVE SMOOTH",
"535 126 OFFCURVE",
"459 109 OFFCURVE",
"419 109 CURVE SMOOTH",
"372 109 OFFCURVE",
"331 125 OFFCURVE",
"308 144 CURVE",
"250 28 LINE",
"294 4 OFFCURVE",
"323 -11 OFFCURVE",
"418 -11 CURVE SMOOTH"
);
}
);
userData = {
assembly = "NPUSHB[ ]\011/* 14 values pushed */
24 1 0 4 36 1 6 5 37 1 3 6 3 74 
MPPEM[ ]\011/* MeasurePixelPerEm */
PUSHB[ ]\011/* 1 value pushed */
22 
LT[ ]\011/* LessThan */
IF[ ]\011/* If */
NPUSHB[ ]\011/* 45 values pushed */
0 1 2 4 2 1 4 112 0 0 4 5 4 0 5 112 0 5 6 4 5 6 110 0 4 4 2 91 0 2 2 17 75 0 6 6 3 91 7 1 3 3 18 3 76 
ELSE[ ]\011/* Else */
NPUSHB[ ]\011/* 49 values pushed */
0 1 2 4 2 1 4 112 0 0 4 5 4 0 5 112 0 5 6 4 5 6 110 0 4 4 2 91 0 2 2 17 75 0 3 3 18 75 0 6 6 7 91 0 7 7 26 7 76 
EIF[ ]\011/* EndIf */
NPUSHB[ ]\011/* 11 values pushed */
37 37 20 35 20 36 18 18 8 7 28 
CALL[ ]\011/* CallFunction */";
};
width = 738;
},
{
layerId = "A8DD961D-2AAA-4421-B000-699D061D5CAD";
paths = (
{
closed = 1;
nodes = (
"533 -11 OFFCURVE",
"647 93 OFFCURVE",
"655 239 CURVE SMOOTH",
"661 348 OFFCURVE",
"559 428 OFFCURVE",
"460 428 CURVE",
"642 668 LINE",
"648 706 LINE",
"633 706 OFFCURVE",
"621 711 OFFCURVE",
"596 720 CURVE SMOOTH",
"547 738 OFFCURVE",
"508 751 OFFCURVE",
"440 751 CURVE SMOOTH",
"231 751 OFFCURVE",
"126 593 OFFCURVE",
"101 368 CURVE SMOOTH",
"51 0 LINE",
"126 0 LINE",
"182 409 LINE SMOOTH",
"199 570 OFFCURVE",
"291 692 OFFCURVE",
"438 692 CURVE SMOOTH",
"486 692 OFFCURVE",
"527 679 OFFCURVE",
"556 660 CURVE",
"373 416 LINE",
"369 383 LINE",
"517 383 OFFCURVE",
"582 331 OFFCURVE",
"576 230 CURVE SMOOTH",
"570 124 OFFCURVE",
"486 49 OFFCURVE",
"397 49 CURVE SMOOTH",
"334 49 OFFCURVE",
"287 67 OFFCURVE",
"260 91 CURVE",
"220 31 LINE",
"261 4 OFFCURVE",
"303 -11 OFFCURVE",
"399 -11 CURVE SMOOTH"
);
}
);
userData = {
assembly = "NPUSHB[ ]\011/* 71 values pushed */
35 1 2 6 34 1 5 2 23 1 4 5 22 1 7 4 4 74 0 1 0 6 0 1 6 112 0 2 0 5 4 2 5 99 0 6 6 0 91 0 0 0 17 75 0 7 7 18 75 0 4 4 3 91 0 3 3 26 3 76 20 36 21 37 38 18 20 34 8 7 28 
CALL[ ]\011/* CallFunction */";
};
width = 701;
},
{
layerId = "FC25F90A-4039-49BA-9FA9-48428CE1BED8";
paths = (
{
closed = 1;
nodes = (
"573 -11 OFFCURVE",
"668 98 OFFCURVE",
"676 247 CURVE SMOOTH",
"682 350 OFFCURVE",
"584 435 OFFCURVE",
"495 435 CURVE",
"664 648 LINE",
"672 709 LINE",
"656 709 OFFCURVE",
"643 713 OFFCURVE",
"613 723 CURVE SMOOTH",
"562 740 OFFCURVE",
"519 752 OFFCURVE",
"451 752 CURVE SMOOTH",
"237 752 OFFCURVE",
"124.775 596.325 OFFCURVE",
"95.475 368 CURVE SMOOTH",
"44.475 0 LINE",
"153 0 LINE",
"211 415 LINE SMOOTH",
"230 553 OFFCURVE",
"307 657 OFFCURVE",
"434 657 CURVE SMOOTH",
"468 657 OFFCURVE",
"509 652 OFFCURVE",
"534 637 CURVE",
"364 411 LINE",
"360 372 LINE",
"507 371 OFFCURVE",
"567 324 OFFCURVE",
"562 235 CURVE SMOOTH",
"557 146 OFFCURVE",
"495 79 OFFCURVE",
"420 79 CURVE SMOOTH",
"370 79 OFFCURVE",
"318 99 OFFCURVE",
"297 121 CURVE",
"244.675 30.35 LINE",
"283.375 5.3 OFFCURVE",
"336 -11 OFFCURVE",
"423 -11 CURVE SMOOTH"
);
}
);
width = 731.95;
}
);
leftKerningGroup = Germandbls;
note = uni1E9E;
rightKerningGroup = Germandbls;
unicode = 1E9E;
},
{
color = 7;
glyphname = Schwa;
lastChange = "2019-03-23 04:09:43 +0000";
layers = (
{
anchors = (
{
name = bottom;
position = "{282, 0}";
},
{
name = top;
position = "{380, 747}";
}
);
background = {
anchors = (
{
name = bottom;
position = "{301, 0}";
},
{
name = center;
position = "{351, 374}";
},
{
name = ogonek;
position = "{446, 10}";
},
{
name = top;
position = "{406, 747}";
},
{
name = topleft;
position = "{79, 747}";
},
{
name = topright;
position = "{720, 747}";
}
);
paths = (
{
closed = 1;
nodes = (
"527 -8 OFFCURVE",
"663 208 OFFCURVE",
"663 462 CURVE SMOOTH",
"663 629 OFFCURVE",
"569 755 OFFCURVE",
"398 755 CURVE SMOOTH",
"168 755 OFFCURVE",
"29 537 OFFCURVE",
"29 282 CURVE SMOOTH",
"29 114 OFFCURVE",
"127 -8 OFFCURVE",
"299 -8 CURVE SMOOTH"
);
},
{
closed = 1;
nodes = (
"257 122 OFFCURVE",
"207 174 OFFCURVE",
"207 291 CURVE SMOOTH",
"207 429 OFFCURVE",
"267 625 OFFCURVE",
"379 625 CURVE SMOOTH",
"435 625 OFFCURVE",
"485 587 OFFCURVE",
"485 457 CURVE SMOOTH",
"485 314 OFFCURVE",
"427 122 OFFCURVE",
"312 122 CURVE SMOOTH"
);
}
);
};
layerId = "9808B12E-936F-4588-BC0B-2F1DE3B33DAD";
paths = (
{
closed = 1;
nodes = (
"529 -8 OFFCURVE",
"660 209 OFFCURVE",
"660 462 CURVE SMOOTH",
"660 629 OFFCURVE",
"558 755 OFFCURVE",
"355 755 CURVE SMOOTH",
"286 755 OFFCURVE",
"196 738 OFFCURVE",
"151 711 CURVE",
"146 562 LINE",
"193 592 OFFCURVE",
"261 625 OFFCURVE",
"339 625 CURVE SMOOTH",
"421 625 OFFCURVE",
"482 587 OFFCURVE",
"483 454 CURVE SMOOTH",
"485 216 OFFCURVE",
"400 122 OFFCURVE",
"312 122 CURVE SMOOTH",
"197 122 OFFCURVE",
"175 246 OFFCURVE",
"193 294 CURVE",
"510 294 LINE",
"529 415 LINE",
"50 415 LINE",
"39 367 OFFCURVE",
"35 322 OFFCURVE",
"36 281 CURVE SMOOTH",
"40 98 OFFCURVE",
"142 -8 OFFCURVE",
"299 -8 CURVE SMOOTH"
);
}
);
width = 671;
},
{
anchors = (
{
name = bottom;
position = "{260, 0}";
},
{
name = top;
position = "{358, 747}";
}
);
background = {
anchors = (
{
name = bottom;
position = "{295, 0}";
},
{
name = center;
position = "{345, 374}";
},
{
name = ogonek;
position = "{380, 10}";
},
{
name = top;
position = "{400, 747}";
},
{
name = topleft;
position = "{77, 747}";
},
{
name = topright;
position = "{710, 747}";
}
);
paths = (
{
closed = 1;
nodes = (
"500 -8 OFFCURVE",
"630 199 OFFCURVE",
"630 436 CURVE SMOOTH",
"630 606 OFFCURVE",
"555 755 OFFCURVE",
"392 755 CURVE SMOOTH",
"184 755 OFFCURVE",
"50 546 OFFCURVE",
"50 312 CURVE SMOOTH",
"50 136 OFFCURVE",
"130 -8 OFFCURVE",
"290 -8 CURVE SMOOTH"
);
},
{
closed = 1;
nodes = (
"189 48 OFFCURVE",
"126 141 OFFCURVE",
"126 322 CURVE SMOOTH",
"126 504 OFFCURVE",
"222 697 OFFCURVE",
"380 697 CURVE SMOOTH",
"496 697 OFFCURVE",
"553 603 OFFCURVE",
"553 422 CURVE SMOOTH",
"553 238 OFFCURVE",
"462 48 OFFCURVE",
"302 48 CURVE SMOOTH"
);
}
);
};
layerId = "A8DD961D-2AAA-4421-B000-699D061D5CAD";
paths = (
{
closed = 1;
nodes = (
"500 -8 OFFCURVE",
"626 199 OFFCURVE",
"626 436 CURVE SMOOTH",
"626 606 OFFCURVE",
"555 755 OFFCURVE",
"336 755 CURVE SMOOTH",
"262 755 OFFCURVE",
"188 739 OFFCURVE",
"150 722 CURVE",
"157 655 LINE",
"198 676 OFFCURVE",
"261 694 OFFCURVE",
"321 695 CURVE SMOOTH",
"496 697 OFFCURVE",
"549 603 OFFCURVE",
"549 422 CURVE SMOOTH",
"549 238 OFFCURVE",
"463 48 OFFCURVE",
"302 48 CURVE SMOOTH",
"185 48 OFFCURVE",
"107 156 OFFCURVE",
"129 338 CURVE",
"562 338 LINE",
"569 397 LINE",
"69 397 LINE",
"66 385 OFFCURVE",
"54 353 OFFCURVE",
"54 296 CURVE SMOOTH",
"54 136 OFFCURVE",
"129 -8 OFFCURVE",
"290 -8 CURVE SMOOTH"
);
}
);
width = 656;
},
{
anchors = (
{
name = bottom;
position = "{258, 0}";
},
{
name = top;
position = "{356, 748}";
}
);
background = {
anchors = (
{
name = bottom;
position = "{298, 0}";
},
{
name = center;
position = "{348, 374}";
},
{
name = ogonek;
position = "{404, 10}";
},
{
name = top;
position = "{400, 748}";
},
{
name = topleft;
position = "{79, 748}";
},
{
name = topright;
position = "{713, 748}";
}
);
paths = (
{
closed = 1;
nodes = (
"507 -8 OFFCURVE",
"639 200 OFFCURVE",
"639 442 CURVE SMOOTH",
"639 611 OFFCURVE",
"560 755 OFFCURVE",
"395 755 CURVE SMOOTH",
"181 755 OFFCURVE",
"46 545 OFFCURVE",
"46 305 CURVE SMOOTH",
"46 133 OFFCURVE",
"128 -8 OFFCURVE",
"291 -8 CURVE SMOOTH"
);
},
{
closed = 1;
nodes = (
"208 75 OFFCURVE",
"162 148 OFFCURVE",
"159 313 CURVE SMOOTH",
"157 479 OFFCURVE",
"238 670 OFFCURVE",
"379 670 CURVE SMOOTH",
"482 670 OFFCURVE",
"524 591 OFFCURVE",
"526 434 CURVE SMOOTH",
"528 265 OFFCURVE",
"449 75 OFFCURVE",
"306 75 CURVE SMOOTH"
);
}
);
};
layerId = "FC25F90A-4039-49BA-9FA9-48428CE1BED8";
paths = (
{
closed = 1;
nodes = (
"513 -8 OFFCURVE",
"636 200 OFFCURVE",
"636 442 CURVE SMOOTH",
"636 611 OFFCURVE",
"560 755 OFFCURVE",
"356 755 CURVE SMOOTH",
"287 755 OFFCURVE",
"234 746 OFFCURVE",
"146 720 CURVE",
"151 617 LINE",
"185 638 OFFCURVE",
"261 662 OFFCURVE",
"343 662 CURVE SMOOTH",
"477 662 OFFCURVE",
"521 591 OFFCURVE",
"523 434 CURVE SMOOTH",
"525 265 OFFCURVE",
"452 75 OFFCURVE",
"309 75 CURVE SMOOTH",
"217 75 OFFCURVE",
"163 148 OFFCURVE",
"160 303 CURVE",
"526 303 LINE",
"539 387 LINE",
"61 387 LINE",
"58 373 OFFCURVE",
"49 338 OFFCURVE",
"49 305 CURVE SMOOTH",
"49 133 OFFCURVE",
"134 -8 OFFCURVE",
"291 -8 CURVE SMOOTH"
);
}
);
width = 664;
}
);
leftKerningGroup = O;
leftMetricsKey = O;
rightKerningGroup = O;
rightMetricsKey = O;
unicode = 018F;
},
{
color = 7;
glyphname = T;
lastChange = "2019-03-27 19:53:19 +0000";
layers = (
{
anchors = (
{
name = bottom;
position = "{245, 0}";
},
{
name = center;
position = "{295, 374}";
},
{
name = top;
position = "{344, 747}";
}
);
layerId = "9808B12E-936F-4588-BC0B-2F1DE3B33DAD";
paths = (
{
closed = 1;
nodes = (
"329 0 LINE",
"417 618 LINE",
"589 613 LINE",
"609 747 LINE",
"88 747 LINE",
"66 613 LINE",
"242 618 LINE",
"153 0 LINE"
);
}
);
userData = {
assembly = "NPUSHB[ ]\011/* 30 values pushed */
4 3 2 1 1 0 89 0 0 0 17 75 0 2 2 18 2 76 0 0 0 7 0 7 17 17 17 5 7 23 
CALL[ ]\011/* CallFunction */";
};
width = 563;
},
{
anchors = (
{
name = bottom;
position = "{237, 0}";
},
{
name = center;
position = "{287, 374}";
},
{
name = top;
position = "{336, 747}";
}
);
layerId = "A8DD961D-2AAA-4421-B000-699D061D5CAD";
paths = (
{
closed = 1;
nodes = (
"273 0 LINE",
"361 693 LINE",
"577 688 LINE",
"585 747 LINE",
"76 747 LINE",
"67 688 LINE",
"288 693 LINE",
"200 0 LINE"
);
}
);
userData = {
assembly = "NPUSHB[ ]\011/* 30 values pushed */
4 3 2 1 1 0 89 0 0 0 17 75 0 2 2 18 2 76 0 0 0 7 0 7 17 17 17 5 7 23 
CALL[ ]\011/* CallFunction */";
};
width = 548;
},
{
anchors = (
{
name = bottom;
position = "{238.3, 0}";
},
{
name = center;
position = "{288.3, 374.325}";
},
{
name = top;
position = "{337.3, 747.975}";
}
);
layerId = "FC25F90A-4039-49BA-9FA9-48428CE1BED8";
paths = (
{
closed = 1;
nodes = (
"290.475 0 LINE",
"376.125 666.575 LINE",
"575.925 660.9 LINE",
"587.225 747 LINE",
"76.275 747 LINE",
"63.65 660.9 LINE",
"266.45 666.575 LINE",
"180.8 0 LINE"
);
}
);
width = 550.6;
}
);
leftKerningGroup = T;
note = T;
rightKerningGroup = T;
unicode = 0054;
},
{
glyphname = Tbar;
lastChange = "2019-02-18 20:31:10 +0000";
layers = (
{
layerId = "9808B12E-936F-4588-BC0B-2F1DE3B33DAD";
paths = (
{
closed = 1;
nodes = (
"335 0 LINE",
"379 310 LINE",
"501 310 LINE",
"517 433 LINE",
"397 433 LINE",
"423 618 LINE",
"595 613 LINE",
"615 747 LINE",
"94 747 LINE",
"72 613 LINE",
"248 618 LINE",
"221 433 LINE",
"106 433 LINE",
"92 310 LINE",
"204 310 LINE",
"159 0 LINE"
);
}
);
userData = {
assembly = "NPUSHB[ ]\011/* 44 values pushed */
4 1 0 3 1 1 2 0 1 97 8 7 2 5 5 6 89 0 6 6 17 75 0 2 2 18 2 76 0 0 0 15 0 15 17 17 17 17 17 17 17 9 7 27 
CALL[ ]\011/* CallFunction */";
};
width = 569;
},
{
layerId = "A8DD961D-2AAA-4421-B000-699D061D5CAD";
paths = (
{
closed = 1;
nodes = (
"273 0 LINE",
"318 358 LINE",
"469 358 LINE",
"476 407 LINE",
"325 407 LINE",
"361 693 LINE",
"577 688 LINE",
"585 747 LINE",
"76 747 LINE",
"67 688 LINE",
"288 693 LINE",
"251 407 LINE",
"113 407 LINE",
"107 358 LINE",
"245 358 LINE",
"200 0 LINE"
);
}
);
userData = {
assembly = "NPUSHB[ ]\011/* 44 values pushed */
4 1 0 3 1 1 2 0 1 97 8 7 2 5 5 6 89 0 6 6 17 75 0 2 2 18 2 76 0 0 0 15 0 15 17 17 17 17 17 17 17 9 7 27 
CALL[ ]\011/* CallFunction */";
};
width = 548;
},
{
layerId = "FC25F90A-4039-49BA-9FA9-48428CE1BED8";
paths = (
{
closed = 1;
nodes = (
"291.45 0 LINE",
"335.775 346.175 LINE",
"466.825 346.175 LINE",
"475.8 418.6 LINE",
"345.075 418.6 LINE",
"377.1 666.575 LINE",
"576.575 660.9 LINE",
"588.2 747 LINE",
"77.25 747 LINE",
"64.625 660.9 LINE",
"267.425 666.575 LINE",
"236.075 418.6 LINE",
"107 418.6 LINE",
"98.025 346.175 LINE",
"225.775 346.175 LINE",
"181.775 0 LINE"
);
}
);
width = 551.575;
}
);
leftKerningGroup = T;
note = Tbar;
rightKerningGroup = T;
unicode = 0166;
},
{
color = 7;
glyphname = U;
lastChange = "2019-03-27 17:18:46 +0000";
layers = (
{
anchors = (
{
name = bottom;
position = "{315, 0}";
},
{
name = ogonek;
position = "{434, 0}";
},
{
name = top;
position = "{414, 747}";
},
{
name = topright;
position = "{745, 747}";
}
);
layerId = "9808B12E-936F-4588-BC0B-2F1DE3B33DAD";
paths = (
{
closed = 1;
nodes = (
"443 -8 OFFCURVE",
"532 30 OFFCURVE",
"585 118 CURVE SMOOTH",
"611 161 OFFCURVE",
"629 219 OFFCURVE",
"639 292 CURVE SMOOTH",
"703 747 LINE",
"531 747 LINE",
"469 310 LINE SMOOTH",
"453 208 OFFCURVE",
"415 125 OFFCURVE",
"330 125 CURVE SMOOTH",
"258 125 OFFCURVE",
"230 150 OFFCURVE",
"230 222 CURVE SMOOTH",
"230 258 OFFCURVE",
"235 287 OFFCURVE",
"238 313 CURVE SMOOTH",
"300 747 LINE",
"127 747 LINE",
"63 292 LINE SMOOTH",
"58 261 OFFCURVE",
"56 234 OFFCURVE",
"56 211 CURVE SMOOTH",
"57 72 OFFCURVE",
"138 -8 OFFCURVE",
"303 -8 CURVE SMOOTH"
);
}
);
userData = {
assembly = "NPUSHB[ ]\011/* 24 values pushed */
2 1 0 0 17 75 0 1 1 3 92 0 3 3 26 3 76 36 20 38 16 4 7 24 
CALL[ ]\011/* CallFunction */";
};
width = 703;
},
{
anchors = (
{
name = bottom;
position = "{295, 0}";
},
{
name = ogonek;
position = "{368, 0}";
},
{
name = top;
position = "{384, 747}";
},
{
name = topright;
position = "{706, 747}";
}
);
layerId = "A8DD961D-2AAA-4421-B000-699D061D5CAD";
paths = (
{
closed = 1;
nodes = (
"409 -8 OFFCURVE",
"487 31 OFFCURVE",
"536 123 CURVE SMOOTH",
"560 169 OFFCURVE",
"577 230 OFFCURVE",
"587 306 CURVE SMOOTH",
"643 747 LINE",
"571 747 LINE",
"516 313 LINE SMOOTH",
"496 153 OFFCURVE",
"444 52 OFFCURVE",
"304 52 CURVE SMOOTH",
"201 52 OFFCURVE",
"150 112 OFFCURVE",
"150 217 CURVE SMOOTH",
"150 242 OFFCURVE",
"152 271 OFFCURVE",
"156 302 CURVE SMOOTH",
"212 747 LINE",
"139 747 LINE",
"81 290 LINE SMOOTH",
"77 254 OFFCURVE",
"75 228 OFFCURVE",
"75 212 CURVE SMOOTH",
"75 71 OFFCURVE",
"151 -8 OFFCURVE",
"294 -8 CURVE SMOOTH"
);
}
);
userData = {
assembly = "NPUSHB[ ]\011/* 24 values pushed */
2 1 0 0 17 75 0 1 1 3 91 0 3 3 26 3 76 36 20 37 16 4 7 24 
CALL[ ]\011/* CallFunction */";
};
width = 664;
},
{
anchors = (
{
name = bottom;
position = "{299.25, 0}";
},
{
name = ogonek;
position = "{387.5, 0}";
},
{
name = top;
position = "{393, 748}";
},
{
name = topright;
position = "{714.175, 747.975}";
}
);
layerId = "FC25F90A-4039-49BA-9FA9-48428CE1BED8";
paths = (
{
closed = 1;
nodes = (
"413.175 -8 OFFCURVE",
"494.825 31 OFFCURVE",
"545.475 122.35 CURVE SMOOTH",
"570.8 168.025 OFFCURVE",
"588.125 228.375 OFFCURVE",
"598.125 303.725 CURVE SMOOTH",
"655.1 747 LINE",
"547.75 747 LINE",
"492.45 313.35 LINE SMOOTH",
"471.075 156.325 OFFCURVE",
"419.225 79.775 OFFCURVE",
"311.575 79.775 CURVE SMOOTH",
"225.825 79.775 OFFCURVE",
"180.725 124.9 OFFCURVE",
"180.4 218.7 CURVE SMOOTH",
"180.4 242.275 OFFCURVE",
"182.4 272.25 OFFCURVE",
"186.4 307.975 CURVE SMOOTH",
"243.05 747 LINE",
"133.7 747 LINE",
"75.4 290.325 LINE SMOOTH",
"70.725 248.55 OFFCURVE",
"68.725 228.625 OFFCURVE",
"68.725 213.65 CURVE SMOOTH",
"68.725 74 OFFCURVE",
"146.725 -8 OFFCURVE",
"295.625 -8 CURVE SMOOTH"
);
}
);
width = 672.175;
}
);
leftKerningGroup = U;
note = U;
rightKerningGroup = U;
unicode = 0055;
},
{
color = 7;
glyphname = V;
lastChange = "2019-03-28 02:00:19 +0000";
layers = (
{
anchors = (
{
name = bottom;
position = "{264, 0}";
},
{
name = top;
position = "{363, 747}";
}
);
layerId = "9808B12E-936F-4588-BC0B-2F1DE3B33DAD";
paths = (
{
closed = 1;
nodes = (
"361 0 LINE",
"684 747 LINE",
"500 747 LINE",
"327 269 LINE",
"289 141 LINE",
"281 269 LINE",
"223 747 LINE",
"50 747 LINE",
"160 0 LINE"
);
}
);
userData = {
assembly = "NPUSHB[ ]\011/* 31 values pushed */
2 1 2 1 0 1 74 3 2 2 0 0 17 75 0 1 1 18 1 76 0 0 0 8 0 8 17 20 4 7 22 
CALL[ ]\011/* CallFunction */";
};
width = 602;
},
{
anchors = (
{
name = bottom;
position = "{249, 0}";
},
{
name = top;
position = "{348, 747}";
}
);
layerId = "A8DD961D-2AAA-4421-B000-699D061D5CAD";
paths = (
{
closed = 1;
nodes = (
"278 -2 LINE",
"617 747 LINE",
"539 747 LINE",
"306 212 LINE",
"250 74 LINE",
"230 212 LINE",
"148 747 LINE",
"75 747 LINE",
"199 -2 LINE"
);
}
);
userData = {
assembly = "NPUSHB[ ]\011/* 30 values pushed */
2 1 1 0 1 74 3 2 2 0 0 17 75 0 1 1 18 1 76 0 0 0 8 0 8 17 20 4 7 22 
CALL[ ]\011/* CallFunction */";
};
width = 571;
},
{
anchors = (
{
name = bottom;
position = "{251.275, 0}";
},
{
name = top;
position = "{350.275, 747.975}";
}
);
layerId = "FC25F90A-4039-49BA-9FA9-48428CE1BED8";
paths = (
{
closed = 1;
nodes = (
"300.025 0 LINE",
"637.1 747 LINE",
"521.1 747 LINE",
"298.525 218.75 LINE",
"257.175 107.5 LINE",
"245.825 218.75 LINE",
"169.4 747 LINE",
"61.05 747 LINE",
"181.775 0 LINE"
);
}
);
width = 575.875;
}
);
leftKerningGroup = V;
note = V;
rightKerningGroup = V;
unicode = 0056;
},
{
color = 7;
glyphname = W;
lastChange = "2019-03-28 02:00:14 +0000";
layers = (
{
anchors = (
{
name = bottom;
position = "{403, 0}";
},
{
name = top;
position = "{502, 747}";
}
);
layerId = "9808B12E-936F-4588-BC0B-2F1DE3B33DAD";
paths = (
{
closed = 1;
nodes = (
"321 0 LINE",
"418 267 LINE",
"448 349 LINE",
"457 267 LINE",
"485 0 LINE",
"687 0 LINE",
"977 747 LINE",
"799 747 LINE",
"636 269 LINE",
"610 160 LINE",
"599 269 LINE",
"570 747 LINE",
"401 747 LINE",
"419 582 LINE",
"293 269 LINE",
"260 160 LINE",
"250 269 LINE",
"222 747 LINE",
"47 747 LINE",
"138 0 LINE"
);
}
);
userData = {
assembly = "NPUSHB[ ]\011/* 38 values pushed */
17 16 11 10 4 5 0 2 1 74 5 4 3 3 2 2 17 75 1 1 0 0 18 0 76 0 0 0 19 0 19 21 17 20 17 6 7 24 
CALL[ ]\011/* CallFunction */";
};
width = 880;
},
{
anchors = (
{
name = bottom;
position = "{395, 0}";
},
{
name = top;
position = "{494, 747}";
}
);
layerId = "A8DD961D-2AAA-4421-B000-699D061D5CAD";
paths = (
{
closed = 1;
nodes = (
"261 -5 LINE",
"427 415 LINE",
"468 530 LINE",
"477 415 LINE",
"521 -5 LINE",
"596 -5 LINE",
"912 747 LINE",
"837 747 LINE",
"621 208 LINE",
"573 81 LINE",
"563 212 LINE",
"510 747 LINE",
"439 747 LINE",
"451 637 LINE",
"279 208 LINE",
"237 81 LINE",
"217 212 LINE",
"146 747 LINE",
"73 747 LINE",
"186 -5 LINE"
);
}
);
userData = {
assembly = "NPUSHB[ ]\011/* 36 values pushed */
17 11 4 3 0 2 1 74 5 4 3 3 2 2 17 75 1 1 0 0 18 0 76 0 0 0 19 0 19 21 17 20 17 6 7 24 
CALL[ ]\011/* CallFunction */";
};
width = 864;
},
{
anchors = (
{
name = bottom;
position = "{397.3, 0}";
},
{
name = top;
position = "{496.3, 747.975}";
}
);
layerId = "FC25F90A-4039-49BA-9FA9-48428CE1BED8";
paths = (
{
closed = 1;
nodes = (
"281.8 -4.025 LINE",
"433.075 390.95 LINE",
"460.725 474.975 LINE",
"467.05 390.95 LINE",
"510.8 -4.025 LINE",
"626.7 -4.025 LINE",
"931.1 747 LINE",
"820.1 747 LINE",
"623.275 221.425 LINE",
"588.55 115.775 LINE",
"580.575 222.1 LINE",
"528.8 747 LINE",
"423.775 747 LINE",
"436.075 631.25 LINE",
"275.575 221.425 LINE",
"244.925 115.775 LINE",
"230.9 222.1 LINE",
"168.4 747 LINE",
"59.725 747 LINE",
"168.825 -4.025 LINE"
);
}
);
width = 868.275;
}
);
leftKerningGroup = W;
note = W;
rightKerningGroup = W;
unicode = 0057;
},
{
color = 7;
glyphname = X;
lastChange = "2019-02-18 20:31:10 +0000";
layers = (
{
anchors = (
{
name = bottom;
position = "{267, 0}";
},
{
name = top;
position = "{366, 747}";
}
);
layerId = "9808B12E-936F-4588-BC0B-2F1DE3B33DAD";
paths = (
{
closed = 1;
nodes = (
"145 0 LINE",
"302 259 LINE",
"400 0 LINE",
"589 0 LINE",
"419 359 LINE",
"685 747 LINE",
"497 747 LINE",
"342 506 LINE",
"255 747 LINE",
"70 747 LINE",
"227 395 LINE",
"-48 0 LINE"
);
}
);
userData = {
assembly = "NPUSHB[ ]\011/* 29 values pushed */
11 8 5 2 4 2 0 1 74 1 1 0 0 17 75 3 1 2 2 18 2 76 18 18 18 16 4 7 24 
CALL[ ]\011/* CallFunction */";
};
width = 607;
},
{
anchors = (
{
name = bottom;
position = "{243, 0}";
},
{
name = top;
position = "{342, 747}";
}
);
layerId = "A8DD961D-2AAA-4421-B000-699D061D5CAD";
paths = (
{
closed = 1;
nodes = (
"72 0 LINE",
"282 320 LINE",
"416 0 LINE",
"500 0 LINE",
"330 370 LINE",
"592 747 LINE",
"509 747 LINE",
"302 437 LINE",
"177 747 LINE",
"96 747 LINE",
"254 385 LINE",
"-17 0 LINE"
);
}
);
userData = {
assembly = "NPUSHB[ ]\011/* 29 values pushed */
11 8 5 2 4 2 0 1 74 1 1 0 0 17 75 3 1 2 2 18 2 76 18 18 18 16 4 7 24 
CALL[ ]\011/* CallFunction */";
};
width = 560;
},
{
anchors = (
{
name = bottom;
position = "{249.25, 0}";
},
{
name = top;
position = "{348.25, 747.975}";
}
);
layerId = "FC25F90A-4039-49BA-9FA9-48428CE1BED8";
paths = (
{
closed = 1;
nodes = (
"97.425 0 LINE",
"284.575 295.85 LINE",
"401.675 0 LINE",
"525.35 0 LINE",
"356.35 366.375 LINE",
"619 747 LINE",
"497 747 LINE",
"312.525 463.45 LINE",
"204.75 747 LINE",
"85.075 747 LINE",
"241.075 388.3 LINE",
"-32.25 0 LINE"
);
}
);
width = 571.825;
}
);
leftKerningGroup = X;
note = X;
rightKerningGroup = X;
unicode = 0058;
},
{
color = 7;
glyphname = Y;
lastChange = "2019-03-28 02:00:06 +0000";
layers = (
{
anchors = (
{
name = bottom;
position = "{247, 0}";
},
{
name = top;
position = "{346, 747}";
},
{
name = topleft;
position = "{82, 747}";
}
);
layerId = "9808B12E-936F-4588-BC0B-2F1DE3B33DAD";
paths = (
{
closed = 1;
nodes = (
"328 0 LINE",
"369 288 LINE",
"662 747 LINE",
"470 747 LINE",
"332 491 LINE",
"303 425 LINE",
"291 491 LINE",
"222 747 LINE",
"41 747 LINE",
"196 288 LINE",
"155 0 LINE"
);
}
);
userData = {
assembly = "NPUSHB[ ]\011/* 25 values pushed */
10 3 2 2 0 1 74 1 1 0 0 17 75 0 2 2 18 2 76 18 20 16 3 7 23 
CALL[ ]\011/* CallFunction */";
};
width = 568;
},
{
anchors = (
{
name = bottom;
position = "{228, 0}";
},
{
name = top;
position = "{327, 747}";
},
{
name = topleft;
position = "{82, 747}";
}
);
layerId = "A8DD961D-2AAA-4421-B000-699D061D5CAD";
paths = (
{
closed = 1;
nodes = (
"267 0 LINE",
"303 286 LINE",
"592 747 LINE",
"513 747 LINE",
"304 400 LINE",
"277 350 LINE",
"257 400 LINE",
"130 747 LINE",
"51 747 LINE",
"233 286 LINE",
"196 0 LINE"
);
}
);
userData = {
assembly = "NPUSHB[ ]\011/* 25 values pushed */
10 3 2 2 0 1 74 1 1 0 0 17 75 0 2 2 18 2 76 18 20 16 3 7 23 
CALL[ ]\011/* CallFunction */";
};
width = 529;
},
{
anchors = (
{
name = bottom;
position = "{231.25, 0}";
},
{
name = top;
position = "{330.25, 747.975}";
},
{
name = topleft;
position = "{82, 747.975}";
}
);
layerId = "FC25F90A-4039-49BA-9FA9-48428CE1BED8";
paths = (
{
closed = 1;
nodes = (
"285.45 0 LINE",
"323.1 288 LINE",
"613.425 747 LINE",
"495.125 747 LINE",
"304.2 422.325 LINE",
"284.575 380.775 LINE",
"269.225 422.325 LINE",
"156.675 747 LINE",
"41 747 LINE",
"218.45 288 LINE",
"180.8 0 LINE"
);
}
);
width = 535.5;
}
);
leftKerningGroup = Y;
note = Y;
rightKerningGroup = Y;
unicode = 0059;
},
{
color = 7;
glyphname = Z;
lastChange = "2019-03-27 20:31:40 +0000";
layers = (
{
anchors = (
{
name = bottom;
position = "{246, 0}";
},
{
name = center;
position = "{296, 374}";
},
{
name = top;
position = "{373, 747}";
}
);
layerId = "9808B12E-936F-4588-BC0B-2F1DE3B33DAD";
paths = (
{
closed = 1;
nodes = (
"489 0 LINE",
"512 143 LINE",
"210 138 LINE",
"251 174 LINE",
"614 705 LINE",
"603 747 LINE",
"126 747 LINE",
"104 608 LINE",
"390 613 LINE",
"345 580 LINE",
"-33 43 LINE",
"-20 0 LINE"
);
}
);
userData = {
assembly = "NPUSHB[ ]\011/* 28 values pushed */
0 0 0 1 89 0 1 1 17 75 0 2 2 3 89 0 3 3 18 3 76 17 19 17 17 4 7 24 
CALL[ ]\011/* CallFunction */";
};
width = 565;
},
{
anchors = (
{
name = bottom;
position = "{246, 0}";
},
{
name = center;
position = "{296, 374}";
},
{
name = top;
position = "{365, 747}";
}
);
layerId = "A8DD961D-2AAA-4421-B000-699D061D5CAD";
paths = (
{
closed = 1;
nodes = (
"491 0 LINE",
"501 63 LINE",
"105 59 LINE",
"166 131 LINE",
"577 715 LINE",
"568 747 LINE",
"127 747 LINE",
"119 685 LINE",
"482 690 LINE",
"409 599 LINE",
"7 34 LINE",
"18 0 LINE"
);
}
);
userData = {
assembly = "NPUSHB[ ]\011/* 28 values pushed */
0 0 0 1 89 0 1 1 17 75 0 2 2 3 89 0 3 3 18 3 76 17 19 17 17 4 7 24 
CALL[ ]\011/* CallFunction */";
};
width = 565;
},
{
anchors = (
{
name = bottom;
position = "{246, 0}";
},
{
name = center;
position = "{296, 374.325}";
},
{
name = top;
position = "{356.3, 747.975}";
}
);
layerId = "FC25F90A-4039-49BA-9FA9-48428CE1BED8";
paths = (
{
closed = 1;
nodes = (
"490 0 LINE",
"504.625 92.75 LINE",
"148.025 86.75 LINE",
"205.775 152.225 LINE",
"583.85 705 LINE",
"571.175 747 LINE",
"126.675 747 LINE",
"114.05 655.9 LINE",
"442.925 662.575 LINE",
"380.85 591.725 LINE",
"0.5 43 LINE",
"14.175 0 LINE"
);
}
);
width = 565;
}
);
leftKerningGroup = Z;
note = Z;
rightKerningGroup = Z;
unicode = 005A;
},
{
glyphname = a;
lastChange = "2019-03-28 02:02:31 +0000";
layers = (
{
anchors = (
{
name = bottom;
position = "{273, 0}";
},
{
name = ogonek;
position = "{517, 10}";
},
{
name = top;
position = "{377, 557}";
}
);
layerId = "9808B12E-936F-4588-BC0B-2F1DE3B33DAD";
paths = (
{
closed = 1;
nodes = (
"271 -8 OFFCURVE",
"327 49 OFFCURVE",
"359 121 CURVE",
"354 0 LINE",
"510 0 LINE",
"588 564 LINE",
"499 542 LINE",
"464 554 OFFCURVE",
"416 564 OFFCURVE",
"377 564 CURVE SMOOTH",
"172 564 OFFCURVE",
"34 406 OFFCURVE",
"34 201 CURVE SMOOTH",
"34 77 OFFCURVE",
"83 -8 OFFCURVE",
"198 -8 CURVE SMOOTH"
);
},
{
closed = 1;
nodes = (
"230 109 OFFCURVE",
"216 143 OFFCURVE",
"216 211 CURVE SMOOTH",
"216 294 OFFCURVE",
"239 377 OFFCURVE",
"284 426 CURVE SMOOTH",
"306 450 OFFCURVE",
"333 462 OFFCURVE",
"365 462 CURVE SMOOTH",
"380 462 OFFCURVE",
"393 461 OFFCURVE",
"402 459 CURVE",
"379 296 LINE",
"362 235 OFFCURVE",
"308 109 OFFCURVE",
"259 109 CURVE SMOOTH"
);
}
);
userData = {
assembly = "NPUSHB[ ]\011/* 11 values pushed */
16 1 3 2 21 3 2 4 3 2 74 
MPPEM[ ]\011/* MeasurePixelPerEm */
PUSHB[ ]\011/* 1 value pushed */
31 
LT[ ]\011/* LessThan */
IF[ ]\011/* If */
NPUSHB[ ]\011/* 23 values pushed */
0 3 3 2 91 0 2 2 28 75 5 1 4 4 0 91 1 1 0 0 18 0 76 
ELSE[ ]\011/* Else */
NPUSHB[ ]\011/* 27 values pushed */
0 3 3 2 91 0 2 2 28 75 0 0 0 18 75 5 1 4 4 1 91 0 1 1 26 1 76 
EIF[ ]\011/* EndIf */
NPUSHB[ ]\011/* 13 values pushed */
17 17 17 29 17 28 40 37 35 17 6 7 24 
CALL[ ]\011/* CallFunction */";
};
width = 612;
},
{
anchors = (
{
name = bottom;
position = "{209, 0}";
},
{
name = ogonek;
position = "{462, 10}";
},
{
name = top;
position = "{342, 557}";
}
);
layerId = "A8DD961D-2AAA-4421-B000-699D061D5CAD";
paths = (
{
closed = 1;
nodes = (
"268 -8 OFFCURVE",
"336 41 OFFCURVE",
"377 99 CURVE",
"368 0 LINE",
"432 0 LINE",
"508 564 LINE",
"453 547 LINE",
"420 558 OFFCURVE",
"380 564 OFFCURVE",
"349 564 CURVE SMOOTH",
"162 564 OFFCURVE",
"40 396 OFFCURVE",
"40 203 CURVE SMOOTH",
"40 72 OFFCURVE",
"92 -8 OFFCURVE",
"195 -8 CURVE SMOOTH"
);
},
{
closed = 1;
nodes = (
"147 49 OFFCURVE",
"115 103 OFFCURVE",
"115 211 CURVE SMOOTH",
"115 304 OFFCURVE",
"150 405 OFFCURVE",
"217 466 CURVE SMOOTH",
"250 496 OFFCURVE",
"290 511 OFFCURVE",
"337 511 CURVE SMOOTH",
"368 511 OFFCURVE",
"402 504 OFFCURVE",
"427 492 CURVE",
"386 182 LINE",
"349 118 OFFCURVE",
"282 49 OFFCURVE",
"207 49 CURVE SMOOTH"
);
}
);
userData = {
assembly = "NPUSHB[ ]\011/* 11 values pushed */
17 1 3 2 23 3 2 4 3 2 74 
MPPEM[ ]\011/* MeasurePixelPerEm */
PUSHB[ ]\011/* 1 value pushed */
31 
LT[ ]\011/* LessThan */
IF[ ]\011/* If */
NPUSHB[ ]\011/* 23 values pushed */
0 3 3 2 91 0 2 2 28 75 5 1 4 4 0 91 1 1 0 0 18 0 76 
ELSE[ ]\011/* Else */
NPUSHB[ ]\011/* 27 values pushed */
0 3 3 2 91 0 2 2 28 75 0 0 0 18 75 5 1 4 4 1 91 0 1 1 26 1 76 
EIF[ ]\011/* EndIf */
NPUSHB[ ]\011/* 13 values pushed */
18 18 18 33 18 32 42 37 36 17 6 7 24 
CALL[ ]\011/* CallFunction */";
};
width = 552;
},
{
anchors = (
{
name = bottom;
position = "{247.875, 0}";
},
{
name = ogonek;
position = "{469.85, 10}";
},
{
name = top;
position = "{349.175, 557}";
}
);
layerId = "FC25F90A-4039-49BA-9FA9-48428CE1BED8";
paths = (
{
closed = 1;
nodes = (
"263.625 -8 OFFCURVE",
"323.65 38.275 OFFCURVE",
"363.35 97.225 CURVE",
"355.675 0 LINE",
"451.375 0 LINE",
"528.7 564 LINE",
"467.175 547.025 LINE",
"433.525 556.675 OFFCURVE",
"388.525 564 OFFCURVE",
"355.225 564 CURVE SMOOTH",
"163.625 564 OFFCURVE",
"39.025 399.3 OFFCURVE",
"39.025 202.675 CURVE SMOOTH",
"39.025 71.975 OFFCURVE",
"89.7 -8 OFFCURVE",
"192.3 -8 CURVE SMOOTH"
);
},
{
closed = 1;
nodes = (
"163.7 73.15 OFFCURVE",
"150.675 144.25 OFFCURVE",
"150.675 214.35 CURVE SMOOTH",
"150.675 298.35 OFFCURVE",
"178.025 389.725 OFFCURVE",
"235.425 447.1 CURVE SMOOTH",
"264.125 475.45 OFFCURVE",
"299.5 489.8 OFFCURVE",
"340.875 489.8 CURVE SMOOTH",
"365.25 489.8 OFFCURVE",
"388.3 486.45 OFFCURVE",
"410.375 478.75 CURVE",
"371.3 203.925 LINE",
"333.575 135.35 OFFCURVE",
"279.575 73.15 OFFCURVE",
"216.45 73.15 CURVE SMOOTH"
);
}
);
width = 568.75;
}
);
leftKerningGroup = a;
note = a;
rightKerningGroup = n;
unicode = 0061;
},
{
glyphname = ae;
lastChange = "2019-03-27 02:46:03 +0000";
layers = (
{
anchors = (
{
name = bottom;
position = "{366, 0}";
},
{
name = top;
position = "{521, 557}";
}
);
layerId = "9808B12E-936F-4588-BC0B-2F1DE3B33DAD";
paths = (
{
closed = 1;
nodes = (
"266 -8 OFFCURVE",
"319 59 OFFCURVE",
"356 144 CURVE",
"379 53 OFFCURVE",
"446 -8 OFFCURVE",
"558 -8 CURVE SMOOTH",
"650 -8 OFFCURVE",
"754 38 OFFCURVE",
"804 106 CURVE",
"759 190 LINE",
"732 154 OFFCURVE",
"657 110 OFFCURVE",
"601 110 CURVE SMOOTH",
"548 110 OFFCURVE",
"531 135 OFFCURVE",
"531 187 CURVE",
"698 230 OFFCURVE",
"827 293 OFFCURVE",
"827 436 CURVE SMOOTH",
"827 517 OFFCURVE",
"773 564 OFFCURVE",
"661 564 CURVE SMOOTH",
"610 564 OFFCURVE",
"563 553 OFFCURVE",
"520 532 CURVE",
"488 551 OFFCURVE",
"440 564 OFFCURVE",
"391 564 CURVE SMOOTH",
"196 564 OFFCURVE",
"30 413 OFFCURVE",
"30 201 CURVE SMOOTH",
"30 76 OFFCURVE",
"74 -8 OFFCURVE",
"189 -8 CURVE SMOOTH"
);
},
{
closed = 1;
nodes = (
"217 120 OFFCURVE",
"203 158 OFFCURVE",
"203 201 CURVE SMOOTH",
"203 322 OFFCURVE",
"261 462 OFFCURVE",
"379 462 CURVE SMOOTH",
"395 462 OFFCURVE",
"410 460 OFFCURVE",
"425 456 CURVE",
"386 409 OFFCURVE",
"361 351 OFFCURVE",
"351 282 CURVE",
"339 221 OFFCURVE",
"289 120 OFFCURVE",
"250 120 CURVE SMOOTH"
);
},
{
closed = 1;
nodes = (
"529 312 OFFCURVE",
"541 377 OFFCURVE",
"566 422 CURVE SMOOTH",
"580 448 OFFCURVE",
"604 469 OFFCURVE",
"625 469 CURVE SMOOTH",
"652 469 OFFCURVE",
"662 454 OFFCURVE",
"662 419 CURVE SMOOTH",
"662 347 OFFCURVE",
"590 278 OFFCURVE",
"528 274 CURVE"
);
}
);
userData = {
assembly = "MPPEM[ ]\011/* MeasurePixelPerEm */
PUSHB[ ]\011/* 1 value pushed */
26 
LT[ ]\011/* LessThan */
IF[ ]\011/* If */
NPUSHB[ ]\011/* 20 values pushed */
24 1 6 2 49 1 5 6 33 11 3 3 4 5 4 1 0 4 4 74 
ELSE[ ]\011/* Else */
MPPEM[ ]\011/* MeasurePixelPerEm */
PUSHB[ ]\011/* 1 value pushed */
35 
LT[ ]\011/* LessThan */
IF[ ]\011/* If */
NPUSHB[ ]\011/* 20 values pushed */
24 1 6 2 49 1 5 6 33 11 3 3 8 5 4 1 0 4 4 74 
ELSE[ ]\011/* Else */
NPUSHB[ ]\011/* 20 values pushed */
24 1 6 2 49 1 5 7 33 11 3 3 8 5 4 1 0 4 4 74 
EIF[ ]\011/* EndIf */
EIF[ ]\011/* EndIf */
MPPEM[ ]\011/* MeasurePixelPerEm */
PUSHB[ ]\011/* 1 value pushed */
8 
LT[ ]\011/* LessThan */
IF[ ]\011/* If */
NPUSHB[ ]\011/* 34 values pushed */
0 5 6 4 4 5 104 7 10 2 6 6 2 91 3 1 2 2 28 75 8 9 2 4 4 0 92 1 1 0 0 26 0 76 
ELSE[ ]\011/* Else */
MPPEM[ ]\011/* MeasurePixelPerEm */
PUSHB[ ]\011/* 1 value pushed */
26 
LT[ ]\011/* LessThan */
IF[ ]\011/* If */
NPUSHB[ ]\011/* 35 values pushed */
0 5 6 4 6 5 4 112 7 10 2 6 6 2 91 3 1 2 2 28 75 8 9 2 4 4 0 92 1 1 0 0 26 0 76 
ELSE[ ]\011/* Else */
MPPEM[ ]\011/* MeasurePixelPerEm */
PUSHB[ ]\011/* 1 value pushed */
35 
LT[ ]\011/* LessThan */
IF[ ]\011/* If */
NPUSHB[ ]\011/* 45 values pushed */
0 5 6 8 6 5 8 112 7 10 2 6 6 2 91 3 1 2 2 28 75 0 8 8 0 91 1 1 0 0 26 75 9 1 4 4 0 92 1 1 0 0 26 0 76 
ELSE[ ]\011/* Else */
NPUSHB[ ]\011/* 55 values pushed */
0 5 7 8 7 5 8 112 10 1 6 6 2 91 3 1 2 2 28 75 0 7 7 2 91 3 1 2 2 28 75 0 8 8 0 91 1 1 0 0 26 75 9 1 4 4 0 92 1 1 0 0 26 0 76 
EIF[ ]\011/* EndIf */
EIF[ ]\011/* EndIf */
EIF[ ]\011/* EndIf */
NPUSHB[ ]\011/* 25 values pushed */
37 37 0 0 60 58 52 50 37 47 37 46 41 40 0 36 0 35 35 37 36 39 11 7 24 
CALL[ ]\011/* CallFunction */";
};
width = 854;
},
{
anchors = (
{
name = bottom;
position = "{360, 0}";
},
{
name = top;
position = "{434, 557}";
}
);
layerId = "A8DD961D-2AAA-4421-B000-699D061D5CAD";
paths = (
{
closed = 1;
nodes = (
"247 -8 OFFCURVE",
"303 51 OFFCURVE",
"343 130 CURVE",
"366 47 OFFCURVE",
"426 -8 OFFCURVE",
"523 -8 CURVE SMOOTH",
"590 -8 OFFCURVE",
"693 49 OFFCURVE",
"723 91 CURVE",
"702 133 LINE",
"647 78 OFFCURVE",
"587 50 OFFCURVE",
"532 50 CURVE SMOOTH",
"446 50 OFFCURVE",
"401 129 OFFCURVE",
"410 216 CURVE",
"562 224 OFFCURVE",
"758 299 OFFCURVE",
"758 442 CURVE SMOOTH",
"758 499 OFFCURVE",
"723 564 OFFCURVE",
"622 564 CURVE SMOOTH",
"573 564 OFFCURVE",
"528 551 OFFCURVE",
"487 526 CURVE",
"438 557 OFFCURVE",
"397 564 OFFCURVE",
"349 564 CURVE SMOOTH",
"162 564 OFFCURVE",
"40 396 OFFCURVE",
"40 203 CURVE SMOOTH",
"40 62 OFFCURVE",
"85 -8 OFFCURVE",
"175 -8 CURVE SMOOTH"
);
},
{
closed = 1;
nodes = (
"130 49 OFFCURVE",
"115 124 OFFCURVE",
"115 211 CURVE SMOOTH",
"115 355 OFFCURVE",
"195 511 OFFCURVE",
"337 511 CURVE SMOOTH",
"369 511 OFFCURVE",
"404 501 OFFCURVE",
"436 484 CURVE",
"371 419 OFFCURVE",
"320 267 OFFCURVE",
"334 187 CURVE",
"290 107 OFFCURVE",
"244 49 OFFCURVE",
"191 49 CURVE SMOOTH"
);
},
{
closed = 1;
nodes = (
"420 345 OFFCURVE",
"455 426 OFFCURVE",
"512 474 CURVE SMOOTH",
"540 497 OFFCURVE",
"571 509 OFFCURVE",
"606 509 CURVE SMOOTH",
"657 509 OFFCURVE",
"685 485 OFFCURVE",
"685 436 CURVE SMOOTH",
"685 338 OFFCURVE",
"530 272 OFFCURVE",
"413 269 CURVE"
);
}
);
userData = {
assembly = "NPUSHB[ ]\011/* 73 values pushed */
22 1 6 2 39 1 9 6 52 10 3 2 4 5 4 3 74 0 9 0 4 5 9 4 99 8 1 6 6 2 91 3 1 2 2 28 75 7 10 2 5 5 0 91 1 1 0 0 26 0 76 0 0 62 61 58 56 50 48 43 41 0 36 0 35 22 35 36 36 38 11 7 25 
CALL[ ]\011/* CallFunction */";
};
width = 793;
},
{
anchors = (
{
name = bottom;
position = "{367.525, 0}";
},
{
name = top;
position = "{441.525, 557}";
}
);
layerId = "FC25F90A-4039-49BA-9FA9-48428CE1BED8";
paths = (
{
closed = 1;
nodes = (
"254.6 -8 OFFCURVE",
"309.25 50.275 OFFCURVE",
"348.25 128.25 CURVE",
"372.25 46.625 OFFCURVE",
"434.225 -8 OFFCURVE",
"532.825 -8 CURVE SMOOTH",
"603.075 -8 OFFCURVE",
"709.975 50.95 OFFCURVE",
"740.3 93.6 CURVE",
"710.375 152.15 LINE",
"659.925 102.75 OFFCURVE",
"600.675 74.15 OFFCURVE",
"549.025 74.15 CURVE SMOOTH",
"480.575 74.15 OFFCURVE",
"444.825 125 OFFCURVE",
"452.225 204.425 CURVE",
"608.7 219.9 OFFCURVE",
"775.025 298.65 OFFCURVE",
"775.025 441.025 CURVE SMOOTH",
"775.025 504.525 OFFCURVE",
"728.75 564 OFFCURVE",
"633.15 564 CURVE SMOOTH",
"583.5 564 OFFCURVE",
"538.175 552 OFFCURVE",
"497.175 527.65 CURVE",
"445.375 558.725 OFFCURVE",
"409.45 564 OFFCURVE",
"359.125 564 CURVE SMOOTH",
"165.9 564 OFFCURVE",
"39.025 400.275 OFFCURVE",
"39.025 202.675 CURVE SMOOTH",
"39.025 64.925 OFFCURVE",
"89.6 -8 OFFCURVE",
"182.95 -8 CURVE SMOOTH"
);
},
{
closed = 1;
nodes = (
"160.025 74.775 OFFCURVE",
"150.675 140.95 OFFCURVE",
"150.675 214.35 CURVE SMOOTH",
"150.675 344.725 OFFCURVE",
"216.4 489.8 OFFCURVE",
"344.45 489.8 CURVE SMOOTH",
"371.825 489.8 OFFCURVE",
"399.55 482.775 OFFCURVE",
"426.95 468.05 CURVE",
"371.225 404.325 OFFCURVE",
"341.225 317.25 OFFCURVE",
"337.9 210.1 CURVE",
"296.8 124.975 OFFCURVE",
"253.475 74.775 OFFCURVE",
"211.45 74.775 CURVE SMOOTH"
);
},
{
closed = 1;
nodes = (
"459.6 335.725 OFFCURVE",
"487.325 409.075 OFFCURVE",
"532.75 454.425 CURVE SMOOTH",
"555.125 477.1 OFFCURVE",
"580.5 488.1 OFFCURVE",
"609.55 488.1 CURVE SMOOTH",
"646.275 488.1 OFFCURVE",
"667.325 472.075 OFFCURVE",
"667.325 431.725 CURVE SMOOTH",
"667.325 348 OFFCURVE",
"550.225 281.25 OFFCURVE",
"453.575 275 CURVE"
);
}
);
width = 808.05;
}
);
leftKerningGroup = a;
note = ae;
rightKerningGroup = e;
unicode = 00E6;
},
{
glyphname = b;
lastChange = "2019-02-18 20:31:10 +0000";
layers = (
{
anchors = (
{
name = bottom;
position = "{278, 0}";
},
{
name = top;
position = "{437, 557}";
}
);
layerId = "9808B12E-936F-4588-BC0B-2F1DE3B33DAD";
paths = (
{
closed = 1;
nodes = (
"399 -8 OFFCURVE",
"504 68 OFFCURVE",
"557 178 CURVE SMOOTH",
"583 233 OFFCURVE",
"596 291 OFFCURVE",
"596 354 CURVE SMOOTH",
"596 478 OFFCURVE",
"547 564 OFFCURVE",
"432 564 CURVE SMOOTH",
"351 564 OFFCURVE",
"294 497 OFFCURVE",
"263 417 CURVE",
"273 477 LINE",
"314 798 LINE",
"147 798 LINE",
"37 0 LINE",
"127 16 LINE",
"160 3 OFFCURVE",
"213 -8 OFFCURVE",
"252 -8 CURVE SMOOTH"
);
},
{
closed = 1;
nodes = (
"247 95 OFFCURVE",
"234 96 OFFCURVE",
"225 98 CURVE",
"247 252 LINE",
"262 312 OFFCURVE",
"316 445 OFFCURVE",
"370 445 CURVE SMOOTH",
"399 445 OFFCURVE",
"413 411 OFFCURVE",
"413 343 CURVE SMOOTH",
"413 262 OFFCURVE",
"390 179 OFFCURVE",
"346 131 CURVE SMOOTH",
"323 107 OFFCURVE",
"296 95 OFFCURVE",
"264 95 CURVE SMOOTH"
);
}
);
userData = {
assembly = "NPUSHB[ ]\011/* 14 values pushed */
30 29 28 15 4 4 3 11 9 2 0 4 2 74 
MPPEM[ ]\011/* MeasurePixelPerEm */
PUSHB[ ]\011/* 1 value pushed */
33 
LT[ ]\011/* LessThan */
IF[ ]\011/* If */
NPUSHB[ ]\011/* 28 values pushed */
0 1 1 19 75 0 3 3 2 91 5 1 2 2 28 75 6 1 4 4 0 92 0 0 0 26 0 76 
ELSE[ ]\011/* Else */
NPUSHB[ ]\011/* 28 values pushed */
0 1 2 1 114 0 3 3 2 91 5 1 2 2 28 75 6 1 4 4 0 92 0 0 0 26 0 76 
EIF[ ]\011/* EndIf */
NPUSHB[ ]\011/* 19 values pushed */
19 19 0 0 19 32 19 31 25 23 0 18 0 17 21 37 7 7 22 
CALL[ ]\011/* CallFunction */";
};
width = 630;
},
{
anchors = (
{
name = bottom;
position = "{246, 0}";
},
{
name = top;
position = "{367, 557}";
}
);
layerId = "A8DD961D-2AAA-4421-B000-699D061D5CAD";
paths = (
{
closed = 1;
nodes = (
"338 -8 OFFCURVE",
"435 76 OFFCURVE",
"483 188 CURVE SMOOTH",
"506 243 OFFCURVE",
"518 298 OFFCURVE",
"518 353 CURVE SMOOTH",
"518 484 OFFCURVE",
"465 564 OFFCURVE",
"362 564 CURVE SMOOTH",
"287 564 OFFCURVE",
"219 517 OFFCURVE",
"176 458 CURVE",
"193 560 LINE",
"222 799 LINE",
"153 799 LINE",
"46 1 LINE",
"87 14 LINE",
"120 2 OFFCURVE",
"169 -8 OFFCURVE",
"205 -8 CURVE SMOOTH"
);
},
{
closed = 1;
nodes = (
"185 46 OFFCURVE",
"152 52 OFFCURVE",
"127 63 CURVE",
"170 383 LINE",
"208 444 OFFCURVE",
"275 508 OFFCURVE",
"350 508 CURVE SMOOTH",
"410 508 OFFCURVE",
"442 453 OFFCURVE",
"442 345 CURVE SMOOTH",
"442 256 OFFCURVE",
"408 155 OFFCURVE",
"340 93 CURVE SMOOTH",
"305 62 OFFCURVE",
"264 46 OFFCURVE",
"216 46 CURVE SMOOTH"
);
}
);
userData = {
assembly = "NPUSHB[ ]\011/* 59 values pushed */
29 14 2 4 3 10 9 2 0 4 2 74 0 1 1 19 75 0 3 3 2 91 5 1 2 2 28 75 6 1 4 4 0 91 0 0 0 26 0 76 18 18 0 0 18 32 18 31 25 23 0 17 0 16 20 37 7 7 22 
CALL[ ]\011/* CallFunction */";
};
width = 566;
},
{
anchors = (
{
name = bottom;
position = "{252.2, 0}";
},
{
name = top;
position = "{386.75, 557}";
}
);
layerId = "FC25F90A-4039-49BA-9FA9-48428CE1BED8";
paths = (
{
closed = 1;
nodes = (
"353.125 -8 OFFCURVE",
"452.075 74.375 OFFCURVE",
"499.05 186.375 CURVE SMOOTH",
"522.7 241.375 OFFCURVE",
"534.025 297.7 OFFCURVE",
"534.025 354 CURVE SMOOTH",
"534.025 483.7 OFFCURVE",
"483.35 564 OFFCURVE",
"380.75 564 CURVE SMOOTH",
"309.1 564 OFFCURVE",
"246.425 518.075 OFFCURVE",
"204.7 459.825 CURVE",
"221.075 546.675 LINE",
"250.35 799.675 LINE",
"147 799.675 LINE",
"40.35 -6.7 LINE",
"100.875 9.975 LINE",
"134.525 0.325 OFFCURVE",
"179.5 -8 OFFCURVE",
"213.475 -8 CURVE SMOOTH"
);
},
{
closed = 1;
nodes = (
"202.775 67.525 OFFCURVE",
"179.725 70.875 OFFCURVE",
"159 77.575 CURVE",
"195.425 351.825 LINE",
"229.25 409.575 OFFCURVE",
"296.525 482.85 OFFCURVE",
"356.6 482.85 CURVE SMOOTH",
"406.425 482.85 OFFCURVE",
"422.05 421.275 OFFCURVE",
"422.05 342.325 CURVE SMOOTH",
"422.05 258.65 OFFCURVE",
"392.675 166.6 OFFCURVE",
"334.95 110.225 CURVE SMOOTH",
"305.25 81.875 OFFCURVE",
"269.875 67.525 OFFCURVE",
"228.15 67.525 CURVE SMOOTH"
);
}
);
width = 578.075;
}
);
leftKerningGroup = h;
note = b;
rightKerningGroup = o;
unicode = 0062;
},
{
glyphname = c;
lastChange = "2019-03-28 02:02:48 +0000";
layers = (
{
anchors = (
{
name = bottom;
position = "{245, 0}";
},
{
name = top;
position = "{329, 557}";
}
);
layerId = "9808B12E-936F-4588-BC0B-2F1DE3B33DAD";
paths = (
{
closed = 1;
nodes = (
"339 -8 OFFCURVE",
"410 38 OFFCURVE",
"443 90 CURVE",
"400 174 LINE",
"376 148 OFFCURVE",
"324 118 OFFCURVE",
"285 118 CURVE SMOOTH",
"228 118 OFFCURVE",
"214 164 OFFCURVE",
"214 243 CURVE SMOOTH",
"214 297 OFFCURVE",
"235 354 OFFCURVE",
"264 390 CURVE SMOOTH",
"282 414 OFFCURVE",
"305 429 OFFCURVE",
"326 429 CURVE SMOOTH",
"359 429 OFFCURVE",
"404 396 OFFCURVE",
"423 376 CURVE",
"465 543 LINE",
"438 555 OFFCURVE",
"378 564 OFFCURVE",
"339 564 CURVE SMOOTH",
"223 564 OFFCURVE",
"127 503 OFFCURVE",
"75 397 CURVE SMOOTH",
"49 344 OFFCURVE",
"36 283 OFFCURVE",
"36 216 CURVE SMOOTH",
"36 89 OFFCURVE",
"116 -8 OFFCURVE",
"238 -8 CURVE SMOOTH"
);
}
);
userData = {
assembly = "NPUSHB[ ]\011/* 49 values pushed */
2 1 0 3 18 3 2 1 0 19 1 2 1 3 74 0 0 0 3 91 4 1 3 3 28 75 0 1 1 2 91 0 2 2 26 2 76 0 0 0 30 0 29 38 38 37 5 7 23 
CALL[ ]\011/* CallFunction */";
};
width = 467;
},
{
anchors = (
{
name = bottom;
position = "{225, 0}";
},
{
name = top;
position = "{319, 557}";
}
);
layerId = "A8DD961D-2AAA-4421-B000-699D061D5CAD";
paths = (
{
closed = 1;
nodes = (
"304 -8 OFFCURVE",
"367 36 OFFCURVE",
"400 80 CURVE",
"375 120 LINE",
"328 72 OFFCURVE",
"288 48 OFFCURVE",
"236 48 CURVE SMOOTH",
"157 48 OFFCURVE",
"118 102 OFFCURVE",
"118 219 CURVE SMOOTH",
"118 320 OFFCURVE",
"158 417 OFFCURVE",
"219 470 CURVE SMOOTH",
"250 497 OFFCURVE",
"282 510 OFFCURVE",
"317 510 CURVE SMOOTH",
"354 510 OFFCURVE",
"389 501 OFFCURVE",
"412 482 CURVE",
"431 544 LINE",
"406 557 OFFCURVE",
"363 564 OFFCURVE",
"324 564 CURVE SMOOTH",
"208 564 OFFCURVE",
"120 485 OFFCURVE",
"76 375 CURVE SMOOTH",
"54 320 OFFCURVE",
"43 265 OFFCURVE",
"43 211 CURVE SMOOTH",
"43 74 OFFCURVE",
"108 -8 OFFCURVE",
"225 -8 CURVE SMOOTH"
);
}
);
userData = {
assembly = "NPUSHB[ ]\011/* 46 values pushed */
2 1 0 3 17 16 3 3 1 0 2 74 0 0 0 3 91 4 1 3 3 28 75 0 1 1 2 91 0 2 2 26 2 76 0 0 0 27 0 26 37 37 37 5 7 23 
CALL[ ]\011/* CallFunction */";
};
width = 445;
},
{
anchors = (
{
name = bottom;
position = "{228.25, 0}";
},
{
name = top;
position = "{323.6, 557}";
}
);
layerId = "FC25F90A-4039-49BA-9FA9-48428CE1BED8";
paths = (
{
closed = 1;
nodes = (
"289.875 -8 OFFCURVE",
"380.5 45.325 OFFCURVE",
"407.15 82.625 CURVE",
"373.875 139.5 LINE",
"329.1 95.075 OFFCURVE",
"289.5 73.45 OFFCURVE",
"247.475 73.45 CURVE SMOOTH",
"181.75 73.45 OFFCURVE",
"151.025 116.475 OFFCURVE",
"151.025 225.25 CURVE SMOOTH",
"151.025 322.65 OFFCURVE",
"187.425 405.45 OFFCURVE",
"239.175 449.875 CURVE SMOOTH",
"264.55 471.575 OFFCURVE",
"290.925 482.6 OFFCURVE",
"317.625 482.6 CURVE SMOOTH",
"353.325 482.6 OFFCURVE",
"385.925 469.7 OFFCURVE",
"409.925 449.7 CURVE",
"437.525 545.675 LINE",
"411.875 558.35 OFFCURVE",
"366.95 564 OFFCURVE",
"327.275 564 CURVE SMOOTH",
"209.25 564 OFFCURVE",
"119.625 486.925 OFFCURVE",
"75 378.575 CURVE SMOOTH",
"52.35 323.9 OFFCURVE",
"41.025 268.925 OFFCURVE",
"41.025 212.65 CURVE SMOOTH",
"41.025 75.575 OFFCURVE",
"106 -8 OFFCURVE",
"227.95 -8 CURVE SMOOTH"
);
}
);
width = 446.225;
}
);
leftKerningGroup = o;
note = c;
rightKerningGroup = c;
unicode = 0063;
},
{
glyphname = d;
lastChange = "2019-03-27 20:33:08 +0000";
layers = (
{
anchors = (
{
name = bottom;
position = "{274, 0}";
},
{
name = center;
position = "{311, 279}";
},
{
name = top;
position = "{265, 557}";
},
{
name = topright;
position = "{639, 557}";
}
);
layerId = "9808B12E-936F-4588-BC0B-2F1DE3B33DAD";
paths = (
{
closed = 1;
nodes = (
"278 -8 OFFCURVE",
"334 59 OFFCURVE",
"366 136 CURVE",
"358 0 LINE",
"514 0 LINE",
"617 798 LINE",
"449 798 LINE",
"417 562 LINE",
"404 563 OFFCURVE",
"390 564 OFFCURVE",
"377 564 CURVE SMOOTH",
"233 564 OFFCURVE",
"126 489 OFFCURVE",
"74 378 CURVE SMOOTH",
"47 322 OFFCURVE",
"34 263 OFFCURVE",
"34 201 CURVE SMOOTH",
"34 77 OFFCURVE",
"83 -8 OFFCURVE",
"198 -8 CURVE SMOOTH"
);
},
{
closed = 1;
nodes = (
"230 111 OFFCURVE",
"216 144 OFFCURVE",
"216 211 CURVE SMOOTH",
"216 294 OFFCURVE",
"239 377 OFFCURVE",
"284 426 CURVE SMOOTH",
"306 450 OFFCURVE",
"333 462 OFFCURVE",
"365 462 CURVE SMOOTH",
"379 462 OFFCURVE",
"391 461 OFFCURVE",
"402 458 CURVE",
"381 303 LINE",
"364 242 OFFCURVE",
"310 111 OFFCURVE",
"259 111 CURVE SMOOTH"
);
}
);
userData = {
assembly = "PUSHB[ ]\011/* 7 values pushed */
21 3 2 5 4 1 74 
MPPEM[ ]\011/* MeasurePixelPerEm */
PUSHB[ ]\011/* 1 value pushed */
31 
LT[ ]\011/* LessThan */
IF[ ]\011/* If */
NPUSHB[ ]\011/* 29 values pushed */
6 1 3 3 19 75 0 4 4 2 91 0 2 2 28 75 7 1 5 5 0 91 1 1 0 0 18 0 76 
ELSE[ ]\011/* Else */
MPPEM[ ]\011/* MeasurePixelPerEm */
PUSHB[ ]\011/* 1 value pushed */
33 
LT[ ]\011/* LessThan */
IF[ ]\011/* If */
NPUSHB[ ]\011/* 33 values pushed */
6 1 3 3 19 75 0 4 4 2 91 0 2 2 28 75 0 0 0 18 75 7 1 5 5 1 91 0 1 1 26 1 76 
ELSE[ ]\011/* Else */
NPUSHB[ ]\011/* 33 values pushed */
6 1 3 2 3 114 0 4 4 2 91 0 2 2 28 75 0 0 0 18 75 7 1 5 5 1 91 0 1 1 26 1 76 
EIF[ ]\011/* EndIf */
EIF[ ]\011/* EndIf */
NPUSHB[ ]\011/* 20 values pushed */
17 17 0 0 17 29 17 28 24 22 0 16 0 16 37 35 17 8 7 23 
CALL[ ]\011/* CallFunction */";
};
width = 622;
},
{
anchors = (
{
name = bottom;
position = "{244, 0}";
},
{
name = center;
position = "{281, 279}";
},
{
name = top;
position = "{265, 557}";
},
{
name = topright;
position = "{578, 557}";
}
);
layerId = "A8DD961D-2AAA-4421-B000-699D061D5CAD";
paths = (
{
closed = 1;
nodes = (
"269 -8 OFFCURVE",
"339 42 OFFCURVE",
"380 102 CURVE",
"370 0 LINE",
"435 0 LINE",
"544 799 LINE",
"472 799 LINE",
"438 552 LINE",
"405 560 OFFCURVE",
"376 564 OFFCURVE",
"351 564 CURVE SMOOTH",
"216 564 OFFCURVE",
"121 481 OFFCURVE",
"74 369 CURVE SMOOTH",
"51 313 OFFCURVE",
"39 258 OFFCURVE",
"39 203 CURVE SMOOTH",
"39 72 OFFCURVE",
"91 -8 OFFCURVE",
"194 -8 CURVE SMOOTH"
);
},
{
closed = 1;
nodes = (
"147 49 OFFCURVE",
"114 104 OFFCURVE",
"114 212 CURVE SMOOTH",
"114 301 OFFCURVE",
"149 403 OFFCURVE",
"218 465 CURVE SMOOTH",
"252 496 OFFCURVE",
"293 511 OFFCURVE",
"340 511 CURVE SMOOTH",
"371 511 OFFCURVE",
"403 505 OFFCURVE",
"430 494 CURVE",
"386 177 LINE",
"348 115 OFFCURVE",
"281 49 OFFCURVE",
"207 49 CURVE SMOOTH"
);
}
);
userData = {
assembly = "NPUSHB[ ]\011/* 11 values pushed */
15 1 4 2 21 3 2 5 4 2 74 
MPPEM[ ]\011/* MeasurePixelPerEm */
PUSHB[ ]\011/* 1 value pushed */
31 
LT[ ]\011/* LessThan */
IF[ ]\011/* If */
NPUSHB[ ]\011/* 29 values pushed */
6 1 3 3 19 75 0 4 4 2 91 0 2 2 28 75 7 1 5 5 0 91 1 1 0 0 18 0 76 
ELSE[ ]\011/* Else */
NPUSHB[ ]\011/* 33 values pushed */
6 1 3 3 19 75 0 4 4 2 91 0 2 2 28 75 0 0 0 18 75 7 1 5 5 1 91 0 1 1 26 1 76 
EIF[ ]\011/* EndIf */
NPUSHB[ ]\011/* 20 values pushed */
17 17 0 0 17 31 17 30 25 23 0 16 0 16 37 35 17 8 7 23 
CALL[ ]\011/* CallFunction */";
};
width = 561;
},
{
anchors = (
{
name = bottom;
position = "{251.55, 0}";
},
{
name = center;
position = "{288.55, 279}";
},
{
name = top;
position = "{265, 557}";
},
{
name = topright;
position = "{593.1, 557}";
}
);
layerId = "FC25F90A-4039-49BA-9FA9-48428CE1BED8";
paths = (
{
closed = 1;
nodes = (
"263.6 -8 OFFCURVE",
"326.625 39.575 OFFCURVE",
"367.675 100.525 CURVE",
"359.675 0 LINE",
"456.375 0 LINE",
"563.4 799.675 LINE",
"456.7 799.675 LINE",
"423.7 557.975 LINE",
"399.325 562.325 OFFCURVE",
"377.95 564 OFFCURVE",
"358.575 564 CURVE SMOOTH",
"218.925 564 OFFCURVE",
"120.975 482.3 OFFCURVE",
"74 371.3 CURVE SMOOTH",
"50.35 315.3 OFFCURVE",
"38.35 258.975 OFFCURVE",
"38.35 202.675 CURVE SMOOTH",
"38.35 71.975 OFFCURVE",
"88.7 -8 OFFCURVE",
"191.3 -8 CURVE SMOOTH"
);
},
{
closed = 1;
nodes = (
"165.625 73.475 OFFCURVE",
"150 137.425 OFFCURVE",
"150 214.35 CURVE SMOOTH",
"150 297.35 OFFCURVE",
"179.375 389.725 OFFCURVE",
"237.775 447.1 CURVE SMOOTH",
"266.8 475.45 OFFCURVE",
"302.175 489.8 OFFCURVE",
"344.225 489.8 CURVE SMOOTH",
"368.95 489.8 OFFCURVE",
"392 486.125 OFFCURVE",
"413.05 478.1 CURVE",
"375.65 206.575 LINE",
"340.825 146.475 OFFCURVE",
"274.875 73.475 OFFCURVE",
"215.45 73.475 CURVE SMOOTH"
);
}
);
width = 576.1;
}
);
leftKerningGroup = o;
note = d;
rightKerningGroup = l;
unicode = 0064;
},
{
glyphname = eth;
lastChange = "2019-03-26 19:55:23 +0000";
layers = (
{
layerId = "9808B12E-936F-4588-BC0B-2F1DE3B33DAD";
paths = (
{
closed = 1;
nodes = (
"389 -8 OFFCURVE",
"483 66 OFFCURVE",
"530 187 CURVE SMOOTH",
"553 247 OFFCURVE",
"565 315 OFFCURVE",
"565 392 CURVE SMOOTH",
"565 543 OFFCURVE",
"515 694 OFFCURVE",
"404 786 CURVE",
"395 729 LINE",
"488 833 LINE",
"430 889 LINE",
"334 780 LINE",
"392 795 LINE",
"336 840 OFFCURVE",
"277 871 OFFCURVE",
"214 886 CURVE",
"185 798 LINE",
"240 783 OFFCURVE",
"279 756 OFFCURVE",
"321 714 CURVE",
"320 774 LINE",
"227 681 LINE",
"289 626 LINE",
"371 716 LINE",
"329 705 LINE",
"369 653 OFFCURVE",
"393 610 OFFCURVE",
"397 542 CURVE",
"380 557 OFFCURVE",
"350 565 OFFCURVE",
"308 565 CURVE SMOOTH",
"129 565 OFFCURVE",
"36 388 OFFCURVE",
"36 219 CURVE SMOOTH",
"36 81 OFFCURVE",
"137 -8 OFFCURVE",
"257 -8 CURVE SMOOTH"
);
},
{
closed = 1;
nodes = (
"239 89 OFFCURVE",
"215 144 OFFCURVE",
"215 209 CURVE SMOOTH",
"215 270 OFFCURVE",
"229 357 OFFCURVE",
"255 415 CURVE SMOOTH",
"271 451 OFFCURVE",
"293 476 OFFCURVE",
"318 476 CURVE SMOOTH",
"355 476 OFFCURVE",
"375 461 OFFCURVE",
"386 438 CURVE",
"386 294 OFFCURVE",
"351 89 OFFCURVE",
"272 89 CURVE SMOOTH"
);
}
);
userData = {
assembly = "NPUSHB[ ]\011/* 53 values pushed */
16 1 2 1 51 1 3 2 2 74 33 32 31 28 26 25 22 21 20 19 10 1 72 0 2 2 1 91 0 1 1 28 75 0 3 3 0 91 0 0 0 26 0 76 45 43 38 36 38 37 4 7 22 
CALL[ ]\011/* CallFunction */";
};
width = 597;
},
{
layerId = "A8DD961D-2AAA-4421-B000-699D061D5CAD";
paths = (
{
closed = 1;
nodes = (
"356 -8 OFFCURVE",
"444 75 OFFCURVE",
"488 207 CURVE SMOOTH",
"509 272 OFFCURVE",
"520 345 OFFCURVE",
"520 424 CURVE SMOOTH",
"520 570 OFFCURVE",
"466 683 OFFCURVE",
"351 784 CURVE",
"354 752 LINE",
"443 853 LINE",
"406 887 LINE",
"317 784 LINE",
"348 785 LINE",
"299 818 OFFCURVE",
"228 854 OFFCURVE",
"187 864 CURVE",
"170 819 LINE",
"208 810 OFFCURVE",
"265 779 OFFCURVE",
"314 741 CURVE",
"316 779 LINE",
"214 672 LINE",
"254 639 LINE",
"354 750 LINE",
"314 742 LINE",
"395 675 OFFCURVE",
"434 611 OFFCURVE",
"450 508 CURVE",
"427 544 OFFCURVE",
"372 564 OFFCURVE",
"315 564 CURVE SMOOTH",
"150 564 OFFCURVE",
"43 399 OFFCURVE",
"43 213 CURVE SMOOTH",
"43 96 OFFCURVE",
"118 -8 OFFCURVE",
"239 -8 CURVE SMOOTH"
);
},
{
closed = 1;
nodes = (
"184 43 OFFCURVE",
"122 143 OFFCURVE",
"122 209 CURVE SMOOTH",
"122 316 OFFCURVE",
"153 413 OFFCURVE",
"211 469 CURVE SMOOTH",
"240 497 OFFCURVE",
"274 511 OFFCURVE",
"313 511 CURVE SMOOTH",
"388 511 OFFCURVE",
"438 456 OFFCURVE",
"446 409 CURVE",
"446 256 OFFCURVE",
"386 43 OFFCURVE",
"249 43 CURVE SMOOTH"
);
}
);
userData = {
assembly = "NPUSHB[ ]\011/* 49 values pushed */
17 1 3 2 1 74 37 34 33 30 27 26 23 22 21 20 10 1 72 0 2 2 1 91 0 1 1 28 75 0 3 3 0 91 0 0 0 26 0 76 56 54 48 46 38 37 4 7 22 
CALL[ ]\011/* CallFunction */";
};
width = 567;
},
{
layerId = "FC25F90A-4039-49BA-9FA9-48428CE1BED8";
paths = (
{
closed = 1;
nodes = (
"366.575 -8 OFFCURVE",
"457.225 73.7 OFFCURVE",
"502.225 203.75 CURVE SMOOTH",
"524.55 268.1 OFFCURVE",
"535.55 340.125 OFFCURVE",
"535.55 418.8 CURVE SMOOTH",
"535.55 563.1 OFFCURVE",
"489.925 683.625 OFFCURVE",
"376.6 782 CURVE",
"367.225 735.375 LINE",
"461.9 841.375 LINE",
"412.275 887.325 LINE",
"323 784.725 LINE",
"365.6 792 LINE",
"316.625 828.975 OFFCURVE",
"239.175 859.95 OFFCURVE",
"194.925 872.6 CURVE",
"172.3 809.725 LINE",
"211.9 799.75 OFFCURVE",
"274.1 772.425 OFFCURVE",
"316.35 730.45 CURVE",
"313.6 770.325 LINE",
"215.25 668.95 LINE",
"268.875 624 LINE",
"361.25 728.4 LINE",
"322.025 725.475 LINE",
"392.85 665.075 OFFCURVE",
"420.825 606.3 OFFCURVE",
"433.2 514.525 CURVE",
"411.175 547.625 OFFCURVE",
"363.75 564.325 OFFCURVE",
"314.05 564.325 CURVE SMOOTH",
"146.775 564.325 OFFCURVE",
"41.375 400.25 OFFCURVE",
"41.375 212 CURVE SMOOTH",
"41.375 92.025 OFFCURVE",
"118.675 -8 OFFCURVE",
"243.625 -8 CURVE SMOOTH"
);
},
{
closed = 1;
nodes = (
"193.825 64.55 OFFCURVE",
"157.375 127.875 OFFCURVE",
"157.375 210.375 CURVE SMOOTH",
"157.375 302.075 OFFCURVE",
"180.425 394.75 OFFCURVE",
"227.175 450.75 CURVE SMOOTH",
"250.55 478.075 OFFCURVE",
"278.6 492.075 OFFCURVE",
"313 492.075 CURVE SMOOTH",
"379.825 492.075 OFFCURVE",
"427.225 431.9 OFFCURVE",
"427.225 387.475 CURVE SMOOTH",
"427.225 269.5 OFFCURVE",
"363.825 64.55 OFFCURVE",
"257.625 64.55 CURVE SMOOTH"
);
}
);
width = 579.275;
}
);
leftKerningGroup = o;
note = eth;
rightKerningGroup = eth;
unicode = 00F0;
},
{
glyphname = dcaron;
lastChange = "2019-02-18 20:31:10 +0000";
layers = (
{
components = (
{
alignment = -1;
name = d;
}
);
layerId = "9808B12E-936F-4588-BC0B-2F1DE3B33DAD";
paths = (
{
closed = 1;
nodes = (
"797 554 OFFCURVE",
"824 648 OFFCURVE",
"824 729 CURVE SMOOTH",
"824 770 OFFCURVE",
"817 809 OFFCURVE",
"805 821 CURVE",
"693 798 LINE",
"684 777 LINE",
"692 766 OFFCURVE",
"696 733 OFFCURVE",
"696 679 CURVE SMOOTH",
"696 624 OFFCURVE",
"688 564 OFFCURVE",
"676 532 CURVE",
"679 520 LINE",
"752 506 LINE"
);
}
);
width = 781;
},
{
components = (
{
alignment = -1;
name = d;
}
);
layerId = "A8DD961D-2AAA-4421-B000-699D061D5CAD";
paths = (
{
closed = 1;
nodes = (
"673 545 OFFCURVE",
"698 628 OFFCURVE",
"701 697 CURVE SMOOTH",
"701 737 OFFCURVE",
"701 779 OFFCURVE",
"687 809 CURVE",
"622 792 LINE",
"619 780 LINE",
"627 767 OFFCURVE",
"633 735 OFFCURVE",
"633 696 CURVE SMOOTH",
"633 643 OFFCURVE",
"621 585 OFFCURVE",
"598 520 CURVE",
"600 510 LINE",
"638 496 LINE"
);
}
);
width = 698;
},
{
components = (
{
alignment = -1;
name = d;
}
);
layerId = "FC25F90A-4039-49BA-9FA9-48428CE1BED8";
paths = (
{
closed = 1;
nodes = (
"702.2 543.95 OFFCURVE",
"726.175 631.575 OFFCURVE",
"726.175 699.175 CURVE SMOOTH",
"726.175 750.875 OFFCURVE",
"722.2 784.875 OFFCURVE",
"711.2 807.925 CURVE",
"620.3 785.6 LINE",
"615.325 768.95 LINE",
"624.325 754.6 OFFCURVE",
"630 714.625 OFFCURVE",
"630 674.975 CURVE SMOOTH",
"630 628.025 OFFCURVE",
"622.35 575.425 OFFCURVE",
"610 523.95 CURVE",
"613 511.625 LINE",
"665.9 492.925 LINE"
);
}
);
width = 711.65;
}
);
leftKerningGroup = o;
note = dcaron;
rightKerningGroup = l;
unicode = 010F;
},
{
glyphname = dcroat;
lastChange = "2019-02-18 20:31:10 +0000";
layers = (
{
components = (
{
name = d;
}
);
layerId = "9808B12E-936F-4588-BC0B-2F1DE3B33DAD";
paths = (
{
closed = 1;
nodes = (
"676 616 LINE",
"684 680 LINE",
"321 680 LINE",
"313 616 LINE"
);
}
);
userData = {
assembly = "NPUSHB[ ]\011/* 11 values pushed */
16 1 8 3 29 4 2 9 8 2 74 
MPPEM[ ]\011/* MeasurePixelPerEm */
PUSHB[ ]\011/* 1 value pushed */
31 
LT[ ]\011/* LessThan */
IF[ ]\011/* If */
NPUSHB[ ]\011/* 38 values pushed */
7 1 5 4 1 0 3 5 0 98 0 6 6 19 75 0 8 8 3 91 0 3 3 28 75 10 1 9 9 1 91 2 1 1 1 18 1 76 
ELSE[ ]\011/* Else */
MPPEM[ ]\011/* MeasurePixelPerEm */
PUSHB[ ]\011/* 1 value pushed */
33 
LT[ ]\011/* LessThan */
IF[ ]\011/* If */
NPUSHB[ ]\011/* 42 values pushed */
7 1 5 4 1 0 3 5 0 98 0 6 6 19 75 0 8 8 3 91 0 3 3 28 75 0 1 1 18 75 10 1 9 9 2 91 0 2 2 26 2 76 
ELSE[ ]\011/* Else */
NPUSHB[ ]\011/* 42 values pushed */
0 6 5 6 114 7 1 5 4 1 0 3 5 0 98 0 8 8 3 91 0 3 3 28 75 0 1 1 18 75 10 1 9 9 2 91 0 2 2 26 2 76 
EIF[ ]\011/* EndIf */
EIF[ ]\011/* EndIf */
NPUSHB[ ]\011/* 18 values pushed */
25 25 25 37 25 36 38 17 17 17 18 37 35 17 16 11 7 29 
CALL[ ]\011/* CallFunction */";
};
width = 622;
},
{
components = (
{
name = d;
}
);
layerId = "A8DD961D-2AAA-4421-B000-699D061D5CAD";
paths = (
{
closed = 1;
nodes = (
"591 631 LINE",
"598 680 LINE",
"313 680 LINE",
"307 631 LINE"
);
}
);
userData = {
assembly = "NPUSHB[ ]\011/* 11 values pushed */
16 1 8 3 29 4 2 9 8 2 74 
MPPEM[ ]\011/* MeasurePixelPerEm */
PUSHB[ ]\011/* 1 value pushed */
31 
LT[ ]\011/* LessThan */
IF[ ]\011/* If */
NPUSHB[ ]\011/* 38 values pushed */
7 1 5 4 1 0 3 5 0 98 0 6 6 19 75 0 8 8 3 91 0 3 3 28 75 10 1 9 9 1 91 2 1 1 1 18 1 76 
ELSE[ ]\011/* Else */
NPUSHB[ ]\011/* 42 values pushed */
7 1 5 4 1 0 3 5 0 98 0 6 6 19 75 0 8 8 3 91 0 3 3 28 75 0 1 1 18 75 10 1 9 9 2 91 0 2 2 26 2 76 
EIF[ ]\011/* EndIf */
NPUSHB[ ]\011/* 18 values pushed */
25 25 25 39 25 38 39 17 17 17 18 37 35 17 16 11 7 29 
CALL[ ]\011/* CallFunction */";
};
width = 561;
},
{
components = (
{
alignment = -1;
name = d;
}
);
layerId = "FC25F90A-4039-49BA-9FA9-48428CE1BED8";
paths = (
{
closed = 1;
nodes = (
"604.65 616 LINE",
"612.65 680 LINE",
"315.3 680 LINE",
"307.975 616 LINE"
);
}
);
width = 576.1;
}
);
leftKerningGroup = o;
note = dcroat;
rightKerningGroup = l;
unicode = 0111;
},
{
glyphname = e;
lastChange = "2019-03-28 02:02:18 +0000";
layers = (
{
anchors = (
{
name = bottom;
position = "{255, 0}";
},
{
name = ogonek;
position = "{404, 10}";
},
{
name = top;
position = "{349, 557}";
}
);
layerId = "9808B12E-936F-4588-BC0B-2F1DE3B33DAD";
paths = (
{
closed = 1;
nodes = (
"338 -8 OFFCURVE",
"444 39 OFFCURVE",
"493 106 CURVE",
"448 190 LINE",
"421 154 OFFCURVE",
"345 110 OFFCURVE",
"290 110 CURVE SMOOTH",
"242 110 OFFCURVE",
"223 130 OFFCURVE",
"219 173 CURVE SMOOTH",
"219 177 OFFCURVE",
"219 182 OFFCURVE",
"219 187 CURVE",
"386 230 OFFCURVE",
"516 302 OFFCURVE",
"516 436 CURVE SMOOTH",
"516 511 OFFCURVE",
"462 564 OFFCURVE",
"350 564 CURVE SMOOTH",
"234 564 OFFCURVE",
"133 502 OFFCURVE",
"78 395 CURVE SMOOTH",
"50 342 OFFCURVE",
"36 282 OFFCURVE",
"36 216 CURVE SMOOTH",
"36 135 OFFCURVE",
"64 64 OFFCURVE",
"128 23 CURVE SMOOTH",
"159 2 OFFCURVE",
"199 -8 OFFCURVE",
"247 -8 CURVE SMOOTH"
);
},
{
closed = 1;
nodes = (
"218 308 OFFCURVE",
"222 365 OFFCURVE",
"250 410 CURVE SMOOTH",
"271 443 OFFCURVE",
"287 469 OFFCURVE",
"311 469 CURVE SMOOTH",
"338 469 OFFCURVE",
"348 454 OFFCURVE",
"348 419 CURVE SMOOTH",
"348 347 OFFCURVE",
"279 278 OFFCURVE",
"217 274 CURVE"
);
}
);
userData = {
assembly = "NPUSHB[ ]\011/* 11 values pushed */
13 6 2 0 4 14 1 1 0 2 74 
MPPEM[ ]\011/* MeasurePixelPerEm */
PUSHB[ ]\011/* 1 value pushed */
8 
LT[ ]\011/* LessThan */
IF[ ]\011/* If */
NPUSHB[ ]\011/* 29 values pushed */
0 4 3 0 0 4 104 0 3 3 2 91 5 1 2 2 28 75 0 0 0 1 92 0 1 1 26 1 76 
ELSE[ ]\011/* Else */
NPUSHB[ ]\011/* 30 values pushed */
0 4 3 0 3 4 0 112 0 3 3 2 91 5 1 2 2 28 75 0 0 0 1 92 0 1 1 26 1 76 
EIF[ ]\011/* EndIf */
NPUSHB[ ]\011/* 15 values pushed */
0 0 34 33 30 28 0 26 0 25 39 40 6 7 22 
CALL[ ]\011/* CallFunction */";
};
width = 543;
},
{
anchors = (
{
name = bottom;
position = "{245, 0}";
},
{
name = ogonek;
position = "{318, 10}";
},
{
name = top;
position = "{329, 557}";
}
);
layerId = "A8DD961D-2AAA-4421-B000-699D061D5CAD";
paths = (
{
closed = 1;
nodes = (
"300 -8 OFFCURVE",
"403 50 OFFCURVE",
"433 91 CURVE",
"412 133 LINE",
"359 78 OFFCURVE",
"297 50 OFFCURVE",
"242 50 CURVE SMOOTH",
"154 50 OFFCURVE",
"120 116 OFFCURVE",
"120 200 CURVE SMOOTH",
"120 207 OFFCURVE",
"120 213 OFFCURVE",
"121 216 CURVE",
"297 234 OFFCURVE",
"468 309 OFFCURVE",
"468 442 CURVE SMOOTH",
"468 519 OFFCURVE",
"405 564 OFFCURVE",
"332 564 CURVE SMOOTH",
"223 564 OFFCURVE",
"134 499 OFFCURVE",
"84 393 CURVE SMOOTH",
"59 340 OFFCURVE",
"45 280 OFFCURVE",
"44 215 CURVE SMOOTH",
"41 138 OFFCURVE",
"67 67 OFFCURVE",
"124 24 CURVE SMOOTH",
"153 3 OFFCURVE",
"189 -8 OFFCURVE",
"234 -8 CURVE SMOOTH"
);
},
{
closed = 1;
nodes = (
"130 345 OFFCURVE",
"166 426 OFFCURVE",
"223 474 CURVE SMOOTH",
"251 497 OFFCURVE",
"282 509 OFFCURVE",
"316 509 CURVE SMOOTH",
"367 509 OFFCURVE",
"396 485 OFFCURVE",
"396 436 CURVE SMOOTH",
"396 337 OFFCURVE",
"239 272 OFFCURVE",
"123 269 CURVE"
);
}
);
userData = {
assembly = "NPUSHB[ ]\011/* 53 values pushed */
16 15 2 1 0 1 74 0 5 0 0 1 5 0 99 0 4 4 3 91 6 1 3 3 28 75 0 1 1 2 91 0 2 2 26 2 76 0 0 36 35 32 30 0 28 0 27 38 36 22 7 7 23 
CALL[ ]\011/* CallFunction */";
};
width = 503;
},
{
anchors = (
{
name = bottom;
position = "{245.675, 0}";
},
{
name = ogonek;
position = "{323.5, 10}";
},
{
name = top;
position = "{332.925, 557}";
}
);
layerId = "FC25F90A-4039-49BA-9FA9-48428CE1BED8";
paths = (
{
closed = 1;
nodes = (
"306.525 -8 OFFCURVE",
"413.1 50.625 OFFCURVE",
"443.425 93.6 CURVE",
"413.825 152.15 LINE",
"362.725 102.75 OFFCURVE",
"304.125 74.15 OFFCURVE",
"252.475 74.15 CURVE SMOOTH",
"183.625 74.15 OFFCURVE",
"155.975 122.725 OFFCURVE",
"154.675 188.475 CURVE",
"154.675 193.8 OFFCURVE",
"154.675 198.775 OFFCURVE",
"154.675 204.425 CURVE",
"311.15 219.9 OFFCURVE",
"476.45 298.65 OFFCURVE",
"476.45 441.025 CURVE SMOOTH",
"476.45 504.525 OFFCURVE",
"427.825 564 OFFCURVE",
"336.6 564 CURVE SMOOTH",
"223.625 564 OFFCURVE",
"131.675 498 OFFCURVE",
"81.025 390.675 CURVE SMOOTH",
"55.375 336.675 OFFCURVE",
"41.7 276.675 OFFCURVE",
"41.025 211.35 CURVE SMOOTH",
"40.35 132.35 OFFCURVE",
"67 63.35 OFFCURVE",
"125.975 22.675 CURVE SMOOTH",
"155.3 2 OFFCURVE",
"191.95 -8 OFFCURVE",
"236.275 -8 CURVE SMOOTH"
);
},
{
closed = 1;
nodes = (
"162.725 335.725 OFFCURVE",
"190.45 409.075 OFFCURVE",
"235.875 454.425 CURVE SMOOTH",
"258.25 477.1 OFFCURVE",
"283.625 488.1 OFFCURVE",
"312.675 488.1 CURVE SMOOTH",
"349.4 488.1 OFFCURVE",
"369.425 472.075 OFFCURVE",
"369.425 431.725 CURVE SMOOTH",
"369.425 348 OFFCURVE",
"247.825 278 OFFCURVE",
"156.7 275 CURVE"
);
}
);
width = 511.175;
}
);
leftKerningGroup = o;
note = e;
rightKerningGroup = e;
unicode = 0065;
},
{
glyphname = schwa;
lastChange = "2019-03-27 20:33:32 +0000";
layers = (
{
anchors = (
{
name = bottom;
position = "{194, 0}";
},
{
name = ogonek;
position = "{139, 547}";
},
{
name = top;
position = "{288, 557}";
}
);
layerId = "9808B12E-936F-4588-BC0B-2F1DE3B33DAD";
paths = (
{
closed = 1;
nodes = (
"205 565 OFFCURVE",
"99 518 OFFCURVE",
"50 451 CURVE",
"95 367 LINE",
"122 403 OFFCURVE",
"198 447 OFFCURVE",
"253 447 CURVE SMOOTH",
"301 447 OFFCURVE",
"320 427 OFFCURVE",
"324 384 CURVE SMOOTH",
"324 380 OFFCURVE",
"324 375 OFFCURVE",
"324 370 CURVE",
"157 327 OFFCURVE",
"27 255 OFFCURVE",
"27 121 CURVE SMOOTH",
"27 46 OFFCURVE",
"81 -7 OFFCURVE",
"193 -7 CURVE SMOOTH",
"309 -7 OFFCURVE",
"410 55 OFFCURVE",
"465 162 CURVE SMOOTH",
"493 215 OFFCURVE",
"507 275 OFFCURVE",
"507 341 CURVE SMOOTH",
"507 422 OFFCURVE",
"479 493 OFFCURVE",
"415 534 CURVE SMOOTH",
"384 555 OFFCURVE",
"344 565 OFFCURVE",
"296 565 CURVE SMOOTH"
);
},
{
closed = 1;
nodes = (
"325 249 OFFCURVE",
"321 192 OFFCURVE",
"293 147 CURVE SMOOTH",
"272 114 OFFCURVE",
"256 88 OFFCURVE",
"232 88 CURVE SMOOTH",
"205 88 OFFCURVE",
"195 103 OFFCURVE",
"195 138 CURVE SMOOTH",
"195 210 OFFCURVE",
"264 279 OFFCURVE",
"326 283 CURVE"
);
}
);
width = 538;
},
{
anchors = (
{
name = bottom;
position = "{174, 0}";
},
{
name = ogonek;
position = "{185, 547}";
},
{
name = top;
position = "{258, 557}";
}
);
layerId = "A8DD961D-2AAA-4421-B000-699D061D5CAD";
paths = (
{
closed = 1;
nodes = (
"203 565 OFFCURVE",
"100 507 OFFCURVE",
"70 466 CURVE",
"91 424 LINE",
"144 479 OFFCURVE",
"206 507 OFFCURVE",
"261 507 CURVE SMOOTH",
"349 507 OFFCURVE",
"383 441 OFFCURVE",
"383 357 CURVE SMOOTH",
"383 350 OFFCURVE",
"383 344 OFFCURVE",
"382 341 CURVE",
"206 323 OFFCURVE",
"35 248 OFFCURVE",
"35 115 CURVE SMOOTH",
"35 38 OFFCURVE",
"98 -7 OFFCURVE",
"171 -7 CURVE SMOOTH",
"280 -7 OFFCURVE",
"369 58 OFFCURVE",
"419 164 CURVE SMOOTH",
"444 217 OFFCURVE",
"458 277 OFFCURVE",
"459 342 CURVE SMOOTH",
"462 419 OFFCURVE",
"436 490 OFFCURVE",
"379 533 CURVE SMOOTH",
"350 554 OFFCURVE",
"314 565 OFFCURVE",
"269 565 CURVE SMOOTH"
);
},
{
closed = 1;
nodes = (
"373 212 OFFCURVE",
"337 131 OFFCURVE",
"280 83 CURVE SMOOTH",
"252 60 OFFCURVE",
"221 48 OFFCURVE",
"187 48 CURVE SMOOTH",
"136 48 OFFCURVE",
"107 72 OFFCURVE",
"107 121 CURVE SMOOTH",
"107 220 OFFCURVE",
"264 285 OFFCURVE",
"380 288 CURVE"
);
}
);
width = 503;
},
{
anchors = (
{
name = bottom;
position = "{178.25, 0}";
},
{
name = ogonek;
position = "{187.675, 547}";
},
{
name = top;
position = "{265.5, 557}";
}
);
layerId = "FC25F90A-4039-49BA-9FA9-48428CE1BED8";
paths = (
{
closed = 1;
nodes = (
"204.175 565 OFFCURVE",
"98.175 506 OFFCURVE",
"68.175 463 CURVE",
"97.175 405 LINE",
"148.175 454 OFFCURVE",
"207.175 483 OFFCURVE",
"259.175 483 CURVE SMOOTH",
"327.175 483 OFFCURVE",
"355.175 434 OFFCURVE",
"356.175 369 CURVE",
"356.175 363 OFFCURVE",
"356.175 358 OFFCURVE",
"356.175 353 CURVE",
"200.175 337 OFFCURVE",
"35.175 258 OFFCURVE",
"35.175 116 CURVE SMOOTH",
"35.175 52 OFFCURVE",
"83.175 -7 OFFCURVE",
"174.175 -7 CURVE SMOOTH",
"287.175 -7 OFFCURVE",
"379.175 59 OFFCURVE",
"430.175 166 CURVE SMOOTH",
"456.175 220 OFFCURVE",
"469.175 280 OFFCURVE",
"470.175 346 CURVE SMOOTH",
"471.175 425 OFFCURVE",
"444.175 494 OFFCURVE",
"385.175 534 CURVE SMOOTH",
"356.175 555 OFFCURVE",
"319.175 565 OFFCURVE",
"275.175 565 CURVE SMOOTH"
);
},
{
closed = 1;
nodes = (
"348.175 221 OFFCURVE",
"321.175 148 OFFCURVE",
"275.175 103 CURVE SMOOTH",
"253.175 80 OFFCURVE",
"227.175 69 OFFCURVE",
"198.175 69 CURVE SMOOTH",
"162.175 69 OFFCURVE",
"142.175 85 OFFCURVE",
"142.175 125 CURVE SMOOTH",
"142.175 209 OFFCURVE",
"263.175 279 OFFCURVE",
"354.175 282 CURVE"
);
}
);
width = 512;
}
);
leftKerningGroup = o;
rightKerningGroup = o;
unicode = 0259;
},
{
glyphname = ezh;
lastChange = "2019-03-27 20:01:04 +0000";
layers = (
{
anchors = (
{
name = bottom;
position = "{193, 0}";
},
{
name = center;
position = "{230, 279}";
},
{
name = top;
position = "{290, 557}";
}
);
background = {
components = (
{
name = z;
transform = "{1, 0, 0, 1, -10, 0}";
},
{
name = three;
transform = "{1, 0, 0, 1, -62, -142}";
}
);
paths = (
{
closed = 1;
nodes = (
"504 538 LINE",
"478 567 LINE",
"465 556 OFFCURVE",
"445 551 OFFCURVE",
"422 551 CURVE",
"358 551 OFFCURVE",
"230 565 OFFCURVE",
"135 570 CURVE",
"63 570 OFFCURVE",
"49 513 OFFCURVE",
"49 427 CURVE SMOOTH",
"49 398 OFFCURVE",
"51 373 OFFCURVE",
"53 358 CURVE",
"94 358 LINE",
"103 397 OFFCURVE",
"128 432 OFFCURVE",
"180 432 CURVE",
"329 432 LINE",
"285 406 LINE",
"134 227 LINE",
"166 180 LINE",
"181 189 OFFCURVE",
"197 196 OFFCURVE",
"212 196 CURVE SMOOTH",
"264 196 OFFCURVE",
"280 158 OFFCURVE",
"280 109 CURVE SMOOTH",
"280 -1 OFFCURVE",
"204 -74 OFFCURVE",
"76 -74 CURVE SMOOTH",
"42 -74 OFFCURVE",
"13 -67 OFFCURVE",
"-20 -54 CURVE",
"-30 -128 LINE",
"0 -137 OFFCURVE",
"33 -151 OFFCURVE",
"94 -151 CURVE SMOOTH",
"304 -151 OFFCURVE",
"442 -54 OFFCURVE",
"442 98 CURVE SMOOTH",
"442 159 OFFCURVE",
"399 251 OFFCURVE",
"306 251 CURVE SMOOTH",
"283 251 OFFCURVE",
"269 247 OFFCURVE",
"261 245 CURVE"
);
}
);
};
layerId = "9808B12E-936F-4588-BC0B-2F1DE3B33DAD";
paths = (
{
closed = 1;
nodes = (
"324 -165 OFFCURVE",
"442 -64 OFFCURVE",
"444 91 CURVE SMOOTH",
"444 159 OFFCURVE",
"415 252 OFFCURVE",
"264 248 CURVE",
"491 535 LINE",
"474 557 LINE",
"73 557 LINE",
"55 426 LINE",
"267 426 LINE",
"212 368 LINE",
"103 218 LINE",
"179 160 LINE",
"239 160 OFFCURVE",
"290 146 OFFCURVE",
"290 89 CURVE SMOOTH",
"290 14 OFFCURVE",
"250 -30 OFFCURVE",
"95 -30 CURVE SMOOTH",
"72 -30 OFFCURVE",
"47 -29 OFFCURVE",
"24 -20 CURVE",
"5 -143 LINE",
"35 -145 OFFCURVE",
"65 -148 OFFCURVE",
"95 -150 CURVE SMOOTH"
);
}
);
width = 486;
},
{
anchors = (
{
name = bottom;
position = "{178, 0}";
},
{
name = center;
position = "{215, 279}";
},
{
name = top;
position = "{258, 557}";
}
);
background = {
components = (
{
name = z;
transform = "{1, 0, 0, 1, -20, 0}";
},
{
name = three;
transform = "{1, 0, 0, 1, -72, -142}";
}
);
};
layerId = "A8DD961D-2AAA-4421-B000-699D061D5CAD";
paths = (
{
closed = 1;
nodes = (
"273 -147 OFFCURVE",
"398 -47 OFFCURVE",
"398 101 CURVE SMOOTH",
"398 187 OFFCURVE",
"330 251 OFFCURVE",
"225 251 CURVE",
"446 526 LINE",
"430 557 LINE",
"79 557 LINE",
"70 499 LINE",
"355 499 LINE",
"270 403 LINE",
"141 241 LINE",
"184 204 LINE",
"265 210 OFFCURVE",
"321 176 OFFCURVE",
"321 90 CURVE SMOOTH",
"321 -24 OFFCURVE",
"224 -91 OFFCURVE",
"88 -91 CURVE SMOOTH",
"55 -91 OFFCURVE",
"30 -91 OFFCURVE",
"2 -86 CURVE",
"-5 -143 LINE",
"28 -144 OFFCURVE",
"60 -147 OFFCURVE",
"95 -147 CURVE SMOOTH"
);
}
);
width = 450;
},
{
anchors = (
{
name = bottom;
position = "{183, 0}";
},
{
name = center;
position = "{220, 279}";
},
{
name = top;
position = "{264, 557}";
}
);
layerId = "FC25F90A-4039-49BA-9FA9-48428CE1BED8";
paths = (
{
closed = 1;
nodes = (
"290 -147 OFFCURVE",
"411 -55 OFFCURVE",
"414 96 CURVE SMOOTH",
"415 170 OFFCURVE",
"352 248 OFFCURVE",
"247 248 CURVE",
"458 525 LINE",
"438 557 LINE",
"75 557 LINE",
"61 472 LINE",
"320 472 LINE",
"262 419 LINE",
"117 231 LINE",
"159 180 LINE",
"242 180 OFFCURVE",
"292 154 OFFCURVE",
"291 90 CURVE SMOOTH",
"291 -9 OFFCURVE",
"215 -67 OFFCURVE",
"91 -67 CURVE SMOOTH",
"58 -67 OFFCURVE",
"37 -64 OFFCURVE",
"9 -59 CURVE",
"-2 -143 LINE",
"31 -144 OFFCURVE",
"63 -147 OFFCURVE",
"98 -147 CURVE SMOOTH"
);
}
);
width = 454;
}
);
leftKerningGroup = ezh;
rightKerningGroup = ezh;
unicode = 0292;
},
{
glyphname = f;
lastChange = "2019-03-27 19:46:42 +0000";
layers = (
{
anchors = (
{
name = bottom;
position = "{150, 0}";
},
{
name = top;
position = "{292, 789}";
}
);
layerId = "9808B12E-936F-4588-BC0B-2F1DE3B33DAD";
paths = (
{
closed = 1;
nodes = (
"224 0 LINE",
"286 451 LINE",
"377 451 LINE",
"390 557 LINE",
"298 557 LINE",
"312 634 LINE SMOOTH",
"321 690 OFFCURVE",
"341 710 OFFCURVE",
"376 710 CURVE SMOOTH",
"400 710 OFFCURVE",
"428 695 OFFCURVE",
"436 687 CURVE",
"466 803 LINE",
"445 811 OFFCURVE",
"416 815 OFFCURVE",
"379 815 CURVE SMOOTH",
"292 815 OFFCURVE",
"223 779 OFFCURVE",
"180 716 CURVE SMOOTH",
"159 684 OFFCURVE",
"145 648 OFFCURVE",
"140 608 CURVE",
"130 557 LINE",
"76 557 LINE",
"56 451 LINE",
"116 451 LINE",
"54 0 LINE"
);
}
);
userData = {
assembly = "NPUSHB[ ]\011/* 10 values pushed */
9 1 2 1 10 1 0 2 2 74 
MPPEM[ ]\011/* MeasurePixelPerEm */
PUSHB[ ]\011/* 1 value pushed */
33 
LT[ ]\011/* LessThan */
IF[ ]\011/* If */
NPUSHB[ ]\011/* 29 values pushed */
0 2 2 1 91 0 1 1 27 75 7 6 2 4 4 0 89 3 1 0 0 20 75 0 5 5 18 5 76 
ELSE[ ]\011/* Else */
NPUSHB[ ]\011/* 27 values pushed */
0 1 0 2 0 1 2 99 7 6 2 4 4 0 89 3 1 0 0 20 75 0 5 5 18 5 76 
EIF[ ]\011/* EndIf */
NPUSHB[ ]\011/* 15 values pushed */
0 0 0 24 0 24 17 17 20 36 36 17 8 7 26 
CALL[ ]\011/* CallFunction */";
};
width = 374;
},
{
anchors = (
{
name = bottom;
position = "{133, 0}";
},
{
name = top;
position = "{310, 806}";
}
);
layerId = "A8DD961D-2AAA-4421-B000-699D061D5CAD";
paths = (
{
closed = 1;
nodes = (
"154 0 LINE",
"221 499 LINE",
"343 499 LINE",
"348 557 LINE",
"229 557 LINE",
"239 636 LINE SMOOTH",
"249 704 OFFCURVE",
"290 763 OFFCURVE",
"351 763 CURVE SMOOTH",
"379 763 OFFCURVE",
"401 758 OFFCURVE",
"416 748 CURVE",
"434 807 LINE",
"411 816 OFFCURVE",
"389 819 OFFCURVE",
"360 819 CURVE SMOOTH",
"288 819 OFFCURVE",
"231 784 OFFCURVE",
"198 724 CURVE SMOOTH",
"181 693 OFFCURVE",
"170 658 OFFCURVE",
"165 617 CURVE SMOOTH",
"156 557 LINE",
"85 556 LINE",
"74 499 LINE",
"148 499 LINE",
"82 0 LINE"
);
}
);
userData = {
assembly = "NPUSHB[ ]\011/* 10 values pushed */
10 1 2 1 11 1 0 2 2 74 
MPPEM[ ]\011/* MeasurePixelPerEm */
PUSHB[ ]\011/* 1 value pushed */
29 
LT[ ]\011/* LessThan */
IF[ ]\011/* If */
NPUSHB[ ]\011/* 29 values pushed */
0 2 2 1 91 0 1 1 27 75 7 6 2 4 4 0 89 3 1 0 0 20 75 0 5 5 18 5 76 
ELSE[ ]\011/* Else */
NPUSHB[ ]\011/* 27 values pushed */
0 1 0 2 0 1 2 99 7 6 2 4 4 0 89 3 1 0 0 20 75 0 5 5 18 5 76 
EIF[ ]\011/* EndIf */
NPUSHB[ ]\011/* 15 values pushed */
0 0 0 24 0 24 17 17 20 36 36 17 8 7 26 
CALL[ ]\011/* CallFunction */";
};
width = 339;
},
{
anchors = (
{
name = bottom;
position = "{135.6, 0}";
},
{
name = top;
position = "{301, 803}";
}
);
layerId = "FC25F90A-4039-49BA-9FA9-48428CE1BED8";
paths = (
{
closed = 1;
nodes = (
"176.425 0 LINE",
"240.775 475.45 LINE",
"345.85 475.45 LINE",
"353.15 557 LINE",
"252.1 557 LINE",
"262.425 630.65 LINE SMOOTH",
"271.4 695.325 OFFCURVE",
"303.8 740.15 OFFCURVE",
"352.875 740.15 CURVE",
"382.575 740.825 OFFCURVE",
"400.2 733.85 OFFCURVE",
"412.55 722.85 CURVE",
"438.525 807.35 LINE",
"417.85 816.025 OFFCURVE",
"392.875 820.025 OFFCURVE",
"363.25 820.025 CURVE SMOOTH",
"286.325 820.025 OFFCURVE",
"228.725 785.05 OFFCURVE",
"191.75 724.425 CURVE SMOOTH",
"172.075 691.075 OFFCURVE",
"158.4 650.7 OFFCURVE",
"151.725 603.65 CURVE SMOOTH",
"144.4 557 LINE",
"82.025 557 LINE",
"67.05 475.45 LINE",
"133.425 475.45 LINE",
"69.075 0 LINE"
);
}
);
width = 344.525;
}
);
leftKerningGroup = f;
note = f;
rightKerningGroup = f;
unicode = 0066;
},
{
glyphname = g;
lastChange = "2019-03-28 01:49:45 +0000";
layers = (
{
anchors = (
{
name = bottom;
position = "{237, -273}";
},
{
name = top;
position = "{374, 557}";
}
);
layerId = "9808B12E-936F-4588-BC0B-2F1DE3B33DAD";
paths = (
{
closed = 1;
nodes = (
"300 -252 OFFCURVE",
"394 -225 OFFCURVE",
"452 -156 CURVE SMOOTH",
"481 -120 OFFCURVE",
"502 -73 OFFCURVE",
"510 -14 CURVE SMOOTH",
"590 564 LINE",
"498 542 LINE",
"465 554 OFFCURVE",
"416 564 OFFCURVE",
"377 564 CURVE SMOOTH",
"233 564 OFFCURVE",
"126 489 OFFCURVE",
"74 378 CURVE SMOOTH",
"47 322 OFFCURVE",
"34 263 OFFCURVE",
"34 201 CURVE SMOOTH",
"34 77 OFFCURVE",
"83 -8 OFFCURVE",
"198 -8 CURVE SMOOTH",
"274 -8 OFFCURVE",
"328 52 OFFCURVE",
"361 125 CURVE",
"330 -47 LINE SMOOTH",
"318 -115 OFFCURVE",
"290 -150 OFFCURVE",
"225 -150 CURVE SMOOTH",
"179 -150 OFFCURVE",
"104 -122 OFFCURVE",
"85 -106 CURVE",
"60 -230 LINE",
"81 -241 OFFCURVE",
"147 -252 OFFCURVE",
"192 -252 CURVE SMOOTH"
);
},
{
closed = 1;
nodes = (
"230 111 OFFCURVE",
"216 144 OFFCURVE",
"216 211 CURVE SMOOTH",
"216 294 OFFCURVE",
"239 377 OFFCURVE",
"284 426 CURVE SMOOTH",
"306 450 OFFCURVE",
"333 462 OFFCURVE",
"365 462 CURVE SMOOTH",
"379 462 OFFCURVE",
"391 461 OFFCURVE",
"401 460 CURVE",
"379 297 LINE",
"362 236 OFFCURVE",
"308 111 OFFCURVE",
"259 111 CURVE SMOOTH"
);
}
);
userData = {
assembly = "NPUSHB[ ]\011/* 65 values pushed */
29 1 4 3 34 16 2 5 4 8 1 1 2 7 1 0 1 4 74 0 4 4 3 91 0 3 3 28 75 6 1 5 5 2 91 0 2 2 26 75 0 1 1 0 91 0 0 0 30 0 76 30 30 30 42 30 41 40 37 37 38 35 7 7 25 
CALL[ ]\011/* CallFunction */";
};
width = 620;
},
{
anchors = (
{
name = bottom;
position = "{208, -273}";
},
{
name = top;
position = "{350, 557}";
}
);
layerId = "A8DD961D-2AAA-4421-B000-699D061D5CAD";
paths = (
{
closed = 1;
nodes = (
"253 -247 OFFCURVE",
"327 -222 OFFCURVE",
"380 -162 CURVE SMOOTH",
"406 -131 OFFCURVE",
"422 -92 OFFCURVE",
"429 -43 CURVE SMOOTH",
"515 564 LINE",
"458 547 LINE",
"426 556 OFFCURVE",
"383 564 OFFCURVE",
"351 564 CURVE SMOOTH",
"216 564 OFFCURVE",
"121 481 OFFCURVE",
"74 369 CURVE SMOOTH",
"51 313 OFFCURVE",
"39 258 OFFCURVE",
"39 203 CURVE SMOOTH",
"39 72 OFFCURVE",
"91 -8 OFFCURVE",
"194 -8 CURVE SMOOTH",
"269 -8 OFFCURVE",
"339 42 OFFCURVE",
"380 102 CURVE",
"356 -45 LINE SMOOTH",
"340 -140 OFFCURVE",
"284 -191 OFFCURVE",
"195 -191 CURVE SMOOTH",
"150 -191 OFFCURVE",
"104 -181 OFFCURVE",
"75 -168 CURVE",
"56 -229 LINE",
"76 -238 OFFCURVE",
"138 -247 OFFCURVE",
"181 -247 CURVE SMOOTH"
);
},
{
closed = 1;
nodes = (
"147 49 OFFCURVE",
"114 104 OFFCURVE",
"114 212 CURVE SMOOTH",
"114 301 OFFCURVE",
"149 401 OFFCURVE",
"218 464 CURVE SMOOTH",
"252 495 OFFCURVE",
"293 511 OFFCURVE",
"340 511 CURVE SMOOTH",
"371 511 OFFCURVE",
"405 504 OFFCURVE",
"432 493 CURVE",
"385 175 LINE",
"347 114 OFFCURVE",
"278 49 OFFCURVE",
"207 49 CURVE SMOOTH"
);
}
);
userData = {
assembly = "NPUSHB[ ]\011/* 58 values pushed */
29 1 4 3 16 1 5 4 9 1 1 2 8 1 0 1 4 74 0 4 4 3 91 0 3 3 28 75 0 5 5 2 91 0 2 2 26 75 0 1 1 0 91 0 0 0 22 0 76 37 37 37 37 37 36 6 7 26 
CALL[ ]\011/* CallFunction */";
};
width = 561;
},
{
anchors = (
{
name = bottom;
position = "{214.225, -273}";
},
{
name = top;
position = "{357.9, 557}";
}
);
layerId = "FC25F90A-4039-49BA-9FA9-48428CE1BED8";
paths = (
{
closed = 1;
nodes = (
"267.525 -247.3 OFFCURVE",
"344.45 -223.65 OFFCURVE",
"399.075 -162.025 CURVE SMOOTH",
"426.05 -131.05 OFFCURVE",
"443.375 -90.75 OFFCURVE",
"450.7 -40.125 CURVE SMOOTH",
"533.05 564 LINE",
"471.2 547.025 LINE",
"436.2 556.675 OFFCURVE",
"392.55 564 OFFCURVE",
"358.575 564 CURVE SMOOTH",
"218.925 564 OFFCURVE",
"120.975 482.3 OFFCURVE",
"74 371.3 CURVE SMOOTH",
"50.35 315.3 OFFCURVE",
"38.35 258.975 OFFCURVE",
"38.35 202.675 CURVE SMOOTH",
"38.35 71.975 OFFCURVE",
"88.7 -8 OFFCURVE",
"191.3 -8 CURVE SMOOTH",
"262.625 -8 OFFCURVE",
"324.325 38.95 OFFCURVE",
"366.025 97.55 CURVE",
"341.05 -47 LINE SMOOTH",
"325.375 -128.4 OFFCURVE",
"289 -170.1 OFFCURVE",
"211.6 -170.1 CURVE SMOOTH",
"164.275 -170.1 OFFCURVE",
"113.025 -156.5 OFFCURVE",
"83.325 -141.175 CURVE",
"59.325 -229.325 LINE",
"79.325 -237.65 OFFCURVE",
"147 -247.3 OFFCURVE",
"190.325 -247.3 CURVE SMOOTH"
);
},
{
closed = 1;
nodes = (
"165.625 73.475 OFFCURVE",
"150 137.425 OFFCURVE",
"150 214.35 CURVE SMOOTH",
"150 297.35 OFFCURVE",
"179.375 389.725 OFFCURVE",
"237.775 447.1 CURVE SMOOTH",
"266.8 475.45 OFFCURVE",
"302.175 489.8 OFFCURVE",
"344.225 489.8 CURVE SMOOTH",
"369.275 489.8 OFFCURVE",
"392 486.45 OFFCURVE",
"412.725 479.425 CURVE",
"373.975 203.25 LINE",
"334.925 135.35 OFFCURVE",
"273.85 73.475 OFFCURVE",
"215.45 73.475 CURVE SMOOTH"
);
}
);
width = 573.775;
}
);
leftKerningGroup = a;
note = g;
rightKerningGroup = g;
unicode = 0067;
},
{
glyphname = h;
lastChange = "2019-02-18 20:31:10 +0000";
layers = (
{
anchors = (
{
name = bottom;
position = "{284, 0}";
},
{
name = center;
position = "{349, 492}";
},
{
name = top;
position = "{229, 758}";
}
);
layerId = "9808B12E-936F-4588-BC0B-2F1DE3B33DAD";
paths = (
{
closed = 1;
nodes = (
"208 0 LINE",
"254 341 LINE",
"282 396 OFFCURVE",
"327 433 OFFCURVE",
"363 433 CURVE SMOOTH",
"391 433 OFFCURVE",
"404 420 OFFCURVE",
"403 385 CURVE SMOOTH",
"402 361 OFFCURVE",
"397 316 OFFCURVE",
"389 249 CURVE SMOOTH",
"381 183 OFFCURVE",
"370 100 OFFCURVE",
"355 0 CURVE",
"529 0 LINE",
"538 50 OFFCURVE",
"584 395 OFFCURVE",
"584 417 CURVE SMOOTH",
"584 522 OFFCURVE",
"537 564 OFFCURVE",
"449 564 CURVE SMOOTH",
"374 564 OFFCURVE",
"309 522 OFFCURVE",
"265 450 CURVE",
"279 523 LINE",
"315 798 LINE",
"146 798 LINE",
"38 0 LINE"
);
}
);
userData = {
assembly = "PUSHB[ ]\011/* 6 values pushed */
26 1 1 4 1 74 
MPPEM[ ]\011/* MeasurePixelPerEm */
PUSHB[ ]\011/* 1 value pushed */
33 
LT[ ]\011/* LessThan */
IF[ ]\011/* If */
NPUSHB[ ]\011/* 26 values pushed */
0 1 4 0 4 1 0 112 0 3 3 19 75 5 1 4 4 28 75 2 1 0 0 18 0 76 
ELSE[ ]\011/* Else */
NPUSHB[ ]\011/* 32 values pushed */
0 1 4 0 4 1 0 112 0 3 3 0 89 2 1 0 0 18 75 5 1 4 4 28 75 2 1 0 0 18 0 76 
EIF[ ]\011/* EndIf */
NPUSHB[ ]\011/* 13 values pushed */
0 0 0 29 0 28 17 19 38 25 6 7 24 
CALL[ ]\011/* CallFunction */";
};
width = 642;
},
{
anchors = (
{
name = bottom;
position = "{256, 0}";
},
{
name = center;
position = "{321, 492}";
},
{
name = top;
position = "{185, 758}";
}
);
layerId = "A8DD961D-2AAA-4421-B000-699D061D5CAD";
paths = (
{
closed = 1;
nodes = (
"120 0 LINE",
"167 352 LINE",
"213 415 OFFCURVE",
"306 497 OFFCURVE",
"377 497 CURVE SMOOTH",
"428 497 OFFCURVE",
"445 474 OFFCURVE",
"445 421 CURVE SMOOTH",
"445 388 OFFCURVE",
"438 343 OFFCURVE",
"425 250 CURVE SMOOTH",
"423 238 OFFCURVE",
"391 22 OFFCURVE",
"387 0 CURVE",
"460 0 LINE",
"501 261 OFFCURVE",
"519 391 OFFCURVE",
"519 427 CURVE SMOOTH",
"519 520 OFFCURVE",
"485 564 OFFCURVE",
"406 564 CURVE SMOOTH",
"326 564 OFFCURVE",
"237 504 OFFCURVE",
"174 425 CURVE",
"196 565 LINE",
"223 799 LINE",
"150 799 LINE",
"47 0 LINE"
);
}
);
userData = {
assembly = "NPUSHB[ ]\011/* 42 values pushed */
29 1 0 1 1 74 0 3 3 19 75 0 1 1 4 91 5 1 4 4 28 75 2 1 0 0 18 0 76 0 0 0 32 0 31 17 20 41 24 6 7 24 
CALL[ ]\011/* CallFunction */";
};
width = 585;
},
{
anchors = (
{
name = bottom;
position = "{260.55, 0}";
},
{
name = center;
position = "{325.55, 492}";
},
{
name = top;
position = "{196.2, 758}";
}
);
layerId = "FC25F90A-4039-49BA-9FA9-48428CE1BED8";
paths = (
{
closed = 1;
nodes = (
"149.375 0 LINE",
"197.375 350.35 LINE",
"234.75 400.65 OFFCURVE",
"322.675 469.175 OFFCURVE",
"372.375 469.175 CURVE SMOOTH",
"406.75 469.175 OFFCURVE",
"421.425 457.175 OFFCURVE",
"421.425 412.775 CURVE SMOOTH",
"421.425 388.65 OFFCURVE",
"416.375 347.375 OFFCURVE",
"407.3 282.525 CURVE SMOOTH",
"393.225 186.825 OFFCURVE",
"383.85 126.2 OFFCURVE",
"366.725 0 CURVE",
"475.4 0 LINE",
"512.875 246.175 OFFCURVE",
"532.075 388.375 OFFCURVE",
"532.075 422.025 CURVE SMOOTH",
"532.075 523 OFFCURVE",
"495.125 564 OFFCURVE",
"419.525 564 CURVE SMOOTH",
"343.175 564 OFFCURVE",
"263.1 515.65 OFFCURVE",
"206.375 445.3 CURVE",
"224.725 559.175 LINE",
"252.35 799.675 LINE",
"145 799.675 LINE",
"42.35 0 LINE"
);
}
);
width = 594.1;
}
);
leftKerningGroup = h;
note = h;
rightKerningGroup = n;
unicode = 0068;
},
{
glyphname = hbar;
lastChange = "2019-02-18 20:31:10 +0000";
layers = (
{
components = (
{
name = h;
}
);
layerId = "9808B12E-936F-4588-BC0B-2F1DE3B33DAD";
paths = (
{
closed = 1;
nodes = (
"395 616 LINE",
"402 680 LINE",
"69 680 LINE",
"62 616 LINE"
);
}
);
userData = {
assembly = "PUSHB[ ]\011/* 6 values pushed */
34 1 1 8 1 74 
MPPEM[ ]\011/* MeasurePixelPerEm */
PUSHB[ ]\011/* 1 value pushed */
33 
LT[ ]\011/* LessThan */
IF[ ]\011/* If */
NPUSHB[ ]\011/* 36 values pushed */
0 1 8 0 8 1 0 112 6 1 4 7 1 3 8 4 3 98 0 5 5 19 75 9 1 8 8 28 75 2 1 0 0 18 0 76 
ELSE[ ]\011/* Else */
NPUSHB[ ]\011/* 36 values pushed */
0 5 4 5 114 0 1 8 0 8 1 0 112 6 1 4 7 1 3 8 4 3 98 9 1 8 8 28 75 2 1 0 0 18 0 76 
EIF[ ]\011/* EndIf */
NPUSHB[ ]\011/* 17 values pushed */
0 0 0 37 0 36 17 17 17 17 17 19 38 25 10 7 28 
CALL[ ]\011/* CallFunction */";
};
width = 642;
},
{
components = (
{
name = h;
}
);
layerId = "A8DD961D-2AAA-4421-B000-699D061D5CAD";
paths = (
{
closed = 1;
nodes = (
"349 631 LINE",
"355 680 LINE",
"71 680 LINE",
"65 631 LINE"
);
}
);
userData = {
assembly = "NPUSHB[ ]\011/* 56 values pushed */
37 1 0 1 1 74 6 1 4 7 1 3 8 4 3 98 0 5 5 19 75 0 1 1 8 91 9 1 8 8 28 75 2 1 0 0 18 0 76 0 0 0 40 0 39 17 17 17 17 17 20 41 24 10 7 28 
CALL[ ]\011/* CallFunction */";
};
width = 585;
},
{
components = (
{
alignment = -1;
name = h;
}
);
layerId = "FC25F90A-4039-49BA-9FA9-48428CE1BED8";
paths = (
{
closed = 1;
nodes = (
"356.475 616 LINE",
"363.475 680 LINE",
"71.675 680 LINE",
"63.675 616 LINE"
);
}
);
width = 594.1;
}
);
leftKerningGroup = h;
note = hbar;
rightKerningGroup = n;
rightMetricsKey = h;
unicode = 0127;
},
{
glyphname = idotless;
lastChange = "2019-02-18 20:31:10 +0000";
layers = (
{
anchors = (
{
name = bottom;
position = "{125, 0}";
},
{
name = ogonek;
position = "{227, 10}";
},
{
name = top;
position = "{199, 557}";
}
);
layerId = "9808B12E-936F-4588-BC0B-2F1DE3B33DAD";
paths = (
{
closed = 1;
nodes = (
"213 0 LINE",
"291 557 LINE",
"115 557 LINE",
"39 0 LINE"
);
}
);
userData = {
assembly = "NPUSHB[ ]\011/* 22 values pushed */
2 1 1 1 20 75 0 0 0 18 0 76 0 0 0 3 0 3 17 3 7 21 
CALL[ ]\011/* CallFunction */";
};
width = 324;
},
{
anchors = (
{
name = bottom;
position = "{101, 0}";
},
{
name = ogonek;
position = "{173, 10}";
},
{
name = top;
position = "{175, 557}";
}
);
layerId = "A8DD961D-2AAA-4421-B000-699D061D5CAD";
paths = (
{
closed = 1;
nodes = (
"137 0 LINE",
"213 559 LINE",
"140 559 LINE",
"65 0 LINE"
);
}
);
userData = {
assembly = "NPUSHB[ ]\011/* 22 values pushed */
2 1 1 1 20 75 0 0 0 18 0 76 0 0 0 3 0 3 17 3 7 21 
CALL[ ]\011/* CallFunction */";
};
width = 275;
},
{
anchors = (
{
name = bottom;
position = "{109.25, 0}";
},
{
name = ogonek;
position = "{187.85, 10}";
},
{
name = top;
position = "{183.25, 557}";
}
);
layerId = "FC25F90A-4039-49BA-9FA9-48428CE1BED8";
paths = (
{
closed = 1;
nodes = (
"165.425 0 LINE",
"240.75 557 LINE",
"132.75 557 LINE",
"57.425 0 LINE"
);
}
);
width = 291.5;
}
);
leftKerningGroup = idotless;
note = dotlessi;
rightKerningGroup = idotless;
unicode = 0131;
},
{
glyphname = jdotless;
lastChange = "2019-03-25 15:16:18 +0000";
layers = (
{
anchors = (
{
name = bottom;
position = "{89, -273}";
},
{
name = top;
position = "{207, 557}";
}
);
layerId = "9808B12E-936F-4588-BC0B-2F1DE3B33DAD";
paths = (
{
closed = 1;
nodes = (
"91 -258 OFFCURVE",
"194 -150 OFFCURVE",
"213 0 CURVE SMOOTH",
"291 557 LINE",
"115 557 LINE",
"43 32 LINE SMOOTH",
"32 -46 OFFCURVE",
"-10 -157 OFFCURVE",
"-72 -157 CURVE SMOOTH",
"-80 -157 OFFCURVE",
"-94 -153 OFFCURVE",
"-99 -150 CURVE",
"-134 -241 LINE",
"-119 -253 OFFCURVE",
"-86 -258 OFFCURVE",
"-46 -258 CURVE SMOOTH"
);
}
);
userData = {
assembly = "NPUSHB[ ]\011/* 38 values pushed */
9 1 1 2 8 1 0 1 2 74 3 1 2 2 20 75 0 1 1 0 91 0 0 0 30 0 76 0 0 0 16 0 16 36 36 4 7 22 
CALL[ ]\011/* CallFunction */";
};
width = 324;
},
{
anchors = (
{
name = bottom;
position = "{68, -273}";
},
{
name = top;
position = "{184, 557}";
}
);
layerId = "A8DD961D-2AAA-4421-B000-699D061D5CAD";
paths = (
{
closed = 1;
nodes = (
"52 -251 OFFCURVE",
"121 -159 OFFCURVE",
"142 2 CURVE SMOOTH",
"217 559 LINE",
"144 559 LINE",
"73 29 LINE SMOOTH",
"57 -96 OFFCURVE",
"31 -201 OFFCURVE",
"-63 -201 CURVE SMOOTH",
"-76 -201 OFFCURVE",
"-93 -196 OFFCURVE",
"-100 -191 CURVE",
"-119 -233 LINE",
"-106 -244 OFFCURVE",
"-82 -251 OFFCURVE",
"-53 -251 CURVE SMOOTH"
);
}
);
userData = {
assembly = "NPUSHB[ ]\011/* 38 values pushed */
8 1 1 2 7 1 0 1 2 74 3 1 2 2 20 75 0 1 1 0 91 0 0 0 22 0 76 0 0 0 16 0 16 37 35 4 7 22 
CALL[ ]\011/* CallFunction */";
};
width = 281;
},
{
anchors = (
{
name = bottom;
position = "{72.25, -273}";
},
{
name = top;
position = "{190, 557}";
}
);
layerId = "FC25F90A-4039-49BA-9FA9-48428CE1BED8";
paths = (
{
closed = 1;
nodes = (
"73.225 -251.975 OFFCURVE",
"145.75 -138.95 OFFCURVE",
"164.75 1.675 CURVE SMOOTH",
"240.075 557 LINE",
"131.75 557 LINE",
"60.75 33.675 LINE SMOOTH",
"45.1 -79.65 OFFCURVE",
"24.725 -180.45 OFFCURVE",
"-62.625 -180.45 CURVE SMOOTH",
"-69.625 -180.45 OFFCURVE",
"-82.65 -177.775 OFFCURVE",
"-87.65 -174.1 CURVE",
"-115.575 -233.625 LINE",
"-98.55 -245.975 OFFCURVE",
"-74.275 -251.975 OFFCURVE",
"-46.675 -251.975 CURVE SMOOTH"
);
}
);
width = 289.825;
}
);
leftKerningGroup = jdotless;
note = uni0237;
rightKerningGroup = jdotless;
unicode = 0237;
},
{
glyphname = k;
lastChange = "2019-02-18 20:31:10 +0000";
layers = (
{
anchors = (
{
name = bottom;
position = "{263, 0}";
},
{
name = top;
position = "{393, 983}";
}
);
layerId = "9808B12E-936F-4588-BC0B-2F1DE3B33DAD";
paths = (
{
closed = 1;
nodes = (
"208 0 LINE",
"316 798 LINE",
"146 798 LINE",
"38 0 LINE"
);
},
{
closed = 1;
nodes = (
"585 0 LINE",
"427 304 LINE",
"512 351 OFFCURVE",
"592 456 OFFCURVE",
"596 557 CURVE",
"424 557 LINE",
"400 460 OFFCURVE",
"331 345 OFFCURVE",
"265 308 CURVE",
"386 0 LINE"
);
}
);
userData = {
assembly = "PUSHB[ ]\011/* 7 values pushed */
9 6 2 0 3 1 74 
MPPEM[ ]\011/* MeasurePixelPerEm */
PUSHB[ ]\011/* 1 value pushed */
33 
LT[ ]\011/* LessThan */
IF[ ]\011/* If */
NPUSHB[ ]\011/* 18 values pushed */
4 1 1 1 19 75 0 3 3 20 75 2 1 0 0 18 0 76 
ELSE[ ]\011/* Else */
NPUSHB[ ]\011/* 24 values pushed */
4 1 1 1 0 89 2 1 0 0 18 75 0 3 3 20 75 2 1 0 0 18 0 76 
EIF[ ]\011/* EndIf */
NPUSHB[ ]\011/* 14 values pushed */
0 0 18 17 8 7 0 3 0 3 17 5 7 21 
CALL[ ]\011/* CallFunction */";
};
width = 599;
},
{
anchors = (
{
name = bottom;
position = "{213, 0}";
},
{
name = top;
position = "{343, 983}";
}
);
layerId = "A8DD961D-2AAA-4421-B000-699D061D5CAD";
paths = (
{
closed = 1;
nodes = (
"120 0 LINE",
"221 799 LINE",
"149 799 LINE",
"47 0 LINE"
);
},
{
closed = 1;
nodes = (
"472 1 LINE",
"267 296 LINE",
"376 348 OFFCURVE",
"479 447 OFFCURVE",
"490 557 CURVE",
"420 557 LINE",
"382 437 OFFCURVE",
"302 375 OFFCURVE",
"183 307 CURVE",
"388 1 LINE"
);
}
);
userData = {
assembly = "NPUSHB[ ]\011/* 39 values pushed */
9 6 2 0 3 1 74 4 1 1 1 19 75 0 3 3 20 75 2 1 0 0 18 0 76 0 0 17 16 8 7 0 3 0 3 17 5 7 21 
CALL[ ]\011/* CallFunction */";
};
width = 500;
},
{
anchors = (
{
name = bottom;
position = "{224.475, 0}";
},
{
name = top;
position = "{354.475, 983}";
}
);
layerId = "FC25F90A-4039-49BA-9FA9-48428CE1BED8";
paths = (
{
closed = 1;
nodes = (
"149.375 0 LINE",
"252.35 799.675 LINE",
"145 799.675 LINE",
"42.35 0 LINE"
);
},
{
closed = 1;
nodes = (
"497.225 1.675 LINE",
"323.15 294.95 LINE",
"415.2 342.675 OFFCURVE",
"516.625 456.225 OFFCURVE",
"525.65 557 CURVE",
"421.325 557 LINE",
"388.575 461.875 OFFCURVE",
"300.85 361.725 OFFCURVE",
"207.375 309.675 CURVE",
"372.6 1.675 LINE"
);
}
);
width = 522.95;
}
);
leftKerningGroup = h;
note = k;
rightKerningGroup = k;
unicode = 006B;
},
{
glyphname = kgreenlandic;
lastChange = "2019-02-18 20:31:10 +0000";
layers = (
{
layerId = "9808B12E-936F-4588-BC0B-2F1DE3B33DAD";
paths = (
{
closed = 1;
nodes = (
"584 0 LINE",
"427 304 LINE",
"512 351 OFFCURVE",
"591 457 OFFCURVE",
"595 557 CURVE",
"423 557 LINE",
"400 465 OFFCURVE",
"332 338 OFFCURVE",
"265 301 CURVE",
"396 0 LINE"
);
},
{
closed = 1;
nodes = (
"211 0 LINE",
"287 557 LINE",
"113 557 LINE",
"37 0 LINE"
);
}
);
userData = {
assembly = "NPUSHB[ ]\011/* 35 values pushed */
9 6 2 0 1 1 74 3 4 2 1 1 20 75 2 1 0 0 18 0 76 0 0 18 17 8 7 0 3 0 3 17 5 7 21 
CALL[ ]\011/* CallFunction */";
};
width = 598;
},
{
layerId = "A8DD961D-2AAA-4421-B000-699D061D5CAD";
paths = (
{
closed = 1;
nodes = (
"472 0 LINE",
"267 294 LINE",
"371 347 OFFCURVE",
"484 450 OFFCURVE",
"492 562 CURVE",
"422 562 LINE",
"398 455 OFFCURVE",
"298 371 OFFCURVE",
"183 305 CURVE",
"388 0 LINE"
);
},
{
closed = 1;
nodes = (
"113 0 LINE",
"188 562 LINE",
"116 562 LINE",
"41 0 LINE"
);
}
);
userData = {
assembly = "NPUSHB[ ]\011/* 35 values pushed */
10 7 2 0 1 1 74 3 4 2 1 1 20 75 2 1 0 0 18 0 76 0 0 17 16 9 8 0 3 0 3 17 5 7 21 
CALL[ ]\011/* CallFunction */";
};
width = 500;
},
{
layerId = "FC25F90A-4039-49BA-9FA9-48428CE1BED8";
paths = (
{
closed = 1;
nodes = (
"496.9 0 LINE",
"323.15 293.625 LINE",
"416.525 340.95 OFFCURVE",
"518.325 455.35 OFFCURVE",
"528 563.025 CURVE",
"423.675 563.025 LINE",
"388.25 457.625 OFFCURVE",
"307.125 363.725 OFFCURVE",
"208.375 308 CURVE",
"374.225 0 LINE"
);
},
{
closed = 1;
nodes = (
"148.35 0 LINE",
"224.35 563.025 LINE",
"116.35 563.025 LINE",
"40.35 0 LINE"
);
}
);
width = 522.625;
}
);
leftKerningGroup = h;
note = kgreenlandic;
rightKerningGroup = k;
unicode = 0138;
},
{
glyphname = l;
lastChange = "2019-02-18 20:31:10 +0000";
layers = (
{
anchors = (
{
name = bottom;
position = "{130, 0}";
},
{
name = center;
position = "{191, 492}";
},
{
name = top;
position = "{232, 784}";
},
{
name = topright;
position = "{357, 711}";
}
);
layerId = "9808B12E-936F-4588-BC0B-2F1DE3B33DAD";
paths = (
{
closed = 1;
nodes = (
"215 0 LINE",
"323 798 LINE",
"148 798 LINE",
"41 0 LINE"
);
}
);
userData = {
assembly = "MPPEM[ ]\011/* MeasurePixelPerEm */
PUSHB[ ]\011/* 1 value pushed */
33 
LT[ ]\011/* LessThan */
IF[ ]\011/* If */
NPUSHB[ ]\011/* 12 values pushed */
2 1 1 1 19 75 0 0 0 18 0 76 
ELSE[ ]\011/* Else */
NPUSHB[ ]\011/* 12 values pushed */
2 1 1 1 0 89 0 0 0 18 0 76 
EIF[ ]\011/* EndIf */
NPUSHB[ ]\011/* 10 values pushed */
0 0 0 3 0 3 17 3 7 21 
CALL[ ]\011/* CallFunction */";
};
width = 325;
},
{
anchors = (
{
name = bottom;
position = "{104, 0}";
},
{
name = center;
position = "{166, 492}";
},
{
name = top;
position = "{207, 778}";
},
{
name = topright;
position = "{317, 711}";
}
);
layerId = "A8DD961D-2AAA-4421-B000-699D061D5CAD";
paths = (
{
closed = 1;
nodes = (
"138 1 LINE",
"246 799 LINE",
"174 799 LINE",
"65 1 LINE"
);
}
);
userData = {
assembly = "NPUSHB[ ]\011/* 22 values pushed */
2 1 1 1 19 75 0 0 0 18 0 76 0 0 0 3 0 3 17 3 7 21 
CALL[ ]\011/* CallFunction */";
};
width = 275;
},
{
anchors = (
{
name = bottom;
position = "{114.9, 0}";
},
{
name = center;
position = "{174.25, 492}";
},
{
name = top;
position = "{215.575, 778}";
},
{
name = topright;
position = "{336.75, 711}";
}
);
layerId = "FC25F90A-4039-49BA-9FA9-48428CE1BED8";
paths = (
{
closed = 1;
nodes = (
"165.75 1.675 LINE",
"274.425 799.675 LINE",
"166.425 799.675 LINE",
"57.75 1.675 LINE"
);
}
);
width = 291.5;
}
);
leftKerningGroup = h;
note = l;
rightKerningGroup = l;
unicode = 006C;
},
{
glyphname = lcaron;
lastChange = "2019-02-18 20:31:10 +0000";
layers = (
{
components = (
{
alignment = -1;
name = l;
}
);
layerId = "9808B12E-936F-4588-BC0B-2F1DE3B33DAD";
paths = (
{
closed = 1;
nodes = (
"491 539 OFFCURVE",
"518 633 OFFCURVE",
"518 714 CURVE SMOOTH",
"518 755 OFFCURVE",
"511 794 OFFCURVE",
"499 806 CURVE",
"387 783 LINE",
"378 762 LINE",
"386 751 OFFCURVE",
"390 718 OFFCURVE",
"390 664 CURVE SMOOTH",
"390 609 OFFCURVE",
"382 549 OFFCURVE",
"370 517 CURVE",
"373 505 LINE",
"446 491 LINE"
);
}
);
width = 411;
},
{
components = (
{
alignment = -1;
name = l;
}
);
layerId = "A8DD961D-2AAA-4421-B000-699D061D5CAD";
paths = (
{
closed = 1;
nodes = (
"397 545 OFFCURVE",
"422 628 OFFCURVE",
"425 697 CURVE",
"425 737 OFFCURVE",
"425 779 OFFCURVE",
"411 809 CURVE",
"346 792 LINE",
"343 780 LINE",
"351 767 OFFCURVE",
"357 735 OFFCURVE",
"357 696 CURVE SMOOTH",
"357 643 OFFCURVE",
"345 585 OFFCURVE",
"322 520 CURVE",
"324 510 LINE",
"362 496 LINE"
);
}
);
width = 387;
},
{
components = (
{
alignment = -1;
name = l;
}
);
layerId = "FC25F90A-4039-49BA-9FA9-48428CE1BED8";
paths = (
{
closed = 1;
nodes = (
"430.375 541.35 OFFCURVE",
"454.35 628.975 OFFCURVE",
"454.35 696.575 CURVE SMOOTH",
"454.35 748.275 OFFCURVE",
"450.375 782.275 OFFCURVE",
"439.375 805.325 CURVE",
"348.475 783 LINE",
"343.5 766.35 LINE",
"352.5 752 OFFCURVE",
"358.175 712.025 OFFCURVE",
"358.175 672.375 CURVE SMOOTH",
"358.175 625.425 OFFCURVE",
"350.525 572.825 OFFCURVE",
"338.175 521.35 CURVE",
"341.175 509.025 LINE",
"394.075 490.325 LINE"
);
}
);
width = 387.55;
}
);
leftKerningGroup = h;
note = lcaron;
rightKerningGroup = l;
unicode = 013E;
},
{
glyphname = lslash;
lastChange = "2019-03-28 04:35:48 +0000";
layers = (
{
layerId = "9808B12E-936F-4588-BC0B-2F1DE3B33DAD";
paths = (
{
closed = 1;
nodes = (
"215 0 LINE",
"272 419 LINE",
"372 458 LINE",
"372 560 LINE",
"286 524 LINE",
"323 798 LINE",
"148 798 LINE",
"101 449 LINE",
"5 410 LINE",
"5 313 LINE",
"87 346 LINE",
"41 0 LINE"
);
}
);
userData = {
assembly = "NPUSHB[ ]\011/* 11 values pushed */
11 10 6 5 4 0 6 0 1 1 74 
MPPEM[ ]\011/* MeasurePixelPerEm */
PUSHB[ ]\011/* 1 value pushed */
33 
LT[ ]\011/* LessThan */
IF[ ]\011/* If */
NPUSHB[ ]\011/* 11 values pushed */
0 1 1 19 75 0 0 0 18 0 76 
ELSE[ ]\011/* Else */
NPUSHB[ ]\011/* 11 values pushed */
0 1 1 0 89 0 0 0 18 0 76 
EIF[ ]\011/* EndIf */
PUSHB[ ]\011/* 5 values pushed */
21 18 2 7 22 
CALL[ ]\011/* CallFunction */";
};
width = 325;
},
{
layerId = "A8DD961D-2AAA-4421-B000-699D061D5CAD";
paths = (
{
closed = 1;
nodes = (
"126 1 LINE",
"190 472 LINE",
"279 507 LINE",
"279 562 LINE",
"198 529 LINE",
"234 799 LINE",
"162 799 LINE",
"121 497 LINE",
"38 463 LINE",
"38 412 LINE",
"113 442 LINE",
"53 1 LINE"
);
}
);
userData = {
assembly = "NPUSHB[ ]\011/* 27 values pushed */
11 10 6 5 4 0 6 0 1 1 74 0 1 1 19 75 0 0 0 18 0 76 21 18 2 7 22 
CALL[ ]\011/* CallFunction */";
};
width = 263;
},
{
layerId = "FC25F90A-4039-49BA-9FA9-48428CE1BED8";
paths = (
{
closed = 1;
nodes = (
"170 2 LINE",
"231 451 LINE",
"317 484 LINE",
"317 561 LINE",
"242 530 LINE",
"278 800 LINE",
"170 800 LINE",
"127 483 LINE",
"40 447 LINE",
"40 375 LINE",
"117 406 LINE",
"62 2 LINE"
);
}
);
width = 300;
}
);
leftKerningGroup = lslash;
note = lslash;
rightKerningGroup = lslash;
unicode = 0142;
},
{
glyphname = m;
lastChange = "2019-03-27 02:46:47 +0000";
layers = (
{
anchors = (
{
name = bottom;
position = "{443, 0}";
},
{
name = top;
position = "{517, 557}";
}
);
layerId = "9808B12E-936F-4588-BC0B-2F1DE3B33DAD";
paths = (
{
closed = 1;
nodes = (
"211 0 LINE",
"259 345 LINE",
"288 397 OFFCURVE",
"333 433 OFFCURVE",
"368 433 CURVE SMOOTH",
"396 433 OFFCURVE",
"409 420 OFFCURVE",
"408 385 CURVE SMOOTH",
"407 361 OFFCURVE",
"402 316 OFFCURVE",
"394 249 CURVE SMOOTH",
"386 183 OFFCURVE",
"375 100 OFFCURVE",
"360 0 CURVE",
"534 0 LINE",
"536 9 OFFCURVE",
"564 209 OFFCURVE",
"577 303 CURVE SMOOTH",
"580 328 OFFCURVE",
"582 345 OFFCURVE",
"583 350 CURVE",
"611 401 OFFCURVE",
"651 433 OFFCURVE",
"684 433 CURVE SMOOTH",
"712 433 OFFCURVE",
"725 420 OFFCURVE",
"724 385 CURVE SMOOTH",
"723 357 OFFCURVE",
"716 304 OFFCURVE",
"709 249 CURVE SMOOTH",
"701 186 OFFCURVE",
"690 103 OFFCURVE",
"676 0 CURVE",
"850 0 LINE",
"862 83 OFFCURVE",
"873 166 OFFCURVE",
"885 249 CURVE SMOOTH",
"898 344 OFFCURVE",
"904 400 OFFCURVE",
"904 417 CURVE SMOOTH",
"904 522 OFFCURVE",
"858 564 OFFCURVE",
"773 564 CURVE SMOOTH",
"697 564 OFFCURVE",
"632 522 OFFCURVE",
"587 453 CURVE",
"578 532 OFFCURVE",
"533 564 OFFCURVE",
"458 564 CURVE SMOOTH",
"383 564 OFFCURVE",
"321 525 OFFCURVE",
"274 458 CURVE",
"281 557 LINE",
"113 557 LINE",
"37 0 LINE"
);
}
);
userData = {
assembly = "PUSHB[ ]\011/* 7 values pushed */
48 42 2 1 5 1 74 
MPPEM[ ]\011/* MeasurePixelPerEm */
PUSHB[ ]\011/* 1 value pushed */
31 
LT[ ]\011/* LessThan */
IF[ ]\011/* If */
NPUSHB[ ]\011/* 25 values pushed */
3 1 1 5 0 5 1 0 112 8 7 6 3 5 5 20 75 4 2 2 0 0 18 0 76 
ELSE[ ]\011/* Else */
NPUSHB[ ]\011/* 29 values pushed */
3 1 1 5 0 5 1 0 112 8 7 2 6 6 28 75 0 5 5 20 75 4 2 2 0 0 18 0 76 
EIF[ ]\011/* EndIf */
NPUSHB[ ]\011/* 16 values pushed */
0 0 0 51 0 50 35 17 19 38 26 39 22 9 7 27 
CALL[ ]\011/* CallFunction */";
};
width = 959;
},
{
anchors = (
{
name = bottom;
position = "{398, 0}";
},
{
name = top;
position = "{472, 557}";
}
);
layerId = "A8DD961D-2AAA-4421-B000-699D061D5CAD";
paths = (
{
closed = 1;
nodes = (
"118 1 LINE",
"166 354 LINE",
"202 410 OFFCURVE",
"303 498 OFFCURVE",
"357 498 CURVE SMOOTH",
"405 498 OFFCURVE",
"423 476 OFFCURVE",
"423 421 CURVE SMOOTH",
"423 388 OFFCURVE",
"416 342 OFFCURVE",
"403 250 CURVE SMOOTH",
"380 97 OFFCURVE",
"371 38 OFFCURVE",
"366 1 CURVE",
"438 1 LINE",
"464 171 OFFCURVE",
"475 237 OFFCURVE",
"478 264 CURVE SMOOTH",
"487 321 OFFCURVE",
"492 362 OFFCURVE",
"494 386 CURVE",
"546 449 OFFCURVE",
"616 497 OFFCURVE",
"665 497 CURVE SMOOTH",
"713 497 OFFCURVE",
"731 474 OFFCURVE",
"731 421 CURVE SMOOTH",
"731 390 OFFCURVE",
"724 333 OFFCURVE",
"711 250 CURVE SMOOTH",
"711 249 OFFCURVE",
"680 44 OFFCURVE",
"674 1 CURVE",
"747 1 LINE",
"770 148 OFFCURVE",
"781 218 OFFCURVE",
"785 250 CURVE SMOOTH",
"798 337 OFFCURVE",
"805 396 OFFCURVE",
"805 426 CURVE SMOOTH",
"805 525 OFFCURVE",
"769 564 OFFCURVE",
"694 564 CURVE SMOOTH",
"626 564 OFFCURVE",
"552 517 OFFCURVE",
"496 452 CURVE",
"491 528 OFFCURVE",
"456 564 OFFCURVE",
"387 564 CURVE SMOOTH",
"314 564 OFFCURVE",
"233 509 OFFCURVE",
"176 433 CURVE",
"190 557 LINE",
"121 557 LINE",
"45 1 LINE"
);
}
);
userData = {
assembly = "PUSHB[ ]\011/* 7 values pushed */
51 45 2 0 1 1 74 
MPPEM[ ]\011/* MeasurePixelPerEm */
PUSHB[ ]\011/* 1 value pushed */
31 
LT[ ]\011/* LessThan */
IF[ ]\011/* If */
NPUSHB[ ]\011/* 22 values pushed */
3 1 1 1 5 91 8 7 6 3 5 5 20 75 4 2 2 0 0 18 0 76 
ELSE[ ]\011/* Else */
NPUSHB[ ]\011/* 26 values pushed */
0 5 5 20 75 3 1 1 1 6 91 8 7 2 6 6 28 75 4 2 2 0 0 18 0 76 
EIF[ ]\011/* EndIf */
NPUSHB[ ]\011/* 16 values pushed */
0 0 0 54 0 53 35 17 20 40 24 40 23 9 7 27 
CALL[ ]\011/* CallFunction */";
};
width = 870;
},
{
anchors = (
{
name = bottom;
position = "{402.8, 0}";
},
{
name = top;
position = "{476.8, 557}";
}
);
layerId = "FC25F90A-4039-49BA-9FA9-48428CE1BED8";
paths = (
{
closed = 1;
nodes = (
"148.35 1.675 LINE",
"196.35 352.025 LINE",
"232 404.6 OFFCURVE",
"312.225 469.175 OFFCURVE",
"357.275 469.175 CURVE SMOOTH",
"392.325 469.175 OFFCURVE",
"407 456.5 OFFCURVE",
"407 412.775 CURVE SMOOTH",
"407 395.325 OFFCURVE",
"401 344 OFFCURVE",
"393.325 283.7 CURVE SMOOTH",
"378.65 173.475 OFFCURVE",
"357.65 31.375 OFFCURVE",
"353.3 1.675 CURVE",
"461.3 1.675 LINE",
"477.625 109.55 OFFCURVE",
"487.95 176.15 OFFCURVE",
"501.225 273.425 CURVE SMOOTH",
"507.6 315.7 OFFCURVE",
"511.975 349.925 OFFCURVE",
"514.325 375.425 CURVE",
"559.4 429.8 OFFCURVE",
"618.5 469.175 OFFCURVE",
"658.2 469.175 CURVE SMOOTH",
"693.925 469.175 OFFCURVE",
"707.925 457.175 OFFCURVE",
"707.925 412.775 CURVE SMOOTH",
"707.925 388.65 OFFCURVE",
"702.875 347.375 OFFCURVE",
"693.8 282.525 CURVE SMOOTH",
"673.85 142.15 OFFCURVE",
"663.45 77.275 OFFCURVE",
"653.55 1.675 CURVE",
"761.9 1.675 LINE",
"778.875 111.825 OFFCURVE",
"789.2 180.05 OFFCURVE",
"798.575 250.675 CURVE SMOOTH",
"811.575 341.675 OFFCURVE",
"818.575 398.35 OFFCURVE",
"818.575 422.025 CURVE SMOOTH",
"818.575 523 OFFCURVE",
"782.625 564 OFFCURVE",
"706 564 CURVE SMOOTH",
"639.7 564 OFFCURVE",
"569.35 523 OFFCURVE",
"515.65 460.7 CURVE",
"507.325 533.675 OFFCURVE",
"470.025 564 OFFCURVE",
"405.075 564 CURVE SMOOTH",
"335.425 564 OFFCURVE",
"262.725 519.65 OFFCURVE",
"209.675 453.3 CURVE",
"219.025 557 LINE",
"115.675 557 LINE",
"40.35 1.675 LINE"
);
}
);
width = 879.6;
}
);
leftKerningGroup = n;
note = m;
rightKerningGroup = n;
unicode = 006D;
},
{
glyphname = n;
lastChange = "2019-02-18 20:31:10 +0000";
layers = (
{
anchors = (
{
name = bottom;
position = "{285, 0}";
},
{
name = top;
position = "{359, 557}";
}
);
layerId = "9808B12E-936F-4588-BC0B-2F1DE3B33DAD";
paths = (
{
closed = 1;
nodes = (
"211 0 LINE",
"259 341 LINE",
"287 396 OFFCURVE",
"332 433 OFFCURVE",
"368 433 CURVE SMOOTH",
"396 433 OFFCURVE",
"409 420 OFFCURVE",
"408 385 CURVE SMOOTH",
"407 361 OFFCURVE",
"402 316 OFFCURVE",
"394 249 CURVE SMOOTH",
"386 183 OFFCURVE",
"375 100 OFFCURVE",
"360 0 CURVE",
"534 0 LINE",
"536 11 OFFCURVE",
"564 217 OFFCURVE",
"569 250 CURVE SMOOTH",
"577 308 OFFCURVE",
"589 395 OFFCURVE",
"589 417 CURVE SMOOTH",
"589 522 OFFCURVE",
"542 564 OFFCURVE",
"454 564 CURVE SMOOTH",
"381 564 OFFCURVE",
"318 524 OFFCURVE",
"273 456 CURVE",
"280 557 LINE",
"113 557 LINE",
"37 0 LINE"
);
}
);
userData = {
assembly = "PUSHB[ ]\011/* 6 values pushed */
25 1 1 3 1 74 
MPPEM[ ]\011/* MeasurePixelPerEm */
PUSHB[ ]\011/* 1 value pushed */
31 
LT[ ]\011/* LessThan */
IF[ ]\011/* If */
NPUSHB[ ]\011/* 22 values pushed */
0 1 3 0 3 1 0 112 5 4 2 3 3 20 75 2 1 0 0 18 0 76 
ELSE[ ]\011/* Else */
NPUSHB[ ]\011/* 26 values pushed */
0 1 3 0 3 1 0 112 5 1 4 4 28 75 0 3 3 20 75 2 1 0 0 18 0 76 
EIF[ ]\011/* EndIf */
NPUSHB[ ]\011/* 13 values pushed */
0 0 0 28 0 27 17 19 38 25 6 7 24 
CALL[ ]\011/* CallFunction */";
};
width = 644;
},
{
anchors = (
{
name = bottom;
position = "{255, 0}";
},
{
name = top;
position = "{329, 557}";
}
);
layerId = "A8DD961D-2AAA-4421-B000-699D061D5CAD";
paths = (
{
closed = 1;
nodes = (
"118 0 LINE",
"165 350 LINE",
"209 413 OFFCURVE",
"304 497 OFFCURVE",
"375 497 CURVE SMOOTH",
"426 497 OFFCURVE",
"444 476 OFFCURVE",
"444 421 CURVE SMOOTH",
"444 388 OFFCURVE",
"437 342 OFFCURVE",
"424 250 CURVE SMOOTH",
"400 95 OFFCURVE",
"392 35 OFFCURVE",
"387 0 CURVE",
"459 0 LINE",
"485 169 OFFCURVE",
"492 219 OFFCURVE",
"497 250 CURVE SMOOTH",
"510 341 OFFCURVE",
"518 396 OFFCURVE",
"518 428 CURVE SMOOTH",
"518 521 OFFCURVE",
"484 564 OFFCURVE",
"405 564 CURVE SMOOTH",
"326 564 OFFCURVE",
"238 506 OFFCURVE",
"175 427 CURVE",
"189 557 LINE",
"121 557 LINE",
"45 0 LINE"
);
}
);
userData = {
assembly = "PUSHB[ ]\011/* 6 values pushed */
27 1 0 1 1 74 
MPPEM[ ]\011/* MeasurePixelPerEm */
PUSHB[ ]\011/* 1 value pushed */
31 
LT[ ]\011/* LessThan */
IF[ ]\011/* If */
NPUSHB[ ]\011/* 19 values pushed */
0 1 1 3 91 5 4 2 3 3 20 75 2 1 0 0 18 0 76 
ELSE[ ]\011/* Else */
NPUSHB[ ]\011/* 23 values pushed */
0 3 3 20 75 0 1 1 4 91 5 1 4 4 28 75 2 1 0 0 18 0 76 
EIF[ ]\011/* EndIf */
NPUSHB[ ]\011/* 13 values pushed */
0 0 0 30 0 29 17 20 40 24 6 7 24 
CALL[ ]\011/* CallFunction */";
};
width = 583;
},
{
anchors = (
{
name = bottom;
position = "{259.875, 0}";
},
{
name = top;
position = "{333.875, 557}";
}
);
layerId = "FC25F90A-4039-49BA-9FA9-48428CE1BED8";
paths = (
{
closed = 1;
nodes = (
"147.675 0 LINE",
"195.35 348.35 LINE",
"234.05 400.325 OFFCURVE",
"320.975 469.175 OFFCURVE",
"371.35 469.175 CURVE SMOOTH",
"407.075 469.175 OFFCURVE",
"420.725 457.175 OFFCURVE",
"420.725 412.775 CURVE SMOOTH",
"420.725 385.075 OFFCURVE",
"414.725 333.4 OFFCURVE",
"402.375 250.675 CURVE SMOOTH",
"382.2 115.225 OFFCURVE",
"370 29.825 OFFCURVE",
"366.025 0 CURVE",
"474.7 0 LINE",
"498.05 146 OFFCURVE",
"507.05 208.975 OFFCURVE",
"512.05 250.675 CURVE",
"525.05 341.675 OFFCURVE",
"532.05 398.35 OFFCURVE",
"532.05 422.025 CURVE SMOOTH",
"532.05 523 OFFCURVE",
"494.425 564 OFFCURVE",
"418.825 564 CURVE SMOOTH",
"343.15 564 OFFCURVE",
"266.075 517.3 OFFCURVE",
"208.675 448.95 CURVE",
"218.7 557 LINE",
"115.675 557 LINE",
"39.675 0 LINE"
);
}
);
width = 593.075;
}
);
leftKerningGroup = n;
note = n;
rightKerningGroup = n;
unicode = 006E;
},
{
glyphname = eng;
lastChange = "2019-03-27 19:42:17 +0000";
layers = (
{
layerId = "9808B12E-936F-4588-BC0B-2F1DE3B33DAD";
paths = (
{
closed = 1;
nodes = (
"448 -258 OFFCURVE",
"507 -153 OFFCURVE",
"534 0 CURVE SMOOTH",
"548 80 OFFCURVE",
"566 211 OFFCURVE",
"578 306 CURVE SMOOTH",
"585 359 OFFCURVE",
"589 401 OFFCURVE",
"589 417 CURVE SMOOTH",
"589 522 OFFCURVE",
"542 564 OFFCURVE",
"454 564 CURVE SMOOTH",
"381 564 OFFCURVE",
"318 524 OFFCURVE",
"273 456 CURVE",
"280 557 LINE",
"113 557 LINE",
"37 0 LINE",
"211 0 LINE",
"259 341 LINE",
"287 396 OFFCURVE",
"332 433 OFFCURVE",
"368 433 CURVE SMOOTH",
"396 433 OFFCURVE",
"409 420 OFFCURVE",
"408 385 CURVE SMOOTH",
"405 326 OFFCURVE",
"393 231 OFFCURVE",
"360 0 CURVE SMOOTH",
"348 -91 OFFCURVE",
"300 -179 OFFCURVE",
"242 -179 CURVE SMOOTH",
"234 -179 OFFCURVE",
"214 -176 OFFCURVE",
"206 -173 CURVE",
"186 -240 LINE",
"195 -251 OFFCURVE",
"241 -258 OFFCURVE",
"281 -258 CURVE SMOOTH"
);
}
);
userData = {
assembly = "NPUSHB[ ]\011/* 14 values pushed */
35 1 2 4 13 1 1 3 12 1 0 1 3 74 
MPPEM[ ]\011/* MeasurePixelPerEm */
PUSHB[ ]\011/* 1 value pushed */
31 
LT[ ]\011/* LessThan */
IF[ ]\011/* If */
NPUSHB[ ]\011/* 31 values pushed */
0 2 4 3 4 2 3 112 6 5 2 4 4 20 75 0 3 3 18 75 0 1 1 0 91 0 0 0 30 0 76 
ELSE[ ]\011/* Else */
NPUSHB[ ]\011/* 35 values pushed */
0 2 4 3 4 2 3 112 6 1 5 5 28 75 0 4 4 20 75 0 3 3 18 75 0 1 1 0 91 0 0 0 30 0 76 
EIF[ ]\011/* EndIf */
NPUSHB[ ]\011/* 14 values pushed */
0 0 0 38 0 37 17 19 41 37 40 7 7 25 
CALL[ ]\011/* CallFunction */";
};
width = 646;
},
{
background = {
components = (
{
name = n;
}
);
};
layerId = "A8DD961D-2AAA-4421-B000-699D061D5CAD";
paths = (
{
closed = 1;
nodes = (
"358 -253 OFFCURVE",
"432 -168 OFFCURVE",
"459 0 CURVE SMOOTH",
"475 97 OFFCURVE",
"486 179 OFFCURVE",
"503 288 CURVE SMOOTH",
"511 347 OFFCURVE",
"517 391 OFFCURVE",
"518 421 CURVE SMOOTH",
"518 521 OFFCURVE",
"483 564 OFFCURVE",
"408 564 CURVE SMOOTH",
"329 564 OFFCURVE",
"238 505 OFFCURVE",
"175 426 CURVE",
"190 557 LINE",
"121 557 LINE",
"45 0 LINE",
"118 0 LINE",
"165 348 LINE",
"209 411 OFFCURVE",
"307 498 OFFCURVE",
"378 498 CURVE SMOOTH",
"426 498 OFFCURVE",
"444 472 OFFCURVE",
"444 417 CURVE SMOOTH",
"444 364 OFFCURVE",
"419 196 OFFCURVE",
"387 0 CURVE SMOOTH",
"364 -140 OFFCURVE",
"325 -208 OFFCURVE",
"234 -208 CURVE SMOOTH",
"222 -208 OFFCURVE",
"199 -205 OFFCURVE",
"188 -198 CURVE",
"175 -233 LINE",
"186 -245 OFFCURVE",
"215 -253 OFFCURVE",
"247 -253 CURVE SMOOTH"
);
}
);
userData = {
assembly = "NPUSHB[ ]\011/* 14 values pushed */
35 1 3 2 13 1 1 3 12 1 0 1 3 74 
MPPEM[ ]\011/* MeasurePixelPerEm */
PUSHB[ ]\011/* 1 value pushed */
31 
LT[ ]\011/* LessThan */
IF[ ]\011/* If */
NPUSHB[ ]\011/* 28 values pushed */
0 2 2 4 91 6 5 2 4 4 20 75 0 3 3 18 75 0 1 1 0 91 0 0 0 22 0 76 
ELSE[ ]\011/* Else */
NPUSHB[ ]\011/* 32 values pushed */
0 4 4 20 75 0 2 2 5 91 6 1 5 5 28 75 0 3 3 18 75 0 1 1 0 91 0 0 0 22 0 76 
EIF[ ]\011/* EndIf */
NPUSHB[ ]\011/* 14 values pushed */
0 0 0 38 0 37 17 20 40 37 40 7 7 25 
CALL[ ]\011/* CallFunction */";
};
width = 583;
},
{
background = {
components = (
{
name = n;
}
);
};
layerId = "FC25F90A-4039-49BA-9FA9-48428CE1BED8";
paths = (
{
closed = 1;
nodes = (
"374.55 -253.65 OFFCURVE",
"450.05 -166.675 OFFCURVE",
"475.375 0 CURVE SMOOTH",
"496.075 134.6 OFFCURVE",
"511.375 237.35 OFFCURVE",
"520.35 303.45 CURVE SMOOTH",
"528.375 359.575 OFFCURVE",
"532.05 400.3 OFFCURVE",
"532.05 422.025 CURVE SMOOTH",
"532.05 523 OFFCURVE",
"494.425 564 OFFCURVE",
"418.825 564 CURVE SMOOTH",
"343.8 564 OFFCURVE",
"266.075 516.625 OFFCURVE",
"208.675 447.95 CURVE",
"218.7 557 LINE",
"115.675 557 LINE",
"40.35 0 LINE",
"148.35 0 LINE",
"195.35 346.675 LINE",
"233.375 398.325 OFFCURVE",
"321.975 469.175 OFFCURVE",
"371.35 469.175 CURVE SMOOTH",
"407.4 469.175 OFFCURVE",
"421 457 OFFCURVE",
"420.725 411.8 CURVE SMOOTH",
"420 348 OFFCURVE",
"388 155 OFFCURVE",
"367 0 CURVE SMOOTH",
"349 -132 OFFCURVE",
"316 -190 OFFCURVE",
"229 -190 CURVE SMOOTH",
"221 -190 OFFCURVE",
"202 -187 OFFCURVE",
"194 -184 CURVE",
"175.95 -235.65 LINE",
"186.95 -247.65 OFFCURVE",
"215.875 -253.65 OFFCURVE",
"248.5 -253.65 CURVE SMOOTH"
);
}
);
width = 593.075;
}
);
leftKerningGroup = n;
leftMetricsKey = n;
note = eng;
rightKerningGroup = j;
unicode = 014B;
},
